/* XPM */
static char *_d5cf713b2d0472dd1bb23fdf8930d14gvZyXAFmWr4nYppr[] = {
/* columns rows colors chars-per-pixel */
"50 64 167 2 ",
"   c None",
".  c #2D1D00",
"X  c #2E1D00",
"o  c #2E1E00",
"O  c #2F1E00",
"+  c #2E1F00",
"@  c #301E00",
"#  c #301F01",
"$  c #311F02",
"%  c #322002",
"&  c #322003",
"*  c #342005",
"=  c #342105",
"-  c #352106",
";  c #382309",
":  c #3B240D",
">  c #3E2610",
",  c #442917",
"<  c #4B2B1F",
"1  c #4B2720",
"2  c #4C2721",
"3  c #4D2722",
"4  c #4E2723",
"5  c #4D2E21",
"6  c #4F2F24",
"7  c #502825",
"8  c #542929",
"9  c #552A2A",
"0  c #552A2B",
"q  c #4B3020",
"w  c #513025",
"e  c #523127",
"r  c #533127",
"t  c #543229",
"y  c #55332A",
"u  c #58342D",
"i  c #59352F",
"p  c #5A352F",
"a  c #5A3530",
"s  c #5B3630",
"d  c #5C3631",
"f  c #5F3835",
"g  c #692F41",
"h  c #683C40",
"j  c #7C3557",
"k  c #7D3558",
"l  c #7F365B",
"z  c #6E4046",
"x  c #704149",
"c  c #73434B",
"v  c #73434C",
"b  c #74434C",
"n  c #74434D",
"m  c #73444C",
"M  c #74444D",
"N  c #75444E",
"B  c #7B4755",
"V  c #7F6664",
"C  c #7E6764",
"Z  c #787363",
"A  c #80365B",
"S  c #813A5C",
"D  c #833E5E",
"F  c #843A60",
"G  c #804B5B",
"H  c #844C5F",
"J  c #854F61",
"K  c #894F65",
"L  c #8D5169",
"P  c #8C5268",
"I  c #8E516A",
"U  c #924870",
"Y  c #995776",
"T  c #995877",
"R  c #9B5878",
"E  c #9C597A",
"W  c #83736C",
"Q  c #857670",
"!  c #878276",
"~  c #8D897E",
"^  c #A14081",
"/  c #A24083",
"(  c #A34083",
")  c #A25C80",
"_  c #A35E82",
"`  c #A65F85",
"'  c #B84C9C",
"]  c #B25694",
"[  c #B46695",
"{  c #B56796",
"}  c #B76898",
"|  c #BB6A9D",
" . c #BB6B9D",
".. c #BC6B9E",
"X. c #BD6B9E",
"o. c #BD6C9F",
"O. c #BE6CA1",
"+. c #BF6DA1",
"@. c #D352BA",
"#. c #D453BB",
"$. c #D754BE",
"%. c #D755BE",
"&. c #C26EA4",
"*. c #C26FA5",
"=. c #CB72AE",
"-. c #CF75B4",
";. c #D377B7",
":. c #D478B9",
">. c #D955C0",
",. c #E266CA",
"<. c #E362CC",
"1. c #E07EC6",
"2. c #E27FC8",
"3. c #E27FC9",
"4. c #E766D0",
"5. c #EB65D5",
"6. c #EE67D8",
"7. c #F371DD",
"8. c #F572DF",
"9. c #F572E0",
"0. c #F573E0",
"q. c #99968E",
"w. c #E480CB",
"e. c #E581CC",
"r. c #E681CC",
"t. c #E782CE",
"y. c #E882CF",
"u. c #E883CF",
"i. c #E983D0",
"p. c #ED85D5",
"a. c #EE86D6",
"s. c #EF86D7",
"d. c #F087D8",
"f. c #F087D9",
"g. c #F684DF",
"h. c #F188DA",
"j. c #F288DA",
"k. c #F389DC",
"l. c #F489DD",
"z. c #F58ADE",
"x. c #F68ADF",
"c. c #F883E1",
"v. c #F883E2",
"b. c #FA87E3",
"n. c #FB85E5",
"m. c #FB86E5",
"M. c #F78BE0",
"N. c #F88BE1",
"B. c #F98CE2",
"V. c #FD8BE7",
"C. c #FB8DE4",
"Z. c #FC8EE6",
"A. c #FD8EE7",
"S. c #FE8EE8",
"D. c #FE8FE8",
"F. c #FF8FE9",
"G. c #FF8FEA",
"H. c #FF90EA",
"J. c #FF90EB",
"K. c #FF91EC",
"L. c #FF91ED",
"P. c #FF91EE",
"I. c #FF92EE",
"U. c #FF92EF",
"Y. c #FF93F0",
"T. c #FF93F1",
"R. c #C1C2C4",
/* pixels */
"                                                                                                    ",
"                                                                                                    ",
"        $ X X X X X X X X X X X X X X X X X X X X X X X X X X X X X X X X X X X X X X X X $         ",
"        5 L L L L L L L L L L L L L L L L L L L L L L L L L L L L L L L L L L L L L L L L 5         ",
"        a =.A.L.J.L.J.L.L.L.L.J.L.J.L.J.L.L.L.G.L.J.L.J.L.J.L.J.J.L.J.L.L.J.L.J.L.L.L.A.=.a         ",
"        & 6 -.g.n.n.n.n.n.n.n.n.n.n.n.n.n.n.n.n.n.n.n.n.n.n.n.n.n.n.n.n.n.n.n.n.m.m.g.-.6 =         ",
"          - < ' >.%.$.$.$.$.%.%.$.$.$.$.$.$.$.$.%.%.$.$.%.%.$.$.%.%.$.$.$.%.%.%.%.$.' < -           ",
"            - 1 0 0 0 0 0 0 0 0 0 0 0 0 0 0 0 8 0 0 0 0 0 0 0 0 0 0 0 0 0 0 0 0 0 0 1 -             ",
"              & K o. . . . . . . . . . .| | | | | | |  . . . . . . . . . . . . .] j $               ",
"              = } T.L.T.T.T.T.T.T.T.T.T.T.T.T.T.T.T.T.T.T.T.T.L.T.T.T.T.T.T.T.L.9.( -               ",
"              - { L.i.} [ [ [ [ { { [ { [ [ [ [ [ [ [ [ { [ { [ [ [ [ [ { { } u.7.( $               ",
"              = { T.O.> a f f f f f d f f f f f f f f f f f f f f f f f f d : +.8.( -               ",
"              - { T.| p r.M.l.l.l.l.l.l.l.l.l.k.l.l.l.l.k.l.l.l.g.l.l.l.l.r.u o.8.^ $               ",
"              - { T.| p f.G.G.G.G.J.G.G.G.G.G.G.G.G.G.G.G.J.G.G.G.G.G.J.J.h.p o.8.^ -               ",
"              & { T. .p s.G.G.G.J.A.G.G.G.A.G.G.A.G.G.G.J.A.J.A.G.A.J.A.J.d.p o.0.^ =               ",
"              - { T.o.p d.G.G.G.A.J.A.A.G.G.A.G.G.G.A.G.A.J.A.J.A.J.A.J.J.s.p o.0.^ =               ",
"              - { T.| p s.J.J.A.J.A.J.A.J.A.J.A.J.A.J.A.J.A.J.A.A.J.D.D.D.d.p o.9.^ -               ",
"              = { T.o.p d.J.A.J.A.J.A.J.A.J.A.J.A.J.A.J.A.J.A.J.J.A.J.J.J.d.p o.0.( $               ",
"              - { T.o.p d.J.D.A.J.A.J.A.J.A.J.A.J.A.J.A.J.A.J.A.A.J.D.D.J.d.p o.0.^ $               ",
"              = { T. .p d.J.D.J.A.J.A.J.A.J.A.J.A.J.A.J.A.J.A.J.J.A.J.D.D.d.p o.0.^ -               ",
"              - { T.o.p s.J.A.J.J.A.J.A.J.A.J.A.J.A.J.A.J.A.J.A.A.J.A.J.J.d.p o.0.^ -               ",
"              = { T. .p d.J.J.A.A.J.A.J.A.J.A.J.A.J.A.J.A.J.A.J.J.A.J.A.J.d.p o.0.^ -               ",
"              - { T.o.p d.J.A.J.J.A.J.A.J.A.J.A.J.A.J.A.J.A.J.A.A.J.A.J.J.s.p o.8.( $               ",
"              = { L.o.p d.D.J.A.A.J.A.J.A.J.A.J.A.J.A.J.A.J.A.J.J.A.J.A.J.h.p o.9.( -               ",
"              = { T. .p h.J.A.J.J.A.J.A.J.A.J.A.J.A.J.A.J.A.J.A.A.J.A.J.J.d.p o.0.^ -               ",
"              - { T.o.p s.J.J.A.A.J.A.J.A.J.A.J.A.J.A.J.A.J.A.J.J.A.J.A.D.d.p o.0.^ -               ",
"              = { T. .p h.G.V.B.A.D.J.A.J.A.J.A.J.A.J.A.J.A.J.A.A.J.A.J.J.d.p o.9.^ -               ",
"              = { T.o.p s.G.R f E J.A.J.A.J.A.J.A.J.A.J.A.J.A.J.J.A.J.A.J.d.p o.9.^ $               ",
"              - { T. .p r._ C Z W ` B.D.J.A.J.A.J.A.J.A.J.A.J.A.A.J.D.D.D.d.p o.0.^ -               ",
"              = { T.o.d 1.y q.R.Q u k.D.A.J.A.J.A.J.A.J.A.J.A.J.J.A.J.J.J.d.p o.0.^ -               ",
"              = { T. .a r.B Q q.W H x.J.J.A.J.A.J.A.J.A.J.A.J.A.A.J.D.D.J.d.p o.0.^ -               ",
"              - { T.| a s.M.K q I B.J.J.A.J.A.J.A.J.A.J.A.J.A.J.J.A.J.D.D.d.p o.9.^ $               ",
"              = { T. .p d.D.s.r.s.A.J.A.J.A.J.A.J.A.J.A.J.A.J.A.A.J.A.J.J.d.p o.0.^ -               ",
"              = { L.o.p d.J.J.J.J.J.A.J.A.J.A.J.A.J.A.J.A.J.A.J.J.A.J.A.D.d.p o.0.^ -               ",
"              - { T.o.p d.J.J.A.J.A.J.A.J.A.J.A.J.A.J.A.J.A.J.A.A.J.A.J.J.d.p o.9.^ -               ",
"              = { T. .p d.J.A.J.A.J.A.J.A.J.A.J.A.J.A.J.A.J.A.J.J.A.J.A.J.d.p o.9.^ $               ",
"              = { T.o.p d.D.D.D.J.A.J.A.J.A.J.A.J.A.J.A.J.A.J.A.A.J.D.D.D.d.p o.0.^ -               ",
"              - { T. .p d.J.J.D.A.J.A.J.A.J.A.J.A.J.A.J.A.J.A.J.J.A.J.J.J.d.p o.0.^ -               ",
"              = { T.o.p d.J.J.A.J.A.J.A.J.A.J.A.J.A.J.A.J.A.J.A.A.J.D.D.J.d.p o.0.^ -               ",
"              - { T. .p d.J.A.J.A.J.A.J.A.J.A.J.A.J.A.J.A.J.A.J.J.A.J.D.D.d.p o.9.( $               ",
"              - { T.| p s.J.J.A.J.A.J.A.J.A.J.A.J.A.J.A.J.A.J.A.A.J.A.J.J.d.p o.8.( $               ",
"              = { T.o.p d.J.A.J.A.J.A.J.A.J.A.J.A.J.A.J.A.J.A.J.J.A.J.A.J.d.p o.8.U :               ",
"              - { T.o.p d.J.D.A.J.A.J.A.J.A.J.A.J.A.J.A.J.A.J.A.A.J.A.J.D.d.p o.9.( $               ",
"              = { T. .p d.J.D.J.A.J.A.J.A.J.A.J.A.J.A.J.A.J.A.J.J.A.J.A.J.d.p o.9.( ;               ",
"              - { T.o.p d.J.J.A.J.A.J.A.J.A.J.A.J.A.J.A.J.A.J.A.A.J.A.J.J.s.p o.9.^ $               ",
"              = { T. .p d.J.A.J.A.J.A.J.A.J.A.J.A.J.A.J.A.J.A.J.J.A.J.A.J.d.p o.9.^ -               ",
"              - { T.o.p d.J.J.A.J.A.J.A.J.A.J.A.J.A.J.A.J.A.J.A.A.J.A.J.D.d.p o.9.^ -               ",
"              = { L.o.p d.D.A.J.A.J.A.J.A.J.A.J.A.J.A.J.A.J.A.J.J.A.J.A.J.d.p o.0.^ -               ",
"              = { T.| p h.J.J.A.G.G.A.J.A.J.J.A.J.A.J.A.G.G.G.A.J.D.D.D.J.d.p o.9.^ -               ",
"              - { T.o.a h.J.J.J.J.J.J.J.J.J.J.J.J.J.J.J.J.J.J.J.J.J.J.J.J.h.a o.0.^ $               ",
"              = { T.o.e ;.w.w.1.w.3.3.3.1.w.1.r.w.r.w.1.w.3.w.w.1.w.w.w.w.;.y O.0.^ $               ",
"              = { T.&., w y w w e e w w w t w w w w w w e e q w w w e e w w , *.9.^ -               ",
"              - { L.h.:.;.:.;.;.;.;.;.;.;.;.;.;.;.;.;.;.;.;.:.;.;.;.;.;.;.;.:.h.8.^ -               ",
"              - } T.L.L.L.L.T.L.T.L.L.T.T.L.T.L.U.L.L.L.T.L.L.L.L.T.T.L.T.L.L.L.9.^ -               ",
"            X X m R Y Y Y Y T T Y Y Y Y Y Y Y Y T T T Y T T Y Y Y Y T T Y Y Y T U g $ X             ",
"        $ : z N v c c c c c c c c c c c c c v v c c c c c c c c c c c c c c c N N N N h : $         ",
"      $ > h s.G.b.c.c.c.c.c.v.v.c.v.v.v.v.v.c.v.v.v.v.c.v.v.v.c.c.c.c.c.c.c.c.v.c.b.A.p.h > $       ",
"    $ ; N s.A.V.,.@.@.%.#.#.#.#.#.$.#.#.#.#.#.$.#.#.#.$.#.#.#.%.#.#.#.#.$.@.#.#.$.,.V.G.f.N ; $     ",
"    X B i.G.G.4.F 4 4 7 7 7 4 7 7 7 7 7 4 7 7 7 4 7 7 7 4 7 7 7 7 7 7 7 7 7 4 7 4 S 4.A.G.y.B X     ",
"    X D 6.5.<.S 4                                                                 4 S <.5.6.D X     ",
"    $ 0 A l k 1                                                                     1 k A A 0 $     ",
"      $ + + +                                                                         + + X $       ",
"                                                                                                    ",
"                                                                                                    "
};
