/* XPM */
static char *result[] = {
/* columns rows colors chars-per-pixel */
"64 64 27 1 ",
"  c #9FA96C",
". c #A2AA6D",
"X c #A6AA73",
"o c #AAAC75",
"O c #B3B27D",
"+ c #B5B282",
"@ c #BBB586",
"# c #BCB885",
"$ c #BDB589",
"% c #C3B78C",
"& c #CCB68F",
"* c #C3B88C",
"= c #C7B590",
"- c #CCB693",
"; c #C5BB91",
": c #CEB996",
"> c #CDB79C",
", c #CFBA99",
"< c #D1BB96",
"1 c #D3BD9B",
"2 c #CFBAA0",
"3 c #D4BEA0",
"4 c #CFC099",
"5 c #D6C09E",
"6 c #D8C29E",
"7 c #D7C1A1",
"8 c #D9C2A1",
/* pixels */
"<<<,<1166<6166<<51<<<8<<5:<<11,,7873,,,<5,487:,,5,,,<<<5<,,51564",
"-<<,<11161<111<<<:<<:5<<::51<,1,475,,7,,81,55,,::415<-<<,:11,:&<",
"<<17661<11<1611<,,5,5<,::<555551:84,,7,,7<585411577<<-,,::77<<<1",
"1<15666<11<<1111<5::<,<545775577,75:75115<187571,188<,<151511111",
"111<16661811111185,:,<555655<575<55<855585<875575,5<57378315811<",
"1111<<<<11113113555555556<<5155<66464,<<,,1785<5155,571<8<155121",
"<1<<<<66181111385558555,6665<151<6145<15<14,,515,78,55,,55751338",
"1131<<&611111881587585:5665<115366<55555571,5857:,17885,57575338",
"6<<66<,711118881,55884,55515575<886<55:56,<875<5<715<5<-,885,11,",
"1<<665581<18888154,87155517775<<8881,<,,545855<1575555<,,,87557,",
"<64<46<53318111175<5,;+5515<55<55151755775<515<<7555<5<<1<85,717",
"<66&6<,,1813711851777;X5155<<54511117515,,,5157251:5<1<,7,87,<55",
"111<,77755,:1<<75,,55*o8115555#+51,511775,5:7773351<4<551,1,5755",
"1161,1,55,,675,757535*X57751:O #,115<,,1,58,7,77<,1565,:5,15<77,",
"8161:=,4458,5#o611773;X<7517# ;11155,111515177278377777,7155<,11",
"11861177<75:,:oo4717,$o1855#.473755<11115555555771<1555,5,731111",
"118888113118111Oo<5<5*O551*X*,171111168131116611<<11<165655855<5",
"11811171>1111181O.;46**<<1+*5511816616318311161115786<5<,5,54751",
"81115<5<<<<<31611O+:5,<1<111565<6<16611338311811577144<45,:513<1",
"1881173<1166116<15<<5551-611585,1161<1631181161857<1664655,881,1",
"<66117111161<1115557,577111116161166111118811666554<666618887751",
"6<46551766111111<157<<<81<111<<61<1611&1138111115511<66<16811111",
"<6615787111<1181<75<55586111<1<<1-1666813881111111<545<581618111",
"1615771<1311<1811775558716611-<611<1181111111<11<1374<5688631111",
"11117111111581811785<561188161&111<<111>111111111116118811116181",
"11153<<<1<11111811551111511161<61<-<1181111161<16111111111116181",
"151<3<1<111<1613<-6111158111:3516<161111311111<11<111886<<&<1188",
"5711133<111<11111<111<1611<<<83111116116111<<111<1118831<11:1181",
"5866411<311111115116611<1611666586166611616116666<<61111161<1111",
"1566<<6<3111111181<1611<1666181616111616661811116<<1111116<111<1",
"8866111<161<1111111<61<1111618161<11666666116161<661111111111111",
"156551<1111<18815511<<<61<11666<<<661161611155<661111111111611<1",
"<66661<1666618165161111111575566668311666<6<6661616157511155<551",
"11686111<<<<1811561178<<6515555166831168<1664115181585,<3<51571<",
"&<8866116&&<6661156678111651<<771<<3111<11<16685<18871<111781111",
"<11188116<<<6181513311<5,<771<576<>1>131116<<6687811<53<,178151<",
"111818666<6&111<15311113<,71<117<->1-333<<1<<1668111185111875<61",
"66311166666<1-<1163>11111,17111<11><11>11111<1161:1118111111511<",
"<118616111<61118132215665<55<<11111<13111111:<14<<11111671<1585<",
"<111111111<11311,13356<14166:<1<111-11<>5111<:64<<1711776651,115",
"113111<111118886:11516611<<111<-<1<<1<<181<14=<4<<<<1116116<1<88",
"88838813111131183<111511>-1681><181<161<11<65X:,<46<&<1111<16687",
"318111111<1831367161155111331>-1111<<11<--115X:<<<%<1<<11<61<565",
"1<111118611181117151<:1<13331111111111111&&<<@,<<*.<61<<<<6<1115",
"<1111111161681181166<41688111111811<<1111&Xo15<14OO6136161<1<166",
"181-1118111188111<1614<<1111111<61611111:1:X+5:<&O&<1111111<11<1",
"661-11<1111<18811<61<<6<111611<&1111<&<<151:$<4<<5<&1<1<11<<1116",
"11111111111<831511<466<61681111<1666<&<<<111511<<164111111111:&<",
"11<&<611116<1-6651:181111131<11<1616<<6<<16131<<6<616181181181<&",
"161->66166161<1611711111113111<1111166661131111><<55111111181611",
"11<<118666&16-1-1666611<<11181116161<68116<3661<1516111111113111",
"<1111166-611161-1551181<11118111111&666<<<11161<5511311811166111",
"6<61163>-6161661111<58551<<18611-<--<1<<11<161168511113111111118",
"1<11613681111611<666665111111111661-<6831<>68611118111118111&116",
"11136-1631166<11<<666115118111816666668361663811<111<1111186<>81",
"<<31<<131>-66&1<66<6111<181<13<11<61<<331&16111111111111<1811181",
">>31881111<11>163111116<81<<:5:-<131111131161<11666661>616661661",
"<111811881681313115515611<1<<55:18381131186111<1111661<66661116<",
"15113111113113<1781<11<<&661555511>118111111-1661116611116666<11",
"111333111<8111<<1711866<<<45655,<-<111111111<18166<66>6111666116",
"11133131311<11<>:1-181<1<1<15<:::<7711831161611-1616816316811>11",
"1<1<><1>11>1<1111:->1<:151516<,,7157113111116116-11166611>611168",
"<,,,<<1-<1&11><1>:<1<11161175<,5,:1831<>1331166&>66383161<161<16",
",<1131131<>11111131131<:11<1155577<1<111>18186<<1611111111<61-1<"
};
