/* XPM */
static char *result[] = {
/* columns rows colors chars-per-pixel */
"64 64 13 1 ",
"  c #202020",
". c #505050",
"X c #82180F",
"o c #86534B",
"O c #9A8128",
"+ c #E9C943",
"@ c #30679C",
"# c #3C80D9",
"$ c #6190DA",
"% c gray72",
"& c #FFF5E88E",
"* c #80AFF2",
"= c #F8F8F8",
/* pixels */
"&&&&&&&&&&&&&&&&&&&&&&&&&&&&&&&&&&&&&&&&&&&&&&&&&&&&&&&&&&&&&&&&",
"&&&&&&&&&&&&&&&&&&&&&&&&&&&&&&&&&&&&&&&&&&&&&&&&&&&&&&&&&&&&&&&&",
"&&&&&&&&&&&&&&&&&&&&&&&&&&&&&&&&&&&&&&&&&&&&&&&&&&&&&&&&&&&&&&&&",
"&&&&&&&&&&&&&&&&&&&&&&&&                  &&&&&&&&&&&&&&&&&&&&&&",
"&&&&&&&&&&&&&&&&&&&&&&&&                  &&&&&&&&&&&&&&&&&&&&&&",
"&&&&&&&&&&&&&&&&&&&&    @@##############@@    &&&&&&&&&&&&&&&&&&",
"&&&&&&&&&&&&&&&&&&&&    @@##############@@    &&&&&&&&&&&&&&&&&&",
"&&&&&&&&&&&&&&&&&&  @@####$$########..  ..@@    &&&&&&&&&&&&&&&&",
"&&&&&&&&&&&&&&&&&&  @@####$$########..  ..@@    &&&&&&&&&&&&&&&&",
"&&&&&&&&&&&&&&&&  @@##$$$$$$######..%%==%%..%%%%  &&&&&&&&&&&&&&",
"&&&&&&&&&&&&&&&&  @@##$$$$$$######..%%==%%..%%%%  &&&&&&&&&&&&&&",
"&&&&&&&&&&&&&&  @@##****$$########  ======..====..  &&&&&&&&&&&&",
"&&&&&&&&&&&&&&  @@##****$$########  ======..====..  &&&&&&&&&&&&",
"&&&&&&&&&&&&  @@##$$**$$####@@      ==  ==..  ====  &&&&&&&&&&&&",
"&&&&&&&&&&&&  @@##$$**$$####@@      ==  ==..  ====  &&&&&&&&&&&&",
"&&&&&&&&&&&&  ####$$$$####@@  %%==..%%==%%..%%==%%  &&&&&&&&&&&&",
"&&&&&&&&&&&&  ####$$$$####@@  %%==..%%==%%..%%==%%  &&&&&&&&&&&&",
"&&&&&&&&&&  @@##########@@  ========..    %%    ..%%  &&&&&&&&&&",
"&&&&&&&&&&  @@##########@@  ========..    %%    ..%%  &&&&&&&&&&",
"&&&&&&&&&&  @@##$$####@@  ==%%..%%====%%%%  XXooXX==  &&&&&&&&&&",
"&&&&&&&&&&  @@##$$####@@  ==%%..%%====%%%%  XXooXX==  &&&&&&&&&&",
"&&&&&&&&&&  @@########  %%======%%..======%%  XXXX==  &&&&&&&&&&",
"&&&&&&&&&&  @@########  %%======%%..======%%  XXXX==  &&&&&&&&&&",
"&&&&&&&&&&  @@######@@..==%%....%%==========%%  ====  &&&&&&&&&&",
"&&&&&&&&&&  @@######@@..==%%....%%==========%%  ====  &&&&&&&&&&",
"&&&&&&&&&&  @@######  %%========%%..==========..==%%..  &&&&&&&&",
"&&&&&&&&&&  @@######  %%========%%..==========..==%%..  &&&&&&&&",
"&&&&&&&&&&  @@######  ======%%..%%============..======  &&&&&&&&",
"&&&&&&&&&&  @@######  ======%%..%%============..======  &&&&&&&&",
"&&&&&&&&&&  @@######  ========================..====%%  &&&&&&&&",
"&&&&&&&&&&  @@######  ========================..====%%  &&&&&&&&",
"&&&&&&&&&&  ..@@####  ==============%%....            &&&&&&&&&&",
"&&&&&&&&&&  ..@@####  ==============%%....            &&&&&&&&&&",
"&&&&&&&&&&&&  @@##@@  %%==========....%%========%%  &&&&&&&&&&&&",
"&&&&&&&&&&&&  @@##@@  %%==========....%%========%%  &&&&&&&&&&&&",
"&&&&&&&&&&&&  ..@@@@@@  ======================%%..  &&&&&&&&&&&&",
"&&&&&&&&&&&&  ..@@@@@@  ======================%%..  &&&&&&&&&&&&",
"&&&&&&&&&&&&&&  ..@@@@  ..==================%%..  &&&&&&&&&&&&&&",
"&&&&&&&&&&&&&&  ..@@@@  ..==================%%..  &&&&&&&&&&&&&&",
"&&&&&&&&&&&&&&&&    @@@@  ..%%%%%%%%%%%%%%..    &&&&&&&&&&&&&&&&",
"&&&&&&&&&&&&&&&&    @@@@  ..%%%%%%%%%%%%%%..    &&&&&&&&&&&&&&&&",
"&&&&&&&&&&&&&&&&&&                            &&&&&&&&&&&&&&&&&&",
"&&&&&&&&&&&&&&&&&&                            &&&&&&&&&&&&&&&&&&",
"&&&&&&&&&&&&&&&&&&    XXXXXXXXXXXXXXXXXXOOXXXX  &&&&&&&&&&&&&&&&",
"&&&&&&&&&&&&&&&&&&    XXXXXXXXXXXXXXXXXXOOXXXX  &&&&&&&&&&&&&&&&",
"&&&&&&&&&&&&&&&&  @@##########@@      OO++OO..  &&    &&&&&&&&&&",
"&&&&&&&&&&&&&&&&  @@##########@@      OO++OO..  &&    &&&&&&&&&&",
"&&&&&&&&&&&&&&&&  ####@@  ##@@  %%==%%  OO%%%%    %%%%  &&&&&&&&",
"&&&&&&&&&&&&&&&&  ####@@  ##@@  %%==%%  OO%%%%    %%%%  &&&&&&&&",
"&&&&&&&&&&&&&&&&      ..@@##  %%======%%  ==%%..%%==%%  &&&&&&&&",
"&&&&&&&&&&&&&&&&      ..@@##  %%======%%  ==%%..%%==%%  &&&&&&&&",
"&&&&&&&&&&&&&&  %%==%%  @@##  ==========  ......%%==%%  &&&&&&&&",
"&&&&&&&&&&&&&&  %%==%%  @@##  ==========  ......%%==%%  &&&&&&&&",
"&&&&&&&&&&&&&&  ======  ####  ==========  ==%%..%%==  &&&&&&&&&&",
"&&&&&&&&&&&&&&  ======  ####  ==========  ==%%..%%==  &&&&&&&&&&",
"&&&&&&&&&&&&&&  %%%%..  @@##  ==========  %%....%%%%  &&&&&&&&&&",
"&&&&&&&&&&&&&&  %%%%..  @@##  ==========  %%....%%%%  &&&&&&&&&&",
"&&&&&&&&&&&&&&&&      ..@@@@  %%======%%      %%%%  &&&&&&&&&&&&",
"&&&&&&&&&&&&&&&&      ..@@@@  %%======%%      %%%%  &&&&&&&&&&&&",
"&&&&&&&&&&&&&&&&&&&&&&..        %%%%%%            &&&&&&&&&&&&&&",
"&&&&&&&&&&&&&&&&&&&&&&..        %%%%%%            &&&&&&&&&&&&&&",
"&&&&&&&&&&&&&&&&&&&&&&&&&&&&&&&&      &&&&&&&&&&&&&&&&&&&&&&&&&&",
"&&&&&&&&&&&&&&&&&&&&&&&&&&&&&&&&      &&&&&&&&&&&&&&&&&&&&&&&&&&",
"&&&&&&&&&&&&&&&&&&&&&&&&&&&&&&&&&&&&&&&&&&&&&&&&&&&&&&&&&&&&&&&&"
};
