/* XPM */
static char *result[] = {
/* columns rows colors chars-per-pixel */
"64 64 13 1 ",
"  c #202020",
". c #505050",
"X c #997926",
"o c #B99932",
"O c #C1A17D",
"+ c #E9C943",
"@ c #30679C",
"# c #6190DA",
"$ c #989898",
"% c gray72",
"& c #FFA5CE82",
"* c #F3E1CB",
"= c #F8F8F8",
/* pixels */
"&&&&&&&&&&&&&&&&&&&&&&&&&&&&&&&&&&&&&&&&&&&&&&&&&&&&&&&&&&&&&&&&",
"&&&&&&&&&&&&&&&&&&&&&&&&&&&&&&&&&&&&&&&&&&&&&&&&&&&&&&&&&&&&&&&&",
"&&&&&&&&&&&&&&&&&&&&&&&&&&&&&&&&&&&&&&&&&&&&&&&&&&&&&&&&&&&&&&&&",
"&&&&&&&&&&&&&&&&&&&&&&&&                &&&&&&&&&&&&&&&&&&&&&&&&",
"&&&&&&&&&&&&&&&&&&&&&&&&                &&&&&&&&&&&&&&&&&&&&&&&&",
"&&&&&&&&&&&&&&&&&&&&                        &&&&&&&&&&&&&&&&&&&&",
"&&&&&&&&&&&&&&&&&&&&                        &&&&&&&&&&&&&&&&&&&&",
"&&&&&&&&&&&&&&&&&&          ..    ..          &&&&&&&&&&&&&&&&&&",
"&&&&&&&&&&&&&&&&&&          ..    ..          &&&&&&&&&&&&&&&&&&",
"&&&&&&&&&&&&&&&&          ..        ..          &&&&&&&&&&&&&&&&",
"&&&&&&&&&&&&&&&&          ..        ..          &&&&&&&&&&&&&&&&",
"&&&&&&&&&&&&&&&&          ..        ..          &&&&&&&&&&&&&&&&",
"&&&&&&&&&&&&&&&&          ..        ..          &&&&&&&&&&&&&&&&",
"&&&&&&&&&&&&&&            ..        ..            &&&&&&&&&&&&&&",
"&&&&&&&&&&&&&&            ..        ..            &&&&&&&&&&&&&&",
"&&&&&&&&&&&&&&              ..    ..              &&&&&&&&&&&&&&",
"&&&&&&&&&&&&&&              ..    ..              &&&&&&&&&&&&&&",
"&&&&&&&&&&&&&&                                    &&&&&&&&&&&&&&",
"&&&&&&&&&&&&&&                                    &&&&&&&&&&&&&&",
"&&&&&&&&&&&&&&                                    &&&&&&&&&&&&&&",
"&&&&&&&&&&&&&&                                    &&&&&&&&&&&&&&",
"&&&&&&&&&&&&  OOOO                            OOOO  &&&&&&&&&&&&",
"&&&&&&&&&&&&  OOOO                            OOOO  &&&&&&&&&&&&",
"&&&&&&&&&&&&  OO**                            **OO  &&&&&&&&&&&&",
"&&&&&&&&&&&&  OO**                            **OO  &&&&&&&&&&&&",
"&&&&&&&&&&&&  OOOO                            OOOO  &&&&&&&&&&&&",
"&&&&&&&&&&&&  OOOO                            OOOO  &&&&&&&&&&&&",
"&&&&&&&&&&&&&&    OO                        OO    &&&&&&&&&&&&&&",
"&&&&&&&&&&&&&&    OO                        OO    &&&&&&&&&&&&&&",
"&&&&&&&&&&&&&&&&  XX..                    ..XX  &&&&&&&&&&&&&&&&",
"&&&&&&&&&&&&&&&&  XX..                    ..XX  &&&&&&&&&&&&&&&&",
"&&&&&&&&&&&&&&&&&&  OO..                ..OO  &&&&&&&&&&&&&&&&&&",
"&&&&&&&&&&&&&&&&&&  OO..                ..OO  &&&&&&&&&&&&&&&&&&",
"&&&&&&&&&&&&&&&&      XXOO..        ..OOXX      &&&&&&&&&&&&&&&&",
"&&&&&&&&&&&&&&&&      XXOO..        ..OOXX      &&&&&&&&&&&&&&&&",
"&&&&&&&&&&&&&&  oooooo    XXOOOOOOOOXX    oooooo  &&&&&&&&&&&&&&",
"&&&&&&&&&&&&&&  oooooo    XXOOOOOOOOXX    oooooo  &&&&&&&&&&&&&&",
"&&&&&&&&&&&&  oo++++++ooXX$$%%====%%$$XXoo++++++oo  &&&&&&&&&&&&",
"&&&&&&&&&&&&  oo++++++ooXX$$%%====%%$$XXoo++++++oo  &&&&&&&&&&&&",
"&&&&&&&&&&&&  oo++++++++++XX        XX++++++++++oo  &&&&&&&&&&&&",
"&&&&&&&&&&&&  oo++++++++++XX        XX++++++++++oo  &&&&&&&&&&&&",
"&&&&&&&&&&&&  XXoooooo++++++++++++++++++++ooooooXX  &&&&&&&&&&&&",
"&&&&&&&&&&&&  XXoooooo++++++++++++++++++++ooooooXX  &&&&&&&&&&&&",
"&&&&&&&&&&&&&&  XX  oo++++++++++++++++++++oo  XX  &&&&&&&&&&&&&&",
"&&&&&&&&&&&&&&  XX  oo++++++++++++++++++++oo  XX  &&&&&&&&&&&&&&",
"&&&&&&&&&&&&&&&&    oo++++++++++++++++++++oo    &&&&&&&&&&&&&&&&",
"&&&&&&&&&&&&&&&&    oo++++++++++++++++++++oo    &&&&&&&&&&&&&&&&",
"&&&&&&&&&&&&&&&&&&    oooo++++++++++++++oo    &&&&&&&&&&&&&&&&&&",
"&&&&&&&&&&&&&&&&&&    oooo++++++++++++++oo    &&&&&&&&&&&&&&&&&&",
"&&&&&&&&&&&&&&&&&&  @@    oooooooooooo    @@  &&&&&&&&&&&&&&&&&&",
"&&&&&&&&&&&&&&&&&&  @@    oooooooooooo    @@  &&&&&&&&&&&&&&&&&&",
"&&&&&&&&&&&&&&&&&&  ..@@@@            @@@@..  &&&&&&&&&&&&&&&&&&",
"&&&&&&&&&&&&&&&&&&  ..@@@@            @@@@..  &&&&&&&&&&&&&&&&&&",
"&&&&&&&&&&&&&&&&&&&&    @@@@@@@@@@@@@@@@    &&&&&&&&&&&&&&&&&&&&",
"&&&&&&&&&&&&&&&&&&&&    @@@@@@@@@@@@@@@@    &&&&&&&&&&&&&&&&&&&&",
"&&&&&&&&&&&&&&&&&&  @@OOOO  ........  OOOO@@  &&&&&&&&&&&&&&&&&&",
"&&&&&&&&&&&&&&&&&&  @@OOOO  ........  OOOO@@  &&&&&&&&&&&&&&&&&&",
"&&&&&&&&&&&&&&&&&&  @@@@##@@        @@@@@@@@  &&&&&&&&&&&&&&&&&&",
"&&&&&&&&&&&&&&&&&&  @@@@##@@        @@@@@@@@  &&&&&&&&&&&&&&&&&&",
"&&&&&&&&&&&&&&&&&&&&          &&&&          &&&&&&&&&&&&&&&&&&&&",
"&&&&&&&&&&&&&&&&&&&&          &&&&          &&&&&&&&&&&&&&&&&&&&",
"&&&&&&&&&&&&&&&&&&&&&&&&&&&&&&&&&&&&&&&&&&&&&&&&&&&&&&&&&&&&&&&&",
"&&&&&&&&&&&&&&&&&&&&&&&&&&&&&&&&&&&&&&&&&&&&&&&&&&&&&&&&&&&&&&&&",
"&&&&&&&&&&&&&&&&&&&&&&&&&&&&&&&&&&&&&&&&&&&&&&&&&&&&&&&&&&&&&&&&"
};
