/* XPM */
static char *result[] = {
/* columns rows colors chars-per-pixel */
"64 64 13 1 ",
"  c #202020",
". c #505050",
"X c #997926",
"o c #B99932",
"O c #C1A17D",
"+ c #E9C943",
"@ c #30679C",
"# c #6190DA",
"$ c #989898",
"% c gray72",
"& c #FFA5CE82",
"* c #F3E1CB",
"= c #F8F8F8",
/* pixels */
"&&&&&&&&&&&&&&&&&&&&&&&&                &&&&&&&&&&&&&&&&&&&&&&&&",
"&&&&&&&&&&&&&&&&&&&&&&&&                &&&&&&&&&&&&&&&&&&&&&&&&",
"&&&&&&&&&&&&&&&&&&&&                        &&&&&&&&&&&&&&&&&&&&",
"&&&&&&&&&&&&&&&&&&&&                        &&&&&&&&&&&&&&&&&&&&",
"&&&&&&&&&&&&&&&&&&          ..    ..          &&&&&&&&&&&&&&&&&&",
"&&&&&&&&&&&&&&&&&&          ..    ..          &&&&&&&&&&&&&&&&&&",
"&&&&&&&&&&&&&&&&          ..        ..          &&&&&&&&&&&&&&&&",
"&&&&&&&&&&&&&&&&          ..        ..          &&&&&&&&&&&&&&&&",
"&&&&&&&&&&&&&&&&          ..        ..          &&&&&&&&&&&&&&&&",
"&&&&&&&&&&&&&&&&          ..        ..          &&&&&&&&&&&&&&&&",
"&&&&&&&&&&&&&&            ..        ..            &&&&&&&&&&&&&&",
"&&&&&&&&&&&&&&            ..        ..            &&&&&&&&&&&&&&",
"&&&&&&&&&&&&&&              ..    ..              &&&&&&&&&&&&&&",
"&&&&&&&&&&&&&&              ..    ..              &&&&&&&&&&&&&&",
"&&&&&&&&&&&&&&                                    &&&&&&&&&&&&&&",
"&&&&&&&&&&&&&&                                    &&&&&&&&&&&&&&",
"&&&&&&&&&&&&&&                                    &&&&&&&&&&&&&&",
"&&&&&&&&&&&&&&                                    &&&&&&&&&&&&&&",
"&&&&&&&&&&&&  OOOO                            OOOO  &&&&&&&&&&&&",
"&&&&&&&&&&&&  OOOO                            OOOO  &&&&&&&&&&&&",
"&&&&&&&&&&&&  OO**                            **OO  &&&&&&&&&&&&",
"&&&&&&&&&&&&  OO**                            **OO  &&&&&&&&&&&&",
"&&&&&&&&&&&&  OOOO                            OOOO  &&&&&&&&&&&&",
"&&&&&&&&&&&&  OOOO                            OOOO  &&&&&&&&&&&&",
"&&&&&&&&&&&&&&    OO                        OO    &&&&&&&&&&&&&&",
"&&&&&&&&&&&&&&    OO                        OO    &&&&&&&&&&&&&&",
"&&&&&&&&&&&&  OO  XX..                    ..XX  &&&&&&&&&&&&&&&&",
"&&&&&&&&&&&&  OO  XX..                    ..XX  &&&&&&&&&&&&&&&&",
"&&&&&&&&&&&&  ..    OO..                ..OO  &&&&&&&&&&&&&&&&&&",
"&&&&&&&&&&&&  ..    OO..                ..OO  &&&&&&&&&&&&&&&&&&",
"&&&&&&&&&&&&  oo++oo  XXOO..        ..OOXX  &&&&&&&&&&&&&&&&&&&&",
"&&&&&&&&&&&&  oo++oo  XXOO..        ..OOXX  &&&&&&&&&&&&&&&&&&&&",
"&&&&&&&&&&&&  oo++++oo    XXOOOOOOOOXX    oo    &&&&&&&&&&&&&&&&",
"&&&&&&&&&&&&  oo++++oo    XXOOOOOOOOXX    oo    &&&&&&&&&&&&&&&&",
"&&&&&&&&&&&&  XX++++++++XX$$%%====%%$$XX++++++oo  &&&&&&&&&&&&&&",
"&&&&&&&&&&&&  XX++++++++XX$$%%====%%$$XX++++++oo  &&&&&&&&&&&&&&",
"&&&&&&&&&&&&&&  oo++++++++XX        XX++++++++++XX..&&&&&&&&&&&&",
"&&&&&&&&&&&&&&  oo++++++++XX        XX++++++++++XX..&&&&&&&&&&&&",
"&&&&&&&&&&&&&&  XXXX++++++++++++++++++++++++  oo++  &&&&&&&&&&&&",
"&&&&&&&&&&&&&&  XXXX++++++++++++++++++++++++  oo++  &&&&&&&&&&&&",
"&&&&&&&&&&&&&&&&    oo++++++++++++++++++++++  oooo  &&&&&&&&&&&&",
"&&&&&&&&&&&&&&&&    oo++++++++++++++++++++++  oooo  &&&&&&&&&&&&",
"&&&&&&&&&&&&&&&&&&  XXoo++++++++++++++++++oo    ..  &&&&&&&&&&&&",
"&&&&&&&&&&&&&&&&&&  XXoo++++++++++++++++++oo    ..  &&&&&&&&&&&&",
"&&&&&&&&&&&&&&&&&&    XXoo++++++++++++++ooXX  OOOO  &&&&&&&&&&&&",
"&&&&&&&&&&&&&&&&&&    XXoo++++++++++++++ooXX  OOOO  &&&&&&&&&&&&",
"&&&&&&&&&&&&&&&&&&  @@@@  XXXXooooooooXX          &&&&&&&&&&&&&&",
"&&&&&&&&&&&&&&&&&&  @@@@  XXXXooooooooXX          &&&&&&&&&&&&&&",
"&&&&&&&&&&&&&&&&&&&&  @@@@@@            @@@@    &&&&&&&&&&&&&&&&",
"&&&&&&&&&&&&&&&&&&&&  @@@@@@            @@@@    &&&&&&&&&&&&&&&&",
"&&&&&&&&&&&&&&&&&&&&    @@@@@@@@@@@@@@@@@@  @@  &&&&&&&&&&&&&&&&",
"&&&&&&&&&&&&&&&&&&&&    @@@@@@@@@@@@@@@@@@  @@  &&&&&&&&&&&&&&&&",
"&&&&&&&&&&&&&&&&&&&&  OO    @@@@@@@@@@    @@  &&&&&&&&&&&&&&&&&&",
"&&&&&&&&&&&&&&&&&&&&  OO    @@@@@@@@@@    @@  &&&&&&&&&&&&&&&&&&",
"&&&&&&&&&&&&&&&&&&&&  OO**OO                &&&&&&&&&&&&&&&&&&&&",
"&&&&&&&&&&&&&&&&&&&&  OO**OO                &&&&&&&&&&&&&&&&&&&&",
"&&&&&&&&&&&&&&&&&&&&            &&&&&&&&&&&&&&&&&&&&&&&&&&&&&&&&",
"&&&&&&&&&&&&&&&&&&&&            &&&&&&&&&&&&&&&&&&&&&&&&&&&&&&&&",
"&&&&&&&&&&&&&&&&&&&&  @@####@@  &&&&&&&&&&&&&&&&&&&&&&&&&&&&&&&&",
"&&&&&&&&&&&&&&&&&&&&  @@####@@  &&&&&&&&&&&&&&&&&&&&&&&&&&&&&&&&",
"&&&&&&&&&&&&&&&&&&&&  @@@@@@@@  &&&&&&&&&&&&&&&&&&&&&&&&&&&&&&&&",
"&&&&&&&&&&&&&&&&&&&&  @@@@@@@@  &&&&&&&&&&&&&&&&&&&&&&&&&&&&&&&&",
"&&&&&&&&&&&&&&&&&&&&&&        &&&&&&&&&&&&&&&&&&&&&&&&&&&&&&&&&&",
"&&&&&&&&&&&&&&&&&&&&&&        &&&&&&&&&&&&&&&&&&&&&&&&&&&&&&&&&&"
};
