/* XPM */
static char *result[] = {
/* columns rows colors chars-per-pixel */
"64 64 14 1 ",
"  c #202020",
". c #505050",
"X c #997926",
"o c #B99932",
"O c #C1A17D",
"+ c #E9C943",
"@ c #30679C",
"# c #6190DA",
"$ c #989898",
"% c gray72",
"& c #FFA5CE82",
"* c #B6F6F7",
"= c #F3E1CB",
"- c #F8F8F8",
/* pixels */
"&&&&&&&&&&&&&&&&&&&&&&&&&              &&&&&&&&&&&&&&&&&&&&&&&&&",
"&&&&&&&&&&&&&&&&&&&&&&&&&              &&&&&&&&&&&&&&&&&&&&&&&&&",
"&&&&&&&&&&&&&&&&&  &&                      &&&&&&&&&&&&&&&&&&&&&",
"&&&&&&&&&&&&&&&&&  &&                      &&&&&&&&&&&&&&&&&&&&&",
"&&&&&&&&&&&&&&&&&&&                          &&&&&&&&&&&&&&&&&&&",
"&&&&&&&&&&&&&&&&&&&                          &&&&&&&&&&&&&&&&&&&",
"&&&&&&&&&&&&&&&&&                              &&&&&&&&&&&&&&&&&",
"&&&&&&&&&&&&&&&&&                              &&&&&&&&&&&&&&&&&",
"&&&&&&&&&&&&&&&                                  &&&&&&&&&&&&&&&",
"&&&&&&&&&&&&&&&                                  &&&&&&&&&&&&&&&",
"&&&&&&&&&&&&&&&            OOOOOO  %%%%  OO  %%  &&&&&&&&&&&&&&&",
"&&&&&&&&&&&&&&&            OOOOOO  %%%%  OO  %%  &&&&&&&&&&&&&&&",
"&&&&&&&&&&&&&            OO====..%%----%%..%%--  &&&&&&&&&&&&&&&",
"&&&&&&&&&&&&&            OO====..%%----%%..%%--  &&&&&&&&&&&&&&&",
"&&&&&&&&&&&&&            OO====  %%--**%%..%%--  &&&&&&&&&&&&&&&",
"&&&&&&&&&&&&&            OO====  %%--**%%..%%--  &&&&&&&&&&&&&&&",
"&&&&&&&&&&&&&            OO..    %%----  ..%%    &&&&&&&&&&&&&&&",
"&&&&&&&&&&&&&            OO..    %%----  ..%%    &&&&&&&&&&&&&&&",
"&&&&&&&&&&&&&      OOOO    OO==..%%----%%..%%--  &&&&&&&&&&&&&&&",
"&&&&&&&&&&&&&      OOOO    OO==..%%----%%..%%--  &&&&&&&&&&&&&&&",
"&&&&&&&&&&&&&    OO====  ======OO..%%%%..XX..  &&&&&&&&&&&&&&&&&",
"&&&&&&&&&&&&&    OO====  ======OO..%%%%..XX..  &&&&&&&&&&&&&&&&&",
"&&&&&&&&&&&&&    OO==OO======--==OO....XXOOOO  &&&&&&&&&&&&&&&&&",
"&&&&&&&&&&&&&    OO==OO======--==OO....XXOOOO  &&&&&&&&&&&&&&&&&",
"&&&&&&&&&&&&&&&    OO==  OO================OO..  &&&&&&&&&&&&&&&",
"&&&&&&&&&&&&&&&    OO==  OO================OO..  &&&&&&&&&&&&&&&",
"&&&&&&&&&&&&&&&          ====================OO  &&&&&&&&&&&&&&&",
"&&&&&&&&&&&&&&&          ====================OO  &&&&&&&&&&&&&&&",
"&&&&&&&&&&&&&&&&&      ..OO======OO..  XX==OO....&&&&&&&&&&&&&&&",
"&&&&&&&&&&&&&&&&&      ..OO======OO..  XX==OO....&&&&&&&&&&&&&&&",
"&&&&&&&&&&&&&&&&&&&      ..OO==========OO....  &&&&&&&&&&&&&&&&&",
"&&&&&&&&&&&&&&&&&&&      ..OO==========OO....  &&&&&&&&&&&&&&&&&",
"&&&&&&&&&&&&&&&&&&&&&..    ..XXOO======OO    &&&&&&&&&&&&&&&&&&&",
"&&&&&&&&&&&&&&&&&&&&&..    ..XXOO======OO    &&&&&&&&&&&&&&&&&&&",
"&&&&&&&&&&&&&&&&&&&&&..    XX            &&&&&&&&&&&&&&&&&&&&&&&",
"&&&&&&&&&&&&&&&&&&&&&..    XX            &&&&&&&&&&&&&&&&&&&&&&&",
"&&&&&&&&&&&&&&&&&&&&&  oo++  oo--%%  %%  &&&&&&&&&&&&&&&&&&&&&&&",
"&&&&&&&&&&&&&&&&&&&&&  oo++  oo--%%  %%  &&&&&&&&&&&&&&&&&&&&&&&",
"&&&&&&&&&&&&&&&&&&&&&  oo++++    oooo    &&&&&&&&&&&&&&&&&&&&&&&",
"&&&&&&&&&&&&&&&&&&&&&  oo++++    oooo    &&&&&&&&&&&&&&&&&&&&&&&",
"&&&&&&&&&&&&&&&&&&&&&    oooo++oo        &&&&&&&&&&&&&&&&&&&&&&&",
"&&&&&&&&&&&&&&&&&&&&&    oooo++oo        &&&&&&&&&&&&&&&&&&&&&&&",
"&&&&&&&&&&&&&&&&&&&&&  oo    oooo..OO==XX  &&&&&&&&&&&&&&&&&&&&&",
"&&&&&&&&&&&&&&&&&&&&&  oo    oooo..OO==XX  &&&&&&&&&&&&&&&&&&&&&",
"&&&&&&&&&&&&&&&&&&&&&    @@XX      ======  &&&&&&&&&&&&&&&&&&&&&",
"&&&&&&&&&&&&&&&&&&&&&    @@XX      ======  &&&&&&&&&&&&&&&&&&&&&",
"&&&&&&&&&&&&&&&&&&&&&  @@@@@@@@@@  OOOOXX  &&&&&&&&&&&&&&&&&&&&&",
"&&&&&&&&&&&&&&&&&&&&&  @@@@@@@@@@  OOOOXX  &&&&&&&&&&&&&&&&&&&&&",
"&&&&&&&&&&&&&&&&&&&&&&&  @@              &&&&&&&&&&&&&&&&&&&&&&&",
"&&&&&&&&&&&&&&&&&&&&&&&  @@              &&&&&&&&&&&&&&&&&&&&&&&",
"&&&&&&&&&&&&&&&&&&&        OO==OO  OO==  &&&&&&&&&&&&&&&&&&&&&&&",
"&&&&&&&&&&&&&&&&&&&        OO==OO  OO==  &&&&&&&&&&&&&&&&&&&&&&&",
"&&&&&&&&&&&&&&&&&  ####    ====OO  OO......&&&&&&&&&&&&&&&&&&&&&",
"&&&&&&&&&&&&&&&&&  ####    ====OO  OO......&&&&&&&&&&&&&&&&&&&&&",
"&&&&&&&&&&&&&&&&&  ##  ----..OO  &&  %%--  &&&&&&&&&&&&&&&&&&&&&",
"&&&&&&&&&&&&&&&&&  ##  ----..OO  &&  %%--  &&&&&&&&&&&&&&&&&&&&&",
"&&&&&&&&&&&&&&&&&  ##  %%%%    &&&&  $$%%%%    &&&&&&&&&&&&&&&&&",
"&&&&&&&&&&&&&&&&&  ##  %%%%    &&&&  $$%%%%    &&&&&&&&&&&&&&&&&",
"&&&&&&&&&&&&&&&&&  ####    &&&&&&  ##      ####  &&&&&&&&&&&&&&&",
"&&&&&&&&&&&&&&&&&  ####    &&&&&&  ##      ####  &&&&&&&&&&&&&&&",
"&&&&&&&&&&&&&&&&&  @@####  &&&&&&  ############  &&&&&&&&&&&&&&&",
"&&&&&&&&&&&&&&&&&  @@####  &&&&&&  ############  &&&&&&&&&&&&&&&",
"&&&&&&&&&&&&&&&&&&&      &&&&&&&&&&            &&&&&&&&&&&&&&&&&",
"&&&&&&&&&&&&&&&&&&&      &&&&&&&&&&            &&&&&&&&&&&&&&&&&"
};
