/* XPM */
static char *result[] = {
/* columns rows colors chars-per-pixel */
"64 64 15 1 ",
"  c #FFA5CE82",
". c #202020",
"X c gray72",
"o c #C1A17D",
"O c #F8F8F8",
"+ c #505050",
"@ c #F3E1CB",
"# c #B6F6F7",
"$ c #997926",
"% c #B99932",
"& c #E9C943",
"* c #30679C",
"= c #6190DA",
"- c #989898",
"; c white",
/* pixels */
"                         ..............                         ",
"                         ..............                         ",
"                     ......................  ..                 ",
"                     ......................  ..                 ",
"                   ..........................                   ",
"                   ..........................                   ",
"                 ..............................                 ",
"                 ..............................                 ",
"               ..................................               ",
"               ..................................               ",
"               ..XX..oo..XXXX..oooooo............               ",
"               ..XX..oo..XXXX..oooooo............               ",
"               ..OOXX++XXOOOOXX++@@@@oo............             ",
"               ..OOXX++XXOOOOXX++@@@@oo............             ",
"               ..OOXX++XX##OOXX..@@@@oo............             ",
"               ..OOXX++XX##OOXX..@@@@oo............             ",
"               ....XX++..OOOOXX....++oo............             ",
"               ....XX++..OOOOXX....++oo............             ",
"               ..OOXX++XXOOOOXX++@@oo....oooo......             ",
"               ..OOXX++XXOOOOXX++@@oo....oooo......             ",
"                 ..++$$++XXXX++oo@@@@@@..@@@@oo....             ",
"                 ..++$$++XXXX++oo@@@@@@..@@@@oo....             ",
"                 ..oooo$$++++oo@@OO@@@@@@oo@@oo....             ",
"                 ..oooo$$++++oo@@OO@@@@@@oo@@oo....             ",
"               ..++oo@@@@@@@@@@@@@@@@oo..@@oo....               ",
"               ..++oo@@@@@@@@@@@@@@@@oo..@@oo....               ",
"               ..oo@@@@@@@@@@@@@@@@@@@@..........               ",
"               ..oo@@@@@@@@@@@@@@@@@@@@..........               ",
"               ++++oo@@$$..++oo@@@@@@oo++......                 ",
"               ++++oo@@$$..++oo@@@@@@oo++......                 ",
"                 ..++++oo@@@@@@@@@@oo++......                   ",
"                 ..++++oo@@@@@@@@@@oo++......                   ",
"                   ....oo@@@@@@oo$$++....++                     ",
"                   ....oo@@@@@@oo$$++....++                     ",
"                       ............$$....++                     ",
"                       ............$$....++                     ",
"                       ..XX..XXOO%%..&&%%..                     ",
"                       ..XX..XXOO%%..&&%%..                     ",
"                       ....%%%%....&&&&%%..                     ",
"                       ....%%%%....&&&&%%..                     ",
"                       ........%%&&%%%%....                     ",
"                       ........%%&&%%%%....                     ",
"                     ..$$@@oo++%%%%....%%..                     ",
"                     ..$$@@oo++%%%%....%%..                     ",
"                     ..@@@@@@......$$**....                     ",
"                     ..@@@@@@......$$**....                     ",
"                     ..$$oooo..**********..                     ",
"                     ..$$oooo..**********..                     ",
"                       ..............**..                       ",
"                       ..............**..                       ",
"                       ..@@oo..oo@@oo........                   ",
"                       ..@@oo..oo@@oo........                   ",
"                     ++++++oo..oo@@@@....====..                 ",
"                     ++++++oo..oo@@@@....====..                 ",
"                     ..OOXX..  ..oo++OOOO..==..                 ",
"                     ..OOXX..  ..oo++OOOO..==..                 ",
"                 ....XXXX--..    ....XXXX..==..                 ",
"                 ....XXXX--..    ....XXXX..==..                 ",
"               ..====......==..      ....====..                 ",
"               ..====......==..      ....====..                 ",
"               ..============..      ..====**..                 ",
"               ..============..      ..====**..                 ",
"                 ............          ......                   ",
"                 ............          ......                   "
};
