/* XPM */
static char *result[] = {
/* columns rows colors chars-per-pixel */
"64 64 15 1 ",
"  c #FFA5CE82",
". c #202020",
"X c gray72",
"o c #C1A17D",
"O c #F8F8F8",
"+ c #505050",
"@ c #F3E1CB",
"# c #B6F6F7",
"$ c #997926",
"% c #B99932",
"& c #E9C943",
"* c #30679C",
"= c #989898",
"- c #6190DA",
"; c white",
/* pixels */
"                         ..............                         ",
"                         ..............                         ",
"                     ......................  ..                 ",
"                     ......................  ..                 ",
"                   ..........................                   ",
"                   ..........................                   ",
"                 ..............................                 ",
"                 ..............................                 ",
"               ..................................               ",
"               ..................................               ",
"                 ..XX..oo..XXXX..oooooo..........               ",
"                 ..XX..oo..XXXX..oooooo..........               ",
"               ..XXOOXX++XXOOOOXX++@@@@oo..........             ",
"               ..XXOOXX++XXOOOOXX++@@@@oo..........             ",
"               ..##OOXX++##OOOOXX..@@@@oo..........             ",
"               ..##OOXX++##OOOOXX..@@@@oo..........             ",
"               ..OO..XX++..OOOOXX....++oo..........             ",
"               ..OO..XX++..OOOOXX....++oo..........             ",
"               ..OOOOXX++OOOOOOXX++@@oo....oooo....             ",
"               ..OOOOXX++OOOOOOXX++@@oo....oooo....             ",
"               ..XXXX++$$++XXXX++oo@@@@@@..@@@@oo..             ",
"               ..XXXX++$$++XXXX++oo@@@@@@..@@@@oo..             ",
"                 ..++oo@@$$++++oo@@OO@@@@@@oo@@oo..             ",
"                 ..++oo@@$$++++oo@@OO@@@@@@oo@@oo..             ",
"               ..oo++oo@@@@@@@@@@@@@@@@oo..@@oo..               ",
"               ..oo++oo@@@@@@@@@@@@@@@@oo..@@oo..               ",
"               ..oo@@@@@@@@@@@@@@@@@@@@@@........               ",
"               ..oo@@@@@@@@@@@@@@@@@@@@@@........               ",
"               ++++..@@@@$$..++oo@@@@@@oo++....                 ",
"               ++++..@@@@$$..++oo@@@@@@oo++....                 ",
"                 ..oo....oo@@@@@@@@@@oo++....                   ",
"                 ..oo....oo@@@@@@@@@@oo++....                   ",
"                   ..$$oo@@@@@@@@oo++......                     ",
"                   ..$$oo@@@@@@@@oo++......                     ",
"                     ................++%%..                     ",
"                     ................++%%..                     ",
"                         ..OOXX..%%&&&&&&%%..                   ",
"                         ..OOXX..%%&&&&&&%%..                   ",
"                         ......%%%%$$%%&&%%..                   ",
"                         ......%%%%$$%%&&%%..                   ",
"                         ..&&&&&&&&$$++&&%%..                   ",
"                         ..&&&&&&&&$$++&&%%..                   ",
"                         ..&&&&%%%%%%..&&%%..                   ",
"                         ..&&&&%%%%%%..&&%%..                   ",
"                       ..%%%%%%%%%%%%........                   ",
"                       ..%%%%%%%%%%%%........                   ",
"                       ..............oo@@oo..                   ",
"                       ..............oo@@oo..                   ",
"                         ..********..@@@@@@..                   ",
"                         ..********..@@@@@@..                   ",
"                           ..==......$$oo$$..                   ",
"                           ..==......$$oo$$..                   ",
"                           ..@@oo..oo......                     ",
"                           ..@@oo..oo......                     ",
"                           ..++++..++++..                       ",
"                           ..++++..++++..                       ",
"                           ..XXOO..XXOO..                       ",
"                           ..XXOO..XXOO..                       ",
"                       ....++--..++XX..**..                     ",
"                       ....++--..++XX..**..                     ",
"                     ..**--..------------..                     ",
"                     ..**--..------------..                     ",
"                     ......................                     ",
"                     ......................                     "
};
