/* XPM */
static char *result[] = {
/* columns rows colors chars-per-pixel */
"64 64 226 2 ",
"   c #161717",
".  c #1A1715",
"X  c #1D1D1D",
"o  c #211D1B",
"O  c #2C2115",
"+  c #23211E",
"@  c #2A231E",
"#  c #382A1B",
"$  c #1E1E22",
"%  c #211D23",
"&  c #301F3D",
"*  c #1F2021",
"=  c #212122",
"-  c #2B2523",
";  c #272728",
":  c #26292A",
">  c #2D2D2D",
",  c #332A22",
"<  c #372A27",
"1  c #322929",
"2  c #3B302D",
"3  c #2B2035",
"4  c #2A2C33",
"5  c #32293A",
"6  c #2F373A",
"7  c #313232",
"8  c #33373C",
"9  c #3B3A3B",
"0  c #422E18",
"q  c #44311C",
"w  c #543819",
"e  c #5B3D1B",
"r  c #422E29",
"t  c #463327",
"y  c #4A3E24",
"u  c #573F22",
"i  c #59382E",
"p  c #473934",
"a  c #573B34",
"s  c #653E32",
"d  c #6B451A",
"f  c #764917",
"g  c #7A4C16",
"h  c #7F5019",
"j  c #58422B",
"k  c #57453B",
"l  c #694A25",
"z  c #72512C",
"x  c #65453C",
"c  c #774538",
"v  c #321D44",
"b  c #362246",
"n  c #343A41",
"m  c #3E2256",
"M  c #3E3A54",
"N  c #423447",
"B  c #41235C",
"V  c #473656",
"C  c #4A2B65",
"Z  c #4E3564",
"A  c #53346D",
"S  c #54386C",
"D  c #593A73",
"F  c #5A3B74",
"G  c #39464B",
"H  c #424242",
"J  c #4A4947",
"K  c #4D4D4D",
"L  c #554C4B",
"P  c #45555A",
"I  c #525252",
"U  c #5A5A5A",
"Y  c #644E49",
"T  c #754E45",
"R  c #6A564B",
"E  c #7B544A",
"W  c #685B57",
"Q  c #7A635A",
"!  c #5A466C",
"~  c #475A61",
"^  c #63457C",
"/  c #6F5C7F",
"(  c #50656D",
")  c #546B74",
"_  c #5A747E",
"`  c #666666",
"'  c #71696E",
"]  c #767777",
"[  c #84531B",
"{  c #8C581C",
"}  c #945E1E",
"|  c #885924",
" . c #935F23",
".. c #834A3A",
"X. c #884D3D",
"o. c #9B6422",
"O. c #9B6A23",
"+. c #A46A25",
"@. c #AA6C24",
"#. c #B06E24",
"$. c #AC7326",
"%. c #B57327",
"&. c #B87927",
"*. c #BA7B29",
"=. c #8D5445",
"-. c #8B584B",
";. c #925646",
":. c #945949",
">. c #9C5D4D",
",. c #8C5D52",
"<. c #A05F50",
"1. c #9A614F",
"2. c #89665C",
"3. c #9B6456",
"4. c #A66656",
"5. c #A36659",
"6. c #AC6A5A",
"7. c #B46E5E",
"8. c #A7715F",
"9. c #97796C",
"0. c #AE6F61",
"q. c #B56F60",
"w. c #AA7665",
"e. c #B47262",
"r. c #BB7463",
"t. c #B97967",
"y. c #BD7C6A",
"u. c #C07766",
"i. c #C27C6B",
"p. c #BE822C",
"a. c #BD862C",
"s. c #B88A31",
"d. c #C0862D",
"f. c #C28B2E",
"g. c #C9942D",
"h. c #CA962D",
"j. c #C58E30",
"k. c #CA9532",
"l. c #C89534",
"z. c #CD9A34",
"x. c #D09D35",
"c. c #B8816E",
"v. c #AA8874",
"b. c #B98573",
"n. c #CB9D58",
"m. c #D2A74F",
"M. c #C3806F",
"N. c #C58371",
"B. c #C78976",
"V. c #CA8D7A",
"C. c #C7927D",
"Z. c #CC917D",
"A. c #D9B469",
"S. c #D9B46B",
"D. c #684A83",
"F. c #694D82",
"G. c #6F518A",
"H. c #71538C",
"J. c #5B7680",
"K. c #5E7A85",
"L. c #647D86",
"P. c #63808C",
"I. c #698996",
"U. c #708D99",
"Y. c #6E909E",
"T. c #7296A4",
"R. c #759AA9",
"E. c #7AA2B2",
"W. c #7EA8B9",
"Q. c #868787",
"!. c #989898",
"~. c #B69790",
"^. c #B3A28F",
"/. c #82AEBF",
"(. c #ABABAC",
"). c #B5ACAB",
"_. c #B2B2B2",
"`. c #BAB6B6",
"'. c #BDBDBD",
"]. c #C18C81",
"[. c #CA9684",
"{. c #D19682",
"}. c #D39B86",
"|. c #D59D89",
" X c #D4A18B",
".X c #D9A48F",
"XX c #DEBF81",
"oX c #CBAC95",
"OX c #DAA691",
"+X c #D8AB97",
"@X c #DDAA94",
"#X c #E1AD97",
"$X c #E7B29A",
"%X c #C5B4AC",
"&X c #CAB5AD",
"*X c #DFC185",
"=X c #DCC9B1",
"-X c #E4CFA6",
";X c #E6D1A7",
":X c #E9D9BB",
">X c #85B2C4",
",X c #FF88B6C8",
"<X c #8BBBCE",
"1X c #8DBED1",
"2X c #8FC0D3",
"3X c #92C5D9",
"4X c #FF95C9DE",
"5X c #BEC0C1",
"6X c #98CDE1",
"7X c #9DD4EA",
"8X c #A0D9EF",
"9X c #FFA4DEF5",
"0X c #FFA5E0F7",
"qX c #FFA6E2F9",
"wX c #FFA9E5FD",
"eX c #FFABE9FF",
"rX c #CDCBCA",
"tX c #D6D7D7",
"yX c #ECDEC2",
"uX c #EFE6D3",
"iX c #DEDFE0",
"pX c #E7E6E6",
"aX c #F2E9E2",
"sX c #F5F1EA",
"dX c #F6F6F5",
"fX c #F9FAFB",
/* pixels */
"9X9X9X9X9X9X9X9X9X9X9X9X9X9X9X9X9X9X9X9X9X9X9X9X9X9X9X3X,X,X,X,X,X,X,X,X,X6X0X0X9X9X9X9X9X9X9X9X9X9X9X9X9X9X9X9X9X9X9X9X9X0X9X9X",
"9X9X9X9X9X9X9X9X9X9X9X9X9X0X9X9X9X9X9X9X9X9X9X9X0XqXeXJ.X = = = = = = = X T.eXqX0X9X9X9X9X9X9X9X9X9X9X9X9X9X9X9X9X9X9X9X9X9X9X9X",
"9X9X9X9X9X9X9X9X9X9X9X9X9X9X9X9X9X9X9X9X9X9X9X9XI.L.P.G X + X = = * = * = P P.K.T.9X9X0X9X9X9X9X9X9X9X9X9X9X9X9X9X9X9X9X9X9X9X9X",
"9X9X9X9X9X9X9X9X9X9X9X9X9X9X9X9X9X9X9X9X9X9X9X7X6 . X o = X = * + X X = = X . . P 9X8X0X9X9X9X9X9X9X9X9X9X9X9X9X9X9X9X9X9X9X9X9X",
"9X9X9X9X9X9X9X9X9X9X9X9X9X9X9X9X9X9X9X9X9XqXI.n = 1 c 2 X X , c r X $ < c r X * : G E.qX0X8X9X9X9X9X9X9X9X9X9X9X9X9X9X9X9X9X9X9X",
"9X9X9X9X9X9X9X9X9X9X9X9X9X9X9X9X9X9X9X9X9XqX_ . 1 a 1.x 2 2 a 1.x 2 2 a 1.a , + * . K.<X7X9X9X9X9X9X9X9X9X9X9X9X9X9X9X9X9X9X9X9X",
"9X9X9X9X9X9X9X9X9X9X9X9X9X9X9X9X9X9X9X9X9XeXJ.o 5.N.@XB.7.r.i.@XB.7.e.c.@X8.c - * X * : 6X0X9X9X9X9X9X9X9X9X9X9X9X9X9X9X9X9X9X9X",
"9X9X9X9X9X9X9X9X9X9X9X9X9X9X9X9X9X9X9X9X4XK.I i :.6.Z.Z.V.Z.Z.V.[.~.Z.{.@Xy.>.- * * * : 4X0X9X0X9X9X9X0X9X9X9X9X9X9X9X9X9X9X9X9X",
"9X9X9X9X9X9X9X9X9X9X9X9X9X9X9X9X9X9X9XqX/.  i X...;.r.V.#X+X}.r.~.'.+X+X@XV.q.1 $ X $ : 4X0X9X0X9X9X9X9X9X9X9X9X9X9X9X9X9X9X9X9X",
"9X9X9X9X9X9X9X9X9X9X9X9X9X9X9X9X9X9X9XqX>XX T e.~.`.aX~.;.t.[.aXsXpX&X%X#X|.}.=.i X + : 6XqX8X0X9X9X9X9X9X9X9X9X9X9X0X9X9X9X9X9X",
"9X9X9X9X9X9X9X9X9X9X9X0X9X9X9X9X9X9X9XqX>XX T y.).5XtX~.=.7.].tXpXfX5X`.@X@XOX>.c * $ ; E.2X0X0X9X9X9X9X9X9X9X9X9X9X9X9X9X9X9X9X",
"9X9X9X9X9X9X9X9X9X9X9X9X9X9X9X9X9X9X9XqX>XX T y.`.!.K ,.r.r.3.K _.fX5X%X@X@XOXi.,.X X X X P wXqX9X9X9X9X9X9X9X9X9X9X9X9X9X9X9X9X",
"9X9X9X9X9X9X9X9X9X9X9X9X9X9X9X9X9X9X9XqX>XX x <.oXoX9.~.Z.u.0.,.).tX&XoX+X#XOXi.,.X Y 2.T W _ ,X0X9X9X9X9X9X9X9X9X9X9X9X9X9X9X9X",
"9X9X9X9X9X9X9X9X9X9X9X9X9X9X9X9X9X9X9X8X>X% i ..[.#XOX.X.Xy.r.r.~.`.@X@X@X#X@Xi.,.X 9.#XM.,.  T.qX9X9X9X9X9X9X9X9X9X9X9X9X9X9X9X",
"0X9X9X9X9X9X9X9X9X9X9X9X9X9X9X9X9X0X9XP N 4.;.=.r.i.i.i.y.;.:.r.[.+X@X@X@X@XOXr.y.[.8.:.}.w.  T.0X0X9X9X0X9X9X9X9X9X9X9X9X9X9X9X",
"9X9X9X9X0X9X9X9X9X9X9X9X9X9X9X9X9X4X/.p a N.4.;.6.6.6.6.7.;.1.y.}.#X@X@X@X@XOXN.N.[.8.=..Xv.  T.qX9X9X9X9X9X9X9X9X9X9X9X9X9X9X9X",
"9X9X9X9X9X9X9X9X9X9X9X9X9X9X9X9XwXJ.X c >.@XV.e.X.........7.N.@XOX@X@X@X@X@X@X#XV.c 4.r.#Xv.. T.qX0X9X9X9X9X9X9X9X9X9X9X9X9X9X9X",
"9X9X9X9X9X9X9X9X9X9X9X9X9X9X9X9XwXJ.o =.0.@X|.V.b.e.4.8.y.V.}.@X@X@X@X@X@X@X@X@XZ.4.y.Z.Q ' P.<X0X0X9X9X9X9X9X9X9X9X9X9X9X9X9X9X",
"9X9X9X9X9X9X9X9X9X9X9X9X9X9X9X9XwX_ o 5.M.@X@X@X#X|.r.{.@X@X@X@X@X@X@X@X@X@X@X@X|.e.Z. X, P wX0X9X9X9X9X9X9X9X9X9X9X9X9X9X9X9X9X",
"9X9X9X9X9X9X9X9X9X0X9X9X9X9X9X9XwX_ o 5.N.@X@X@X@X|.7.[.@X@X@X@X@X@X@X@X@X@X@X@XZ.X.k 9 >X4X9X9X9X9X9X9X9X0X9X9X9X9X9X9X9X9X9X9X",
"9X9X9X9X9X9X9X9X9X9X9X9X9X9X9X9XwXJ.o 3.i.|..X@X@X|.i.{.@X@X@X@X@X@X@X@X@X@X@X@XC.;.t ; 4X0X9X9X9X9X9X9X9X9X9X9X9X9X9X9X9X9X9X9X",
"9X0X9X9X9X9X9X9X9X9X9X9X9X9X9X9XqX_ . 5.r.r.Z.@X@X@X@X@X@X@X@X@X@X@X@X@X@X@X@X#X|.y.k : 4X9X9X9X9X9X9X9X9X9X9X9X9X9X9X9X9X9X9X9X",
"9X9X9X9X9X9X9X9X9X9X9X9X9X9X9X9XqX>XI.Y E [.|.@X@X@X@X@X@X@X@X@X@X@X@X@X@X@X@XV.y.<.i : 4X9X9X0X9X9X9X9X9X9X9X9X9X9X9X9X9X0X9X9X",
"9X9X9X9X9X9X9X9X9X9X9X9X9X9X9X9X9X9X0X6 p .X.X@X.XOXOXOX@X@X@X@X@X@X@X@X@X@X.Xy.6.c r 4 4X9X9X9X9X9X9X9X9X9X9X9X9X9X9X9X9X9X9X9X",
"9X9X9X9X9X9X9X9X9X9X9X9X9X9X9X9X9X9X7X8 o 7 L W W W ;.6.y..X@X@X@X@X@X@X@XV.u.:.c + I.4X9X9X9X9X9X9X9X9X9X9X9X9X9X9X9X9X9X9X9X9X",
"9X9X9X9X9X9X9X9X9X9X9X9X9X9X9X9X9X9X9X( G X p W ` Q 1.e.N..X@X@X@X@X|.}.|.c.6.c a # L.,X7X9X9X9X9X9X9X9X9X9X9X9X9X9X9X9X9X9X9X9X",
"9X9X9X9X9X9X9X0X9X9X9X9X9X9X9X9X9X9X9XqX>XX E u.OX#X@X@X@X@X@X@X@X@Xu.r.r.<...= # g # = 4X9X9X9X9X9X9X9X9X9X9X9X9X9X9X9X9X9X9X9X",
"9X9X9X9X9X9X9X9X9X9X9X9X9X9X9X9X9X9X9X0X>XX t x R Q w.b.V.V.V.B.B.B.4.=.x a t w e g q : 4X9X9X9X9X9X9X0X9X9X9X9X9X9X9X9X9X9X9X9X",
"9X9X9X9X9X9X9X9X9X9X9X9X9X9X9X9X9X9X9XqX>X$ o + o < c <.e.e.7.7.7.7.X.s % % = f g g 0 ; 2X9X9X9X9X9X9X9X9X9X9X9X9X9X9X9X9X9X9X9X",
"9X9X9X9X9X9X9X9X9X9X9X9X9X9X9X9X9X9X9XwX,XX q d o.| - 1 1 , > , - 1 - t +.O.+.#.o.f f d 7 ) qX0X9X9X9X9X9X9X9X9X9X9X9X9X9X9X0X9X",
"9X9X9X9X9X9X9X9X9X9X9X9X9X9X9X0X9X9X9X,XI.$ w { #.o.t q y j y y y y y l %.#.+.+.} [ [ [ # K /.6X9X9X9X9X9X9X9X9X9X9X9X9X9X9X9X9X",
"9X9X9X9X9X9X9X9X9X9X9X9X9X9X9X9X9X0X9X6 X $ z &.%.%.%.f.z.z.z.z.z.x.x.g.%.{ d f [ %.%.%.h e . T.eX9X9X9X9X9X9X9X9X9X9X9X9X9X9X9X",
"9X9X9X9X9X9X9X9X9X9X9X9X9X9X9X9XqXE.) z d w e j { } { $.p.p.p.p.p.p.O.O. .o.} $.&.a.j.a.O.| w I J.7X0X9X9X9X9X9X9X9X9X9X9X9X9X9X",
"9X9X9X9X9X9X9X9X9X9X9X9X9X9X9X9X9X) . O.+.g q - d g g } %.%.%.%.%.%.h f f o.&.l.z.z.z.z.*.+.h 0 ; 2X7X0X9X9X9X9X9X9X9X9X0X9X9X9X",
"9X9X9X9X9X9X9X9X9X9X9X9X9X9XwX<X6 : X @ @ @ l +.s.f.f.j.h.l.l.z.k.g.f.j.s.g.l.*.d.z.z.z.l.d.#.[ d 7 ) qX9X9X9X9X9X9X9X9X9X9X9X9X",
"9X9X9X9X9X9X9X9X9X9X9X9X9X9X,XU.< p L p 2 X f &.z.x.A.A.A.x.z.h.m.S.S.m.z.z.j.+.@.j.l.z.z.g.*.o.h + P qX9X9X9X9X9X9X9X9X9X9X9X9X",
"9X9X9X9X9X9X9X9X9X9X9X9X9X9X8 - ..c.@XN.3.  l %.j.A.dXdXsXm.g.h.;XfXfXyXh.a.#.g [ &.j.z.z.z.z.p.@.@ P wX0X9X0X9X9X9X0X0X9X9X9X9X",
"9X9X9X9X9X9X9X9X9X9X9X9XE.) E ,.c.t.8.x Y ] ^.=X-X:XdXfXdX:X-X-XuXfXfXaX;XoXv.z z { $.a.l.z.z.p.@.e k ) >X0X9X9X9X9X0X8X9X9X9X9X",
"9X9X9X9X9X9X9X9X9X9X9XqXJ.. 4.N.#Xw...@ k _.iXfXfXfXdXfXdXfXfXfXfXdXfXfXfXrX_.U k f o.%.l.z.z.p.%.[ e   T.qX0X9X9X9X9X0X9X9X9X9X",
"9X9X9X9X9X9X9X9X9X9X9XwXJ.X 5.N.@X.X}.2 G `.iXfXfXdXfXfXfXfXfXdXfXfXfXfXfXU.: : # f g h @.p.z.z.g.%.|   R.qX9X9X9X9X9X9X9X9X9X9X",
"9X9X9X9X9X9X9X9X9X9X9XwXJ.X :.e. X}.{.7 p ^.yXdXdXsXyX:XyXdXfXfXuXyX:X=X5X' t k k e f { %.a.z.z.l.*.|   T.qX9X9X9X9X9X9X9X9X9X9X",
"9X9X9X9X9X9X9X9X9X9X9XqXJ.. c ;.r.r.r.< 2 #.=XfXfXuXz.z.x.aXfXfX*Xh.*.|   E i.#Xv.  h *.z.z.z.z.z.*.| X R.qX9X9X9X9X9X9X9X9X9X9X",
"9X9X9X9X9X9X9X9X9X9X9X0X,XY.k a :.>.:., 2 %.n.S.XXS.z.z.x.S.XXXXm.l.l l E :.>.N.c.9.T j j.z.z.f.*.} d X R.qX9X9X9X9X9X9X9X9X9X9X",
"9X9X9X9X9X9X9X9X9X9X9X9X0X9XG > c ..c , q %.a.z.k.z.z.z.z.z.z.h.z.l.- p u.1.X.e.N.$XR o s.z.z.*.@.f u ; R.qX9X9X9X9X9X9X9X9X9X9X",
"9X9X9X9X9X9X9X9X9X9X9X9X9X9X6XE.@ - -  .%.h.z.z.z.z.z.z.z.z.z.z.z.l., p t.Z. XOXOX@XR + +.*.*.o.g O P 4X7X0X0X9X9X9X9X9X9X9X9X9X",
"9X9X9X9X9X9X9X9X9X9X9X9X9X0XqX2X~ 6 + [ $.g.j.j.j.j.j.j.j.j.j.j.j.s., r 4.Z.@X@XOX XY + o.o.| d e P P.0X0X8X9X9X9X9X9X9X9X9X9X9X",
"9X9X9X9X9X9X9X9X9X9X9X9X9X9X9X9XwX_ . d [ %.%.%.%.*.%.%.%.%.&.%.%.%., < ..c.@X@X|.r.k o d e . X ; 4X0X9X9X9X9X9X9X9X9X9X9X9X9X9X",
"9X9X9X9X9X9X9X9X9X9X9X9X9X9X9X9X0X,XY.j q u u j u u u u u u u u j w + - r -.8.B.y.>.i X # J T.T.T.8X9X9X9X9X9X9X9X9X9X9X9X0X9X9X",
"9X9X9X9X9X9X9X9X9X9X9X9X9X9X9X9X9X0X9XG = $ $ $ = $ = $ $ = % = = ; ; ; % i ..6.4.c r X X ~ wXwXqX9X9X9X9X9X9X9X9X9X9X9X9X9X9X9X",
"9X9X9X9X9X9X9X9X9X9X9X9X9X9X9X9X9X9X8X7XE.X v m Z S A A S F.G.F.F.^ F.^ F.n @ , - @ b m $ P 9X9X0X0X9X9X9X9X9X9X9X9X9X9X9X9X9X9X",
"9X9X9X9X9X9X9X9X9X9X9X9X9X9X9X9X9X9X9X0X<X~ M b A D A A A F D.D.G.H.H.H.H.S b 5 5 5 m B % P 9X9X9X9X9X9X0X9X9X9X9X9X9X9X9X9X9X9X",
"9X9X9X9X9X9X9X9X9X9X9X9X9X9X9X9X9X9X9X9X9XwXJ.X S D B B B B C D D.H.H.H.H.H.H.F F F C B X P 9X9X9X9X9X9X9X9X9X9X9X9X9X9X9X9X9X9X",
"9XqX9X9X9X9X9X9X9X9X9X9X9X9X9X9X9X9X9X9X0XqX_ . 5 5 3 m S A S D.G.H.H.H.H.D.^ D A C b 5 U./.9X9X9X9X9X9X9X9X9X9X9X9X9X9X9X9X9X9X",
"9X9X9X9X9X9X9X9X9X9X9X9X9X9X9X9X9X9X9X9X9X7X_ - > : : V S F ^ H.H.G.G.G.G.^ A D A m & ; 1X8X9X9X9X9X9X9X9X9X9X9X9X9X9X9X9X9X9X9X",
"9X9X9X9X9X9X9X9X9X9X9X9X9X9X9X9X9X9X0X0X,X: ] _.iXtX(.U $ ^ H.H.H.H.^ D F A C % ; = b m 4 ( wX0X9X9X9X9X9X9X9X9X9X9X9X9X9X9X9X9X",
"9X9X9X9X9X9X9X9X9XqX9X9X9X9X9X9X9X9X9X0X>XX ` !.'.rXrXQ.K ! ! H.G.F.F S A B b 3 3 % b b > P E.3X9X9X9X9X9X9X9X9X9X9X9X9X0X9X9X9X",
"9X9X9X9X9X9X9X9X9X9X9X9X9X9X9X9X9X9X9X0X>XX 9 K K ] fXtX_.: 5 H.^ D F S B 3 X m B B 3 * K G . T.qX9X9X9X9X9X9X9X9X9X9X9X9X9X9X9X",
"9X9X9X9X9X9X9X9X9X9X9X9X9X9X9X9X9X9X9XqX>Xo 9 I K U Q.'.iX!.' 9 Z D C B 3 b b B m 4 9 p K H X T.qX9X9X9X9X9X9X9X9X9X9X9X9X9X9X9X",
"0X9X9X9X9X9X9X9X9X9X9X9X9X9X9X9X9X9X9X0X,X: n I I K J (.sXrX!.; V D m b + b C C m : H I I n X T.qX0X9X0X9X9X9X9X9X9X9X9X9X9X9X9X",
"9X9X9X9X9X9X9X9X9X9X9X9X9X9X9X9X9X9X9X9X8X7X) o J I I U U (.`.(./ m 3 $ X n I !.(._.] K I k   Y.qX9X9X9X9X9X9X9X9X9X9X9X9X9X9X9X",
"9X9X9X9X9X9X9X9X9X9X9X9X9X9X9X9X9X9X9X9X9XqXT.P G H I K I Q.(.'./ v $ - > I ] )._.!.' K G K P /.0X9X9X9X9X9X9X9X9X9X9X9X9X9X9X9X",
"9X9X9X9X9X9X9X9X9X9X9X9X9X9X9X9X9X9X9X9X9X9XqX8X6 - I I K K ` '.U   X > I !.5X'.!.K K K o P qX0X0X9X9X9X9X9X9X9X9X9X9X9X9X9X9X9X",
"9X9X9X9X9X9X9X9X9X9X9X9X9X9X9X9X9X9X9X9X9X9X9X9XW.P.7 > > 7 9 I P.E.R.P.> H I I K > 7 7 U./.9X9X9X9X9X9X9X9X9X9X9X9X9X9X9X9X9X0X",
"9X9X9X9X9X9X9X9X9X9X9X9X9X9X9X9X9X9X9X9X9X9X0X0XqX>X* * X o X   U.eXeX>XX X X X X o X : 6XwX9X9X9X9X9X9X9X9X9X9X9X9X9X9X9X9X9X9X"
};
