/* XPM */
static char *result[] = {
/* columns rows colors chars-per-pixel */
"64 64 217 2 ",
"   c #1A1615",
".  c #1D1D1D",
"X  c #221E1A",
"o  c #20201F",
"O  c #28241B",
"+  c #312516",
"@  c #3B2A15",
"#  c #3D2D19",
"$  c #3F3217",
"%  c #1F1F20",
"&  c #231C27",
"*  c #2C1F31",
"=  c #202020",
"-  c #292525",
";  c #28262E",
":  c #262A2B",
">  c #2D2C2B",
",  c #342624",
"<  c #322A24",
"1  c #3B2A26",
"2  c #322C2A",
"3  c #33322C",
"4  c #2A2931",
"5  c #302632",
"6  c #34223C",
"7  c #2C3234",
"8  c #2A3436",
"9  c #313333",
"0  c #38393A",
"q  c #472C0B",
"w  c #5A380C",
"e  c #462E15",
"r  c #4B3515",
"t  c #5A3C13",
"y  c #633C0A",
"u  c #6C3C1E",
"i  c #442D27",
"p  c #562F2F",
"a  c #4A332B",
"s  c #593727",
"d  c #473635",
"f  c #533834",
"g  c #6A3C28",
"h  c #623A34",
"j  c #773F32",
"k  c #69420B",
"l  c #7A4704",
"z  c #6B510F",
"x  c #6B4039",
"c  c #764338",
"v  c #3A1C4A",
"b  c #3A2548",
"n  c #343C46",
"m  c #3E2652",
"M  c #3D3F56",
"N  c #472D49",
"B  c #46354D",
"V  c #462956",
"C  c #413252",
"Z  c #4A3559",
"A  c #4E2766",
"S  c #532B6A",
"D  c #56356B",
"F  c #5C3574",
"G  c #5D3974",
"H  c #603977",
"J  c #61377A",
"K  c #623A7B",
"L  c #324146",
"P  c #384447",
"I  c #324951",
"U  c #3D5459",
"Y  c #3E555C",
"T  c #3B5762",
"R  c #474846",
"E  c #53494D",
"W  c #4A524A",
"Q  c #40575D",
"!  c #585658",
"~  c #6E554C",
"^  c #755044",
"/  c #455A65",
"(  c #65457B",
")  c #4A646B",
"_  c #55676B",
"`  c #4A6E7D",
"'  c #4B717D",
"]  c #52727C",
"[  c gray43",
"{  c #777677",
"}  c #844B03",
"|  c #884E03",
" . c #884D08",
".. c #8A5405",
"X. c #955803",
"o. c #895218",
"O. c #A15D01",
"+. c #926408",
"@. c #A46203",
"#. c #AC6401",
"$. c #AB6D00",
"%. c #B36700",
"&. c #B36B01",
"*. c #BC6D00",
"=. c #AC7605",
"-. c #B27500",
";. c #BC7200",
":. c #B27A03",
">. c #8C4A33",
",. c #AB5D3E",
"<. c #C47400",
"1. c #C67400",
"2. c #C57B01",
"3. c #C97E00",
"4. c #8B554B",
"5. c #94584C",
"6. c #9E5E50",
"7. c #A65B4B",
"8. c #976A52",
"9. c #B06142",
"0. c #A76557",
"q. c #B56857",
"w. c #BB725F",
"e. c #8D7566",
"r. c #A36E62",
"t. c #AC7868",
"y. c #BA7662",
"u. c #AC823A",
"i. c #C38200",
"p. c #CB8200",
"a. c #CC8900",
"s. c #D18500",
"d. c #D38D00",
"f. c #D69500",
"g. c #D99600",
"h. c #D99801",
"j. c #D79909",
"k. c #C7811D",
"l. c #D49D1C",
"z. c #DBA31D",
"x. c #CD9F33",
"c. c #DAA425",
"v. c #CFA131",
"b. c #DAA935",
"n. c #9A8178",
"m. c #C39452",
"M. c #D6A842",
"N. c #C5A45D",
"B. c #E2B54B",
"V. c #D4826E",
"C. c #C98673",
"Z. c #D48472",
"A. c #D48975",
"S. c #D9947D",
"D. c #E18F7B",
"F. c #CDB170",
"G. c #E5BF65",
"H. c #6B4283",
"J. c #71468A",
"K. c #734B8B",
"L. c #7A5192",
"P. c #547C88",
"I. c #5A8695",
"U. c #5B8996",
"Y. c #5D8C9A",
"T. c #608A97",
"R. c #618E9D",
"E. c #63919F",
"W. c #5F92A1",
"Q. c #6799A8",
"!. c #6B9EB0",
"~. c #6CA5B5",
"^. c #6EA8B9",
"/. c #71AABC",
"(. c #74B2C5",
"). c #7ABBCE",
"_. c #7CBED2",
"`. c #7EC2D6",
"'. c #868687",
"]. c #BFAD80",
"[. c #A7A6A7",
"{. c #B8B3A9",
"}. c #B4B4B3",
"|. c #BEBAB0",
" X c #D89A84",
".X c #E09E87",
"XX c #C2B38F",
"oX c #E2A089",
"OX c #EFAB92",
"+X c #C4BFB8",
"@X c #E9CB84",
"#X c #EACE8C",
"$X c #EBD39B",
"%X c #CDC2B3",
"&X c #E7D7B0",
"*X c #F0E1BE",
"=X c #81C8DE",
"-X c #BFC0C1",
";X c #FF85CDE3",
":X c #FF89D4EA",
">X c #FF89D4EB",
",X c #FF8FDEF6",
"<X c #FF90DFF7",
"1X c #FF90E0F8",
"2X c #FF95E9FF",
"3X c #FF9AF1FF",
"4X c #C8C9CA",
"5X c #D8D4CA",
"6X c #D8D8D7",
"7X c #F1E6CC",
"8X c #F4EDDB",
"9X c #DBDDE1",
"0X c #E7E7E8",
"qX c #F6F1E6",
"wX c #EBEEF4",
"eX c #F5F6F6",
"rX c #F9FAFB",
/* pixels */
"1X1X1X<X<X1X1X<X1X1X1X<X1X1X<X1X<X1X1X1X<X1X1X1X1X1X1X1X2X1X2X1X2X,X2X<X1X,X,X1X1X1X1X<X1X1X1X<X1X1X1X<X1X1X1X1X1X1X1X1X1X1X1X,X",
"1X1X1X1X1X1X1X1X1X1X1X1X1X1X1X1X1X1X1X1X1X1X,X,X1X2X,X/.Y.W.Y.R.R.R.Y.Y./.,X2X2X1X,X1X1X1X1X1X1X1X1X1X1X1X1X1X1X1X<X1X1X<X1X1X1X",
"1X1X1X1X1X1X1X1X1X1X1X1X1X1X1X1X<X1X<X,X<X<X1X,X;X:X_.T . = - - = - = . Y _.:X;X,X,X1X<X1X1X1X1X1X1X1X1X1X1X1X1X1X1X1X1X1X1X1X1X",
"<X1X1X<X<X1X1X1X<X1X1X<X<X1X1X<X<X<X<X,X<X1X2X;XP.Y U 7   . . . % . % . 4 U U P.;X2X1X1X<X1X1X<X<X1X1X<X,X1X<X1X,X1X1X1X1X1X1X1X",
"1X1X1X<X1X1X1X<X1X1X1X1X1X1X1X1X,X,X<X2X1X<X`.Y.7   . . o o = = = = = = . .   7 Y.`.<X1X1X<X<X<X1X1X<X1X1X1X1X1X1X1X1X1X<X1X,X1X",
"1X1X1X1X1X1X1X1X1X1X1X1X,X1X1X1X,X2X<X<X2X,XP.: . . . % = = % = % = = % % % . . 4 P.,X1X1X1X<X,X1X1X1X1X1X1X1X1X1X1X1X,X1X1X1X1X",
"1X1X1X1X1X1X1X1X1X<X1X1X<X1X1X1X<X<X,X,X2X,X'   . = = = X = = = = = = = = = = .   ' 1X1X<X<X,X,X1X1X1X1X<X1X1X1X1X1X1X1X1X1X1X1X",
"<X1X1X<X<X1X1X<X1X1X,X1X1X1X1X1X,X,X,X2X>X).) % X % = % = = = = = = = = = % = X . ) _.,X1X1X2X<X,X1X1X1X1X,X1X1X<X1X1X1X<X1X1X1X",
"1X1X1X1X1X1X1X1X1X,X1X1X,X1X1X1X<X1X1X1X(.U : % . = % = = = = = = % = o = % = . = : U (.2X,X,X<X,X1X1X<X,X1X<X1X1X1X<X1X1X<X1X,X",
"<X1X1X1X1X1X1X1X1X1X<X1X1X1X1X1X1X<X1X2X~.:   = = o = = = o = = = = = = = o = o =   : ~.2X<X,X<X1X1X1X1X1X1X1X1X1X1X1X1X1X1X1X1X",
"1X1X1X1X<X1X1X1X1X1X1X1X1X1X1X1X<X<X,X2X~.7   = = = o = % = o % = = = = = = = % X . 7 ~.2X<X,X<X1X1X1X1X1X1X1X1X,X1X1X1X1X1X1X1X",
"1X,X1X1X1X,X1X1X1X1X1X1X1X<X1X1X<X,X,X2X/.8   = = = = = = o = = = % = o = o = = %   7 ^.2X<X,X,X1X1X1X1X1X1X<X1X1X1X1X1X1X1X1X1X",
"1X1X1X1X1X1X<X1X1X1X1X1X,X1X1X,X<X2X,X).P.: . % = = = o = % = = o = = = = = = = = . ; P.).,X2X,X,X1X1X1X1X1X1X1X1X1X1X1X1X1X,X1X",
"1X1X1X1X1X1X1X,X1X1X1X1X1X1X1X1X<X<X;X) : = o % = = = = = = = = = = = = = % = = = . = > ) ;X<X,X1X1X1X1X1X1X1X1X1X1X1X,X1X<X1X1X",
"1X,X1X1X1X<X1X1X1X,X1X1X1X1X1X1X<X(.] ~ s - % % = = = = = = = = X = = = = = = = = % - f ~ ] (.2X2X1X1X,X1X1X1X1X1X1X1X1X1X1X1X1X",
"1X1X1X<X1X1X1X1X1X1X1X1X1X1X1X1X<XI.2 6.0.2 . = = % % X = = % = % % = % = = = % = . < 6.6.2 P.).`.;X1X1X,X,X1X<X1X1X<X1X1X1X1X1X",
"1X1X1X1X1X1X1X1X1X1X1X1X1X1X1X1X1XU.3 t.t.2 . o = = = o = = = = = % = = = % = % o . 2 t.t.< 8 L L I.,X1X1X1X1X1X1X,X1X,X1X1X1X1X",
"1X1X,X1X1X1X1X1X,X1X1X1X1X1X1X1X1XU.< r.t.2 . o o o % = = = = = = % X = = = = % o . 2 t.t.: d x a W E.=X1X1X1X1X1X1X1X1X1X1X1X1X",
"1X1X1X1X1X,X<X1X1X1X1X1X<X1X1X1X1XQ.L 4.5.< . o % = = = X = = % = % = = = = % % . . < 5.4.i e. X7.h 0 ~.1X1X1X1X1X1X1X1X,X1X1X1X",
"1X1X<X1X1X1X1X1X1X1X<X1X1X1X1X,X1X`.!.! t w @ . % = = = % % = = = = = % = = % % o @ w a x 5.C.OXS.^ 7 ~.2X1X1X1X1X1X1X1X1X1X1X1X",
"1X1X<X1X1X1X1X1X1X1X1X1X1X1X1X,X<X2X:XT @ o.g , = o . = = = = = = = = % % % % % < u o.# 1 4.r.C.A.^ 8 ~.1X1X1X1X1X1X1X1X1X1X1X1X",
"1X1X1X1X1X1X<X1X,X1X1X1X1X1X1X<X<X2X;XQ p 0.7.j < % = = = = = X = = = = % % % < j 7.q.f = 1 2 d >.h 0 ^.2X,X1X1X,X1X1X1X1X1X1X1X",
",X1X1X1X1X1X1X1X1X1X1X1X1X<X1X1X<X2X=XU p w.V.w.x 1 % % . % . . % % . % % % # x y.V.q.f + k l k s ! W.`.1X1X,X1X1X1X1X1X1X,X1X1X",
"1X1X1X1X1X,X1X1X1X1X<X1X1X1X1X1X,X2X;X] R 6.Z.S.q.x 1 1 1 , , 1 - < , 1 1 i c 0.S.A.6.p t ;.s.#.# ` ,X1X,X1X1X1X1X1X1X1X1X1X1X1X",
"1X1X1X<X1X1X,X1X1X1X1X1X1X<X1X1X,X<X,X;XE.d 5.V.S.C.0.0.6.j j j j j >.5.7.0.C.S.V.4.a w ..a.h.:.@ P.,X1X,X,X1X<X1X1X1X1X1X1X1X1X",
"1X1X1X1X1X<X1X1X1X1X<X1X1X1X1X,X,X<X2X3X^.8 a 4.y.A.D.A.Z.w.w.w.w.w.y.Z.D.D.Z.y.4.s r l &.g.g.-.@ ` ,X1X1X1X1X1X1X1X1X1X1X1X1X1X",
"1X,X1X1X1X1X1X1X1X1X1X1X1X1X,X<X<X>X;X:XQ.3 X 1 c 0.S..X.XoXoXoXoXoXoX.X XS.0.j 1 r } #.p.f.p.X.@ ` ,X1X1X1X1X1X1X1X1X1X1X1X1X,X",
"1X1X<X1X1X1X1X1X1X,X1X1X1X1X,X1X2X/.T T R w y w e d E 5.w.Z.Z.Z.Z.Z.Z.w.5.E d i w } #.3.g.f.-.l + ` ,X1X1X1X1X1X1X1X1X,X1X1X1X1X",
"1X1X1X1X1X1X1X1X1X1X1X1X,X1X1X,X(._ e q y X.@...t r r u >.,.9.9.9.9.,.>.k s e t | %.3.f.h.a.+.t W W.,X,X1X1X1X1X1X,X1X1X1X1X1X1X",
"1X1X1X,X1X1X1X,X1X1X1X1X1X,X1X).U r l X.;.a.f.a.&.$.#.X.|  . . . . . .} X.%.&.#.&.2.f.g.d.<.y L /.,X,X,X,X1X1X1X1X1X<X1X1X<X1X1X",
"1X1X1X1X1X1X1X1X1X1X1X1X1X,X~.) r y #.<.1.p.s.p.<.<.<.;.-.-.-.-.-.-.-.-.-.<.<.<.p.f.h.h.d.<.w L `.2X1X1X<X1X1X1X1X1X1X1X1X1X<X1X",
"1X1X1X<X1X1X<X1X1X<X<X,X2X,X` + l @.1.*.%.%.*.*.<.*.<.p.f.d.f.d.f.d.f.f.s.<.<.3.f.h.h.h.a.&.w L ).2X1X1X1X1X1X1X1X1X1X1X1X1X1X,X",
"<X1X1X1X1X1X1X1X<X<X<X,X2X<X' @ X.<.<.X.| | @.<.*.<.;.<.2.<.<.<.<.<.<.<.i.d.f.f.g.f.h.h.i...q n ).2X1X1X1X<X1X1X1X<X1X<X<X<X1X1X",
"1X1X1X<X1X<X1X1X<X<X<X<X=XE.W y #.*.O.| | X.&.p.3.3.p.a.3.p.i.3.3.p.3.a.a.g.f.g.h.h.h.b.u.t W I.=X1X1X1X1X1X1X1X1X1X<X1X<X<X<X1X",
"1X1X1X1X1X1X<X1X<X<X,X2X~.9 q | %.O.} l | *.p.h.g.g.f.f.g.g.g.f.g.g.f.f.f.f.h.f.h.f.l.XX'.9 U.,X1X1X1X1X1X1X1X1X1X<X1X1X1X1X1X1X",
"1X1X1X1X1X<X1X1X,X2X,X2X~.7 X w #.%.l q y &.p.g.g.g.h.f.f.g.g.f.g.g.f.f.h.g.g.h.h.x.].|.'.8 Y.2X1X1X1X1X<X1X1X1X1X1X1X1X1X<X1X1X",
"<X1X1X1X1X1X<X1X<X<X<X2X~.7 , f  .l t R ~ u.b.B.B.M.v.j.j.g.c.B.B.c.h.f.z.b.M.x.x.F.4X4X'.9 U.1X1X1X1X1X1X1X1X1X1X1X1X1X1X1X1X1X",
"1X1X1X<X1X1X1X1X<X<X,X2X~.7 c 6.p X > n.}.{.5XqXqX5X{.x.h.j.@XqXqX@Xj.f.B.7X5X|.{.5X0X4Xn.7 U.1X1X1X1X1X1X1X1X1X1X1X<X1X1X<X<X1X",
"1X1X1X1X<X1X1X<X<X<X,X2X!.; g 7.4.f > '.4X0XwXrXrXwX9X$X@X#X7XrXrX7X#X@X&XeXwX6X9XwXrX6XT.3 U.1X1X1X1X1X1X1X1X1X<X1X<X1X1X1X1X1X",
"1X<X1X1X1X1X1X1X1X<X<X1X(.Q f >.7.x 7 '.4X0XeXrXrXrXrXrXrXrXrXrXrXrXrXrXrXrXrXrXrXeX0X%Xe.3 U.1X1X1X1X1X1X1X1X1X1X1X1X1X1X<X1X1X",
"1X1X<X1X1X1X<X1X1X1X1X1X,X).) , 1 O 7 '.-X-X0XeXrXrXrXeXrXeXrXrXrXrXrXrXrXrXrXrXrX0X+Xm.o.< Y.1X1X1X<X1X1X1X<X1X1X1X1X1X1X1X1X1X",
"1X<X1X1X1X1X1X1X1X<X<X<X1X1X~.` ' I 3 8.N.F.F.#X#X#X$X8XrXrX*X#X#X*XrXrX8X$X&X6X$XF.N.k...< Y.2X1X1X1X1X1X1X1X1X1X<X1X<X1X<X<X1X",
"1X1X<X1X1X1X1X1X1X1X<X1X1X1X,X,X,XI.< l 2.j.j.j.j.h.z.$XqX8XG.h.f.G.8XqX$Xz.N.XXc.h.j.2.| < U.2X1X1X1X1X,X1X1X1X1X<X1X1X1X1X1X1X",
"1X1X1X1X1X1X1X<X1X1X1X1X,X1X1X2X2XY.- @ z 2.h.h.g.g.j.b.B.B.c.g.f.c.B.B.b.j.l.v.j.s.2.#.k - Y.1X1X1X1X1X1X1X1X1X1X1X1X1X1X<X1X1X",
"1X1X1X1X<X1X1X1X1X1X<X1X<X1X<X<X<XY.& & p  .+.=.a.j.g.g.h.f.f.f.f.h.g.f.g.f.f.d.d.<.@.l q - Y.1X1X1X1X1X1X,X1X1X1X1X<X1X1X1X1X1X",
"1X,X1X1X1X1X1X<X1X1X1X1X1X<X<X,X<XR.4 V Z , < r @.a.f.f.f.f.h.g.h.f.g.h.f.f.3.<.;.@.l e X - Y.2X1X1X1X1X1X1X1X1X,X1X1X1X1X<X<X1X",
"1X1X<X1X1X1X1X1X<X1X1X1X1X1X<X2X<X_.I.Q b m m B t k z z +.i.s.s.s.p.p.s.i.$. .t k s p N b ; Y.1X1X1X1X1X1X1X1X1X1X1X1X1X1X1X1X1X",
"1X1X1X1X1X<X1X1X1X1X1X<X1X1X<X,X<X2X:XY 5 F K D b 4 4 4 a X.@.@.@.@.@.@.X.k # ; ; b A F V ; U.1X1X1X1X1X<X1X1X1X1X1X1X1X1X1X1X,X",
"1X1X1X1X,X1X1X1X1X1X1X<X1X1X1X,X1X2X;XY 5 F J K ( ( ( F B i @ @ $ $ @ @ @ + 6 V S D F J Z ; U.1X1X1X1X1X1X1X1X1X1X1X1X1X<X1X1X1X",
"1X<X1X1X1X1X1X1X1X1X1X1X1X1X1X1X1X1X>XQ./ m S K J.J.J.J.G Z C C M m B M m C S G J J J K V ; Y.2X1X1X1X1X1X<X1X<X1X1X1X1X1X1X1X<X",
"1X1X,X1X1X1X1X1X1X1X1X1X1X1X1X1X1X1X,X,X^.P C F D F H ( K.K.J.J.J.K.L.K.L.K.L.K.K K J J V > U.1X1X1X1X1X1X1X<X1X<X1X1X1X1X1X1X1X",
"1X1X1X1X1X<X1X1X,X1X1X1X1X1X,X1X1X,X1X2X:X^./ * * 5 6 D H.H.J F K J.L.L.L.L.L.L.K.H.K S v ; U.2X1X1X1X1X1X1X1X1X1X1X1X<X1X<X1X1X",
"1X1X1X1X1X1X1X1X1X1X1X,X1X1X1X<X1X<X,X1X2X,XQ.U Q Q Q Z V V m m S K J.J.J.J.J.J.K.H.G A v & U.1X1X1X1X1X1X1X1X1X1X1X1X1X1X1X1X1X",
"<X1X1X1X<X1X1X1X1X1X1X1X1X1X1X1X1X1X1X,X,X,X:X;X;X:X`./ - > = * V S H K G G H H G K G A v 4 R.1X1X1X1X1X1X1X1X1X1X<X1X1X1X<X1X1X",
"1X1X1X1X1X1X1X1X1X1X1X1X1X1X1X1X1X1X1X1X,X,X2X2X2X2X<X~.U.I.P & v A A b * b b * b m A v P R.`.1X1X1X1X1X1X1X1X1X1X1X1X1X,X1X<X1X",
"1X1X,X1X1X1X,X1X,X1X1X1X1X1X,X1X<X1X1X1X1X,X1X1X1X1X<X1X2X,XU.n m V V R R R R R 0 N V 5 Q (.>X1X1X1X1X1X1X1X1X1X1X,X1X1X1X1X1X1X",
"1X1X1X1X1X1X1X1X1X1X1X1X1X1X1X1X1X1X1X,X1X1X1X1X1X,X1X1X2X1X;X!.M * ! [.6X5X6X4X[.{ E R R P !.1X1X1X,X1X1X1X1X<X1X1X1X1X1X<X1X1X",
",X1X1X1X1X1X,X1X1X1X1X1X1X,X1X1X<X1X1X1X1X1X1X1X1X1X1X1X,X1X2X_.n d '.6XrXrXrXeX9X}.{ _ 0 = U.1X1X1X1X1X,X1X1X1X1X1X1X1X1X1X1X1X",
"1X1X1X1X1X1X1X1X1X1X1X1X1X1X1X1X1X1X1X1X1X1X1X1X1X1X1X1X,X,X2X).I ! }.0XrXrXrXrXeX9X}.[ 0 : U.1X1X1X1X1X1X1X1X1X1X1X1X1X1X1X1X,X",
"1X1X,X1X1X1X1X1X1X1X,X1X1X,X1X1X1X1X1X1X1X1X1X,X1X1X1X1X1X,X2X_.n ! -XwXrXrXrXrXrX0X}.[ d : U.1X1X1X1X1X1X1X1X1X1X1X,X1X1X1X1X1X",
"1X1X1X,X1X1X1X1X,X1X1X1X1X1X1X1X1X1X1X,X1X1X1X1X1X,X1X1X<X<X2X`.] _ '.[.|.}.}.}.}.[.e.! P Y ^.1X1X1X1X1X1X,X1X1X,X1X1X1X1X1X<X1X",
"1X1X1X1X1X1X,X1X1X1X1X1X1X1X1X,X<X1X1X1X1X<X1X1X1X1X1X1X<X<X,X,X:XY.0 7 0 0 0 0 0 9 8 : Q `.,X,X1X1X1X1X1X1X1X1X1X1X1X<X1X1X1X1X",
"1X1X1X1X1X1X1X1X1X1X1X1X1X1X1X1X1X1X1X1X1X1X1X1X,X1X1X1X,X<X<X<X2X_.W.U.Y.Y.I.I.U.Y.Y.U./.,X2X,X1X1X1X1X1X1X1X1X1X1X1X1X1X1X1X1X",
"1X1X1X1X1X,X1X1X1X1X1X,X1X1X1X1X1X1X1X1X1X,X1X1X1X1X1X1X,X2X<X,X,X,X1X1X1X1X1X1X1X2X1X1X1X1X,X1X1X1X1X1X<X1X1X1X1X1X1X1X1X1X1X,X"
};
