/* XPM */
static char *result[] = {
/* columns rows colors chars-per-pixel */
"64 64 217 2 ",
"   c #1C1819",
".  c #1C1D1D",
"X  c #281A0D",
"o  c #211D1B",
"O  c #28221B",
"+  c #392910",
"@  c #382817",
"#  c #251D28",
"$  c #2F1F38",
"%  c #1F2120",
"&  c #232323",
"*  c #2B2523",
"=  c #29222E",
"-  c #282A2C",
";  c #342925",
":  c #382A28",
">  c #2F302E",
",  c #3A332B",
"<  c #2C2532",
"1  c #2D2934",
"2  c #282D36",
"3  c #322538",
"4  c #2C3233",
"5  c #28373C",
"6  c #323333",
"7  c #393838",
"8  c #4E330E",
"9  c #573409",
"0  c #5D3B0D",
"q  c #452B19",
"w  c #483315",
"e  c #573A14",
"r  c #663C07",
"t  c #623E0D",
"y  c #472D27",
"u  c #562A20",
"i  c #4A312C",
"p  c #583629",
"a  c #463937",
"s  c #573835",
"d  c #68382D",
"f  c #673B33",
"g  c #733E35",
"h  c #3D4039",
"j  c #66410C",
"k  c #764505",
"l  c #7C530C",
"z  c #484438",
"x  c #564333",
"c  c #664639",
"v  c #774238",
"b  c #3A1E47",
"n  c #392448",
"m  c #363248",
"M  c #401D54",
"N  c #462559",
"B  c #4D305E",
"V  c #4D2863",
"C  c #542B6C",
"Z  c #533266",
"A  c #56336B",
"S  c #5D3475",
"D  c #5E3876",
"F  c #60357A",
"G  c #643B7C",
"H  c #334145",
"J  c #384246",
"K  c #364A52",
"L  c #3B5157",
"P  c #3C555C",
"I  c #3D5962",
"U  c #474846",
"Y  c #484C55",
"T  c #44595F",
"R  c #575857",
"E  c #694C47",
"W  c #794C43",
"Q  c #6F584C",
"!  c #6E685E",
"~  c #455667",
"^  c #425A63",
"/  c #66467B",
"(  c #49646C",
")  c #5D6263",
"_  c #496C77",
"`  c #4E727C",
"'  c #56737B",
"]  c #676766",
"[  c #6E7172",
"{  c #797979",
"}  c #854C02",
"|  c #8C5201",
" . c #8C550A",
".. c #925401",
"X. c #995902",
"o. c #A15C01",
"O. c #A85F00",
"+. c #84630B",
"@. c #9B6603",
"#. c #A56402",
"$. c #AD6600",
"%. c #B46A01",
"&. c #B96C00",
"*. c #BD7200",
"=. c #B87701",
"-. c #8F4C3D",
";. c #C06E00",
":. c #C27400",
">. c #C67A01",
",. c #C97D00",
"<. c #895045",
"1. c #88524A",
"2. c #955549",
"3. c #9A5C51",
"4. c #A25444",
"5. c #A85B4B",
"6. c #AC5E4F",
"7. c #91665B",
"8. c #AA6858",
"9. c #B76554",
"0. c #B76C59",
"q. c #BB6A5A",
"w. c #8E7168",
"e. c #A97867",
"r. c #B97563",
"t. c #B4776B",
"y. c #C16E5E",
"u. c #C97463",
"i. c #C77867",
"p. c #CD7C6A",
"a. c #D17E6B",
"s. c #B58208",
"d. c #CC8300",
"f. c #C98601",
"g. c #D18700",
"h. c #D38C00",
"j. c #D69400",
"k. c #D89706",
"l. c #D99901",
"z. c #D89E15",
"x. c #DAA017",
"c. c #DCA628",
"v. c #E3B139",
"b. c #B9944E",
"n. c #E3B956",
"m. c #C9816D",
"M. c #DE9A64",
"N. c #CF8673",
"B. c #CC8976",
"V. c #D38571",
"C. c #D88B77",
"Z. c #D7967F",
"A. c #DB927D",
"S. c #C3A774",
"D. c #E6C474",
"F. c #6C4485",
"G. c #704789",
"H. c #754D8D",
"J. c #795192",
"K. c #4F7884",
"L. c #557A87",
"P. c #598694",
"I. c #5B8997",
"U. c #5D8C99",
"Y. c #618E9C",
"T. c #66939D",
"R. c #5F90A1",
"E. c #6798A7",
"W. c #6BA4B6",
"Q. c #6EA8B9",
"!. c #70A9BA",
"~. c #71AEC0",
"^. c #77B6C9",
"/. c #7CBED2",
"(. c #7DC1D6",
"). c #868484",
"_. c #979797",
"`. c #A79A95",
"'. c #A8A9A9",
"]. c #B8AFAD",
"[. c #B8B6B6",
"{. c #C99684",
"}. c #DB9782",
"|. c #DD9B85",
" X c #E29B85",
".X c #E39E87",
"XX c #DBA08D",
"oX c #D9A999",
"OX c #E6A58D",
"+X c #E9A78E",
"@X c #E9A88F",
"#X c #E1A592",
"$X c #E6A992",
"%X c #E8A991",
"&X c #D1B1A8",
"*X c #EACE93",
"=X c #EFD9A6",
"-X c #F0E0B7",
";X c #81C8DD",
":X c #FF84CDE3",
">X c #FF87D1E7",
",X c #FF88D4EB",
"<X c #FF89D4EB",
"1X c #FF8EDEF6",
"2X c #FF90DFF7",
"3X c #FF90E0F8",
"4X c #FF95E9FF",
"5X c #C7C8C8",
"6X c #D3CAC7",
"7X c #D9D8D7",
"8X c #EFE7D5",
"9X c #E6E6E6",
"0X c #F6F2E7",
"qX c #EEEFF2",
"wX c #F6F5F4",
"eX c #F7F8FA",
"rX c #FBFCFE",
/* pixels */
"3X3X3X2X3X3X3X2X3X3X3X2X3X3X2X3X3X3X3X3X3X3X3X1X1X3X3X4X3X3X3X3X4X2X3X3X3X1X1X3X3X3X3X3X3X2X3X3X3X2X3X3X3X3X3X3X3X3X1X3X3X3X3X3X",
"3X3X3X3X2X3X3X3X3X3X3X3X3X3X3X3X2X3X3X2X1X3X3X4X4X/.R.U.R.R.R.R.Y.Y.E.:X4X4X3X1X2X3X3X3X3X3X2X3X3X3X3X3X3X3X1X3X3X3X3X3X3X3X3X3X",
"3X3X3X3X3X3X3X3X2X3X3X3X3X3X3X2X3X3X2X1X3X1X,X>X>XP.- % & & & & & # 4 E.,X:X1X1X3X2X3X3X3X2X3X3X3X3X3X2X3X3X1X3X3X3X2X3X3X3X3X2X",
"3X3X1X3X3X2X3X3X3X3X2X3X2X3X3X3X3X3X2X1X4X3XE.P P m .   . . . . o . % H I ^ Q.4X3X2X3X3X3X3X3X3X1X3X3X3X3X3X3X3X3X3X3X3X1X3X3X3X",
"3X3X3X2X3X3X3X2X3X1X3X3X3X3X2X3X3X2X2X4X<XQ.P   . O @ * . . : i & . # , : . ( ^.<X3X3X3X3X3X3X3X3X3X3X3X3X1X3X3X3X3X3X3X3X3X3X3X",
"3X3X3X3X3X3X3X3X3X3X3X2X3X3X3X3X3X3X2X3XQ.H % . % i v y . * W 3.y . * 2.2.; % L (.3X3X3X3X1X3X3X3X3X3X3X3X3X3X2X2X3X3X3X3X3X3X3X",
"3X3X3X2X2X3X3X3X3X3X3X3X3X3X3X2X2X3X<XE.P & . . . s 5.2.W <.r.B.3.c 1.p.i.1.: m (.4X3X1X3X3X3X2X3X3X3X3X3X3X3X3X3X3X3X3X3X3X3X3X",
"3X2X3X3X3X3X2X3X3X3X3X3X2X3X3X3X1X4X>XP   % % % * W p.a.a.a.}.|.p.u.m..X|.u.v h W.>X1X3X3X3X3X3X3X3X3X2X3X3X3X3X3X3X3X1X3X3X3X2X",
"3X3X3X3X3X3X3X3X3X3X3X3X3X2X3X3X1X4X:XI   . . * d 8..XOX.X|.&X].p.V..X%X}.u.4.f m P.1X2X3X3X3X3X3X3X3X3X3X3X3X3X3X1X3X3X3X3X3X3X",
"3X3X1X3X3X3X3X3X2X3X3X3X3X3X3X1X1X4X,XI   # . ; -.p.@X%X$XoX6X6X&X$X}.m.{.&X{.7.; _ 1X2X3X2X3X2X3X3X3X3X2X3X3X3X3X3X3X2X3X1X3X3X",
"3X3X3X3X1X3X3X3X3X3X3X3X3X3X1X3X1X1X/.P   . . i 8.C.%X@XoX[.7XwXqX&Xy.4.t.7X6X_.7 _ 1X2X2X3X3X3X2X3X3X3X3X3X3X3X3X3X3X3X3X2X3X3X",
"3X3X3X3X3X3X1X3X3X3X1X3X3X3X3X3X4XQ.P 2 . % y -.N.OX%X%XoX[.9X9X_.e.y.9.8.).'.`.7 ` 2X3X2X2X3X2X3X3X1X3X3X3X3X1X3X3X3X3X3X3X3X3X",
"3X3X3X3X3X3X3X3X3X3X3X3X3X3X3X<X^.' p x a & d 9.|.%X@X@XoX&X7X6Xw.3.y.a.t.7.`.`.E T !.<X4X1X3X3X3X3X3X3X2X3X3X3X3X3X3X3X3X1X3X3X",
"3X1X3X3X3X3X3X3X1X3X3X3X3X3X4X(.P c 0.C.e.6 v u..X@X@X@X$X#X&X].t.q.u.}.XXXX#X}.2.p m !.4X2X3X3X3X1X3X3X3X3X3X3X3X3X3X1X3X3X3X3X",
"3X1X3X3X1X3X3X3X3X3X3X3X3X3X4X^.7 c C.m.e.7.8.a..X%X$X@X%X%XoXXXp.9.6.u.C.C.C.u.4.u = Q.4X2X1X2X3X2X3X3X3X3X3X3X3X3X3X3X2X3X3X3X",
"3X3X3X3X3X3X3X3X3X3X3X1X3X1X4X/.H Q |.8.6.Z.V.V.OX%X$X@X$X$X$X.Xa.q.2.6.y.y.q.9.4.d , Y.;X1X3X3X3X3X3X3X3X3X3X3X1X3X3X3X3X3X3X3X",
"3X3X3X3X3X1X3X3X1X3X3X3X3X3X4X/.H Q XXm.6.5.m.OXOX%X%X%X%XOX%XOXOXV.9.4.-.4.-.2.9.4.g a ` ,X4X3X3X1X3X3X3X3X3X3X1X3X3X3X3X3X3X1X",
"3X3X3X3X3X3X3X3X3X3X3X3X3X3X4X(.P.] 7.B.V.r.m.A.OX%X%X%X%X%XOX%X@X XC.i.9.5.6.r.V.u.4.y P :X3X3X3X3X3X3X3X3X3X3X3X3X3X3X3X3X3X3X",
"3X3X1X3X1X3X3X3X3X3X3X3X3X3X3X3X1XR.U e.|.|.N.p.|.%X%X@X%X%X%X%X@X@X@X@XA.u.C.@X%XA.0.i I :X3X3X3X1X3X3X1X3X3X3X3X3X3X3X3X3X3X3X",
"3X3X3X3X3X3X3X3X2X3X3X3X2X3X1X3X3X(.E.) E 6.m. XOX@X%X%XOX%X%XOX@X@X%X%XA.u.A.%X+X}.q.i I :X4X3X3X3X3X3X3X3X3X3X3X3X3X1X1X3X3X3X",
"3X3X3X3X3X3X3X3X3X1X3X3X3X3X3X1X1X4X<XP @ 2.N.@X%X#X@X%X@X%X%X%X@X@X@X$X|.V.}.@X XC.q.u P >X4X1X3X3X3X3X3X3X3X3X3X3X3X3X3X3X3X3X",
"3X3X3X1X3X3X3X3X3X3X3X3X3X3X3X1X2X4X:XP i 9.C.@X%X%X%X@X%X@X%X%X@X$X@X@X$X@X@X.Xa.u.q.i I :X4X1X3X3X3X3X3X1X3X1X3X3X3X3X3X3X3X3X",
"3X3X3X3X3X3X3X1X2X3X3X3X3X3X3X3X2X4X:XP q 2.u.A.OX%X%XOX%XOX%X%X@X@X$X$X$X%X%X%X X0.E L.Q.<X3X3X3X3X1X3X3X3X3X3X3X1X3X1X3X3X3X1X",
"1X3X3X3X3X3X3X3X3X3X3X2X3X3X3X3X3X3X>XK.a v 4.u.A.OX%X%X%X%X%X%X@X@XOXOX|.}.}.{.B.Q 1 W.4X3X2X3X3X3X3X3X3X3X3X3X3X3X3X3X3X3X3X3X",
"3X3X3X3X3X3X3X3X3X3X3X3X2X3X3X2X3X3X1X:XY., d 4.u.A.@X$X+X+X%X%XOX$XOXV.q.4.1.) z * 2 W.3X3X2X3X3X3X3X3X3X3X3X3X3X3X3X3X3X3X3X3X",
"3X3X3X3X2X3X3X1X3X3X3X3X3X3X3X3X3X3X1X~.' e u f 4.u.A.A.}.@X%X%X%X$X@XA.V.r.8.E * 5 L.;X3X3X3X3X3X3X3X3X3X3X3X3X3X3X3X3X3X1X3X3X",
"3X3X3X3X3X3X3X3X3X1X2X3X3X3X2X2X1X4X:XI + r 8 : g 2.q.y.a..XOXOXOXOX.XOXXX{.m.3.z K.<X3X3X3X3X3X3X3X3X3X3X3X3X3X3X1X3X3X3X3X3X3X",
"3X3X3X1X3X3X3X3X3X3X3X3X2X3X3X2X1X4X,XI + k k 9 y y i -.9.a.V.V.V.V.a.y.3.E s U E.(.3X3X3X2X3X3X1X2X3X3X1X2X3X3X3X3X3X3X1X3X3X3X",
"3X3X2X3X3X3X1X3X3X3X3X3X3X3X1X3X3X:XE.U 8 k ..} 0 w w d v 1.1.2.1.2.1.v p w + z T.(.3X2X3X3X3X3X3X3X3X3X3X3X3X3X3X3X3X3X3X3X3X3X",
"3X3X3X3X3X3X3X3X3X3X2X3X3X1X2X1X1XE.6 0 k } o.&.$.%.#.e * ; ; ; ; ; ; - e #.X.r > L.2X4X3X3X3X3X3X3X3X3X3X3X3X1X3X3X3X3X3X3X3X3X",
"2X3X3X3X2X3X3X3X3X2X3X3X1X3X4X>XP.U 9 | $.O.X.X.X.%.;.@.+.+.+.+.+.+. .l  .*.*...+ _ <X4X3X3X3X3X3X3X3X3X3X3X3X3X3X3X3X3X3X3X3X3X",
"3X3X2X3X3X3X2X3X3X3X3X3X3X1X>XW.7 9 | &.>.:.$.| | X.%.,.f.f.j.j.j.j.h.>.;.%.$.} @ ` 2X3X1X3X3X1X2X3X3X3X3X3X3X3X1X2X3X3X1X3X3X3X",
"3X3X3X3X3X3X3X3X3X3X3X3X3X1XI.h 0 | %.f.j.j.f.f.&.o.| | ..| %.>.:.>.:.:.%.| 0 @ O ` 1X4X1X1X3X3X3X3X3X3X3X3X3X3X3X3X3X3X3X1X3X3X",
"3X3X1X3X3X3X3X3X3X3X1X1X4X2X` X } &.f.j.l.l.j.d.%.o.X.o.#.#.=.d.,.,.d.,.:.#.l e O K R.:X4X3X3X3X3X3X3X1X3X3X1X3X3X3X3X3X3X3X3X3X",
"3X3X3X3X1X3X3X3X3X3X3X2X1X;X( w o.d.j.l.j.j.f.$.} ..*.h.k.z.z.k.k.k.k.z.z.z.f.X.@ % 7 E.<X1X1X3X3X3X3X3X3X3X1X3X3X3X1X3X1X3X3X3X",
"3X3X3X3X3X3X1X3X3X3X3X4X^.( z k $.d.j.j.j.,.$.} w j :.j.v.=X-X*Xx.j.z.D.-X=XM.o.+ + j z P.,X3X3X3X3X3X3X3X3X3X3X3X3X3X3X3X3X3X3X",
"3X3X3X3X3X3X3X3X3X3X2X4XW.- 9 o.:.h.j.j.>.#.k 9 q 0  .@.b.0XrX0XD.v.n.8XrXeX*Xb.Q x 0 X I ,X4X3X1X3X3X3X3X3X3X3X3X3X3X3X3X3X3X3X",
"3X1X3X3X3X3X3X3X3X3X1X4XW.4 k :.h.l.j.,.%.| e + j 0 @ O ! 9XrXwX0X8X0XwXwXeX0X7X[.[ O o ^ (.3X3X3X3X3X1X3X3X3X3X3X3X3X1X3X3X3X3X",
"3X1X3X3X1X3X3X3X3X3X1X3XW.4 k >.j.l.j.h.f.%.@.j 8 c 7.Q Q { 5XrXrXrXrXrXrXrXrXwX5X[ ; Q { ' ~.3X3X3X3X3X3X1X3X3X3X3X3X3X3X3X3X1X",
"3X3X3X3X3X3X3X3X3X3X1X4XW.1 k &.h.j.j.l.l.l.s. .p 7.|.a.2.s ).7X0XrX0X8X8X8X0XqX5X[ > e.e.: P.3X3X3X3X3X3X3X3X3X1X3X3X3X3X3X3X3X",
"3X3X3X3X3X1X3X3X3X3X3X4XW.4 9 X.*.d.j.l.l.j.l x e.B.i.5.4.5.E ] 7XrX0XD.c.c.=XqX5X[ , 3.3.; I.4X3X3X3X3X3X2X3X3X3X3X3X3X3X3X3X2X",
"3X3X3X3X3X3X3X3X3X3X3X3X/.L.z r X.*.g.h.h.f.t a {.@XV.r.r.u.x , S.*XD.c.j.j.n.*XS.c - <.-.< I.3X3X3X3X3X3X3X3X3X3X3X3X3X3X3X3X3X",
"3X3X1X3X1X3X3X3X3X3X3X3X3X1XK., r ..%.*.*.&.0 7 B.%X@X%XA.y.s y s.l.k.k.j.l.k.k.>.l @ g d ; U.3X3X3X3X3X3X3X3X3X3X3X3X3X3X3X3X3X",
"3X3X3X3X3X3X3X3X3X3X1X1X3X3X(.Y.z + e k X...8 , 0. X%X%XA.5.i w s.l.l.l.l.j.k.k.h.=. .e O & U.3X3X3X3X3X1X3X3X3X3X3X3X1X3X3X1X3X",
"3X3X3X3X3X3X3X3X3X2X3X2X2X3X4X/.H X @ 9 r 0 @ : 2.a.A.A.r.v w e f.k.h.h.h.h.h.h.k.,.#.w 2 P Q.3X3X3X3X3X3X3X3X3X3X3X3X3X3X3X3X3X",
"3X3X3X1X3X3X3X3X3X3X3X3X2X2X4X/.H + k + O O . ; v 6.y.5.g : w } %.*.*.*.*.*.*.*.;.#.k + P /.1X3X3X3X3X3X3X2X3X1X3X3X2X3X3X3X3X2X",
"3X3X3X3X3X3X3X1X3X3X3X3X3X3X4X^.K O w O . . . O y s f p @ . @ 8 0 t t t j t t t t e q X P ,X4X1X2X3X3X3X3X3X3X3X3X1X3X3X3X3X3X3X",
"1X3X3X3X3X3X3X3X2X3X3X3X2X3X4X/.H   # = < < < 1 1 < < 1 1 < 1 3 1 1 1 3 3 2 3 2 < # & 4 ` ,X3X3X3X3X3X3X3X3X3X3X3X3X3X3X3X1X3X3X",
"3X3X3X3X3X3X2X3X3X3X3X3X3X1X4X^.m # N Z Z Z D / / / / / / / / / / / / / / / / / A 3 2 U.:X1X3X3X3X3X2X3X3X3X3X3X3X3X1X3X3X3X3X3X",
"3X3X3X3X3X3X3X3X3X1X2X3X3X3X4X:XP.Y n C G G G.J.J.J.J.J.J.J.J.J.H.G.G.G.H.J.J.H.F n - Q.4X3X2X3X3X3X3X3X3X3X1X3X3X3X3X3X3X3X3X3X",
"3X3X3X3X3X3X3X1X3X3X3X3X3X3X1X3X2XP.= B D F G.J.J.J.J.J.J.H.H.G.G S S F G J.J.F.V n H !.4X1X3X3X3X3X3X3X3X2X3X3X3X3X2X3X3X3X3X2X",
"3X3X3X1X3X3X3X3X3X3X3X3X3X3X3X3X4XI.# b C D G.H.J.J.J.J.J.J.G.D C V C S G H.G.S 3 ~ Q.>X3X2X2X3X3X3X3X2X3X3X3X3X3X3X3X3X1X3X3X3X",
"3X3X3X3X1X3X3X3X3X3X3X3X3X3X3X3X2XQ.^ m N F F.G.J.J.J.J.J.H.F.S V b b C G G.G B # ` 1X4X2X2X2X3X1X3X3X3X3X3X3X3X3X3X3X3X3X3X3X3X",
"3X3X3X3X3X3X3X3X3X3X3X3X3X2X3X3X2X1X/.P $ A G G G.J.J.H.J.H.F.C V b < V G F C N < ` 1X3X2X3X3X3X3X3X3X3X3X3X3X1X2X3X3X3X3X3X3X3X",
"3X3X3X3X3X3X3X2X3X3X3X1X3X3X3X1X2X4X>XL # V S G / F.F.F.F.F.D V n $ n C F C b m L.^.1X2X3X3X3X3X3X3X3X1X3X3X3X3X3X3X3X3X3X3X3X3X",
"1X3X3X3X3X3X3X3X3X1X3X3X3X3X3X3X2X4X>X' m M V Z Z Z Z Z Z B V b # $ M Z V M # H /.4X2X1X3X2X3X3X3X3X3X3X3X2X3X3X3X3X3X1X3X3X3X2X",
"3X2X3X3X3X3X3X3X3X3X3X1X3X3X3X3X3X3X1X:XY.2 # = = = = < = * # # . & # = # =   H (.4X1X1X3X3X2X3X1X3X3X2X1X3X3X2X2X3X3X3X2X3X3X2X",
"3X3X3X3X3X2X3X3X3X3X3X3X3X3X3X3X3X1X1X4X!.4 O > > U ) R ] { [ Y & & 7 Y ] R z J L.^.1X3X3X3X3X3X3X3X3X3X3X3X3X3X3X3X3X3X3X3X3X3X",
"3X3X3X3X3X3X3X3X3X3X3X3X3X3X3X3X3X3X1X4XQ.4 6 R R w.'.[.6X9X7X'.U 6 R _.[.[.).U - ` 1X3X3X3X2X2X3X3X3X3X3X3X3X3X3X3X3X2X3X3X3X3X",
"1X3X3X3X3X1X3X3X3X3X2X3X3X3X3X2X3X3X1X3XW.- 6 ) _.[.5X9XeXrXrX7X'.R 7 _.7X9X5X).; _ <X4X3X3X2X2X3X3X3X3X3X3X3X2X2X3X3X3X3X3X2X3X",
"3X3X3X3X3X3X3X3X3X3X3X3X1X3X3X3X3X3X3X4X^.( J U { ).).'.[.[.[.'._.R * ] _.]._.T.( R.1X3X3X1X3X3X3X3X2X3X2X3X3X3X2X3X3X2X2X3X3X2X",
"3X3X3X3X3X3X1X3X3X3X3X3X3X3X3X3X3X3X3X3X3X:X` - 2 4 4 7 7 7 5 7 6 - & 1 7 7 6 U ~.1X1X2X3X3X3X2X3X3X3X3X3X3X3X3X3X3X3X3X3X3X3X3X",
"3X3X3X3X3X2X3X3X1X3X3X3X3X3X3X3X3X1X3X1X4X3X^.U.U.U.U.U.U.U.I.I.I.U.R.Y.U.Y.P.E.<X4X3X1X3X3X3X3X3X3X3X1X3X3X3X3X3X3X3X3X3X3X3X3X",
"3X3X3X2X3X3X3X3X3X3X1X3X3X3X2X3X3X3X3X3X1X1X3X3X3X3X3X4X3X3X3X4X3X3X3X3X2X3X2X2X3X1X3X3X3X3X3X3X3X3X3X3X2X3X3X2X3X3X3X2X3X3X2X3X"
};
