/* XPM */
static char *result[] = {
/* columns rows colors chars-per-pixel */
"64 64 219 2 ",
"   c #1C1819",
".  c #1C1D1D",
"X  c #281A0D",
"o  c #211D1B",
"O  c #28221B",
"+  c #392910",
"@  c #382817",
"#  c #251D28",
"$  c #2F1F38",
"%  c #1F2120",
"&  c #232323",
"*  c #2B2523",
"=  c #29222E",
"-  c #282A2C",
";  c #342925",
":  c #382A28",
">  c #2F302E",
",  c #3A332B",
"<  c #2C2532",
"1  c #2D2934",
"2  c #282D36",
"3  c #322538",
"4  c #2C3233",
"5  c #28373C",
"6  c #323333",
"7  c #393838",
"8  c #482C0B",
"9  c #4E330E",
"0  c #573409",
"q  c #5D3B0D",
"w  c #452B19",
"e  c #483315",
"r  c #573A14",
"t  c #663C07",
"y  c #623E0D",
"u  c #472D27",
"i  c #562A20",
"p  c #4A312C",
"a  c #583629",
"s  c #463937",
"d  c #573835",
"f  c #68382D",
"g  c #673B33",
"h  c #733E35",
"j  c #3D4039",
"k  c #66410C",
"l  c #764505",
"z  c #7C530C",
"x  c #484438",
"c  c #564333",
"v  c #664639",
"b  c #774238",
"n  c #3A1E47",
"m  c #392448",
"M  c #363248",
"N  c #401D54",
"B  c #462559",
"V  c #4D305E",
"C  c #4D2863",
"Z  c #542B6C",
"A  c #533266",
"S  c #56336B",
"D  c #5D3475",
"F  c #5E3876",
"G  c #60357A",
"H  c #643B7C",
"J  c #334145",
"K  c #384246",
"L  c #364A52",
"P  c #3B5157",
"I  c #3C555C",
"U  c #3D5962",
"Y  c #474846",
"T  c #484C55",
"R  c #44595F",
"E  c #575857",
"W  c #694C47",
"Q  c #794C43",
"!  c #6F584C",
"~  c #6E685E",
"^  c #455667",
"/  c #425A63",
"(  c #66467B",
")  c #49646C",
"_  c #5D6263",
"`  c #496C77",
"'  c #4E727C",
"]  c #56737B",
"[  c #676766",
"{  c #6E7172",
"}  c #797979",
"|  c #854C02",
" . c #8C5201",
".. c #8C550A",
"X. c #925401",
"o. c #995902",
"O. c #A15C01",
"+. c #A85F00",
"@. c #84630B",
"#. c #9B6603",
"$. c #A56402",
"%. c #AD6600",
"&. c #B46A01",
"*. c #B96C00",
"=. c #BD7200",
"-. c #B87701",
";. c #8F4C3D",
":. c #C06E00",
">. c #C27400",
",. c #C67A01",
"<. c #C97D00",
"1. c #895045",
"2. c #88524A",
"3. c #955549",
"4. c #9A5C51",
"5. c #A25444",
"6. c #A85B4B",
"7. c #AC5E4F",
"8. c #91665B",
"9. c #AA6858",
"0. c #B76554",
"q. c #B76C59",
"w. c #BB6A5A",
"e. c #8E7168",
"r. c #A97867",
"t. c #B97563",
"y. c #B4776B",
"u. c #C16E5E",
"i. c #C97463",
"p. c #C77867",
"a. c #CD7C6A",
"s. c #D17E6B",
"d. c #B58208",
"f. c #CC8300",
"g. c #C98601",
"h. c #D18700",
"j. c #D38C00",
"k. c #D69400",
"l. c #D89706",
"z. c #D99901",
"x. c #D89E15",
"c. c #DAA017",
"v. c #DCA628",
"b. c #E3B139",
"n. c #B9944E",
"m. c #BF8977",
"M. c #E3B956",
"N. c #C9816D",
"B. c #DE9A64",
"V. c #CF8673",
"C. c #CC8976",
"Z. c #D38571",
"A. c #D88B77",
"S. c #D7967F",
"D. c #DB927D",
"F. c #C3A774",
"G. c #E6C474",
"H. c #6C4485",
"J. c #704789",
"K. c #754D8D",
"L. c #795192",
"P. c #4F7884",
"I. c #557A87",
"U. c #598694",
"Y. c #5B8997",
"T. c #5D8C99",
"R. c #618E9C",
"E. c #66939D",
"W. c #5F90A1",
"Q. c #6798A7",
"!. c #6BA4B6",
"~. c #6EA8B9",
"^. c #70A9BA",
"/. c #71AEC0",
"(. c #77B6C9",
"). c #7CBED2",
"_. c #7DC1D6",
"`. c #868484",
"'. c #979797",
"]. c #A79A95",
"[. c #A8A9A9",
"{. c #B8AFAD",
"}. c #B8B6B6",
"|. c #C99684",
" X c #DB9782",
".X c #DD9B85",
"XX c #E29B85",
"oX c #E39E87",
"OX c #DBA08D",
"+X c #D9A999",
"@X c #E6A58D",
"#X c #E9A78E",
"$X c #E9A88F",
"%X c #E1A592",
"&X c #E6A992",
"*X c #E8A991",
"=X c #D1B1A8",
"-X c #EACE93",
";X c #EFD9A6",
":X c #F0E0B7",
">X c #81C8DD",
",X c #FF84CDE3",
"<X c #FF87D1E7",
"1X c #FF88D4EB",
"2X c #89D4EB",
"3X c #FF8EDEF6",
"4X c #FF90DFF7",
"5X c #FF90E0F8",
"6X c #FF95E9FF",
"7X c #C7C8C8",
"8X c #D3CAC7",
"9X c #D9D8D7",
"0X c #EFE7D5",
"qX c #E6E6E6",
"wX c #F6F2E7",
"eX c #EEEFF2",
"rX c #F6F5F4",
"tX c #F7F8FA",
"yX c #FBFCFE",
/* pixels */
"5X5X5X4X5X5X5X4X5X5X5X4X5X5X4X5X5X5X4X5X5X5X5X5X5X5X5X3X4X5X5X6X5X5X5X6X5X4X4X4X4X5X5X5X5X5X5X5X4X5X5X4X5X5X5X5X5X5X4X5X5X4X5X5X",
"5X5X5X5X4X5X5X5X5X5X5X5X5X5X5X5X5X5X5X5X5X4X5X5X3X5X6X6X,XQ.T.W.R.W.R.W.T.Q.).6X6X5X5X4X4X5X5X5X5X5X5X5X5X5X5X4X5X5X5X5X5X5X5X5X",
"5X5X5X5X5X5X5X5X4X5X5X5X5X5X5X4X5X4X4X5X5X4X4X5X3X3X<X<XQ.4 % & & % & & % - U.,X<X1X5X5X4X5X5X5X5X5X5X5X5X5X5X5X3X5X5X5X5X5X3X5X",
"5X5X3X5X5X4X5X5X5X5X4X5X4X5X5X5X5X5X5X5X5X5X4X5X6X^./ I L %     . . . . . . M / U Q.5X5X4X3X5X5X5X5X4X5X5X3X5X5X5X5X5X5X5X5X5X5X",
"5X5X5X4X5X5X5X4X5X3X5X5X5X5X4X5X5X5X4X5X5X5X5X2X/.) % : u o . # p : . . O : o X . P ~.1X5X5X4X4X4X5X5X4X5X5X5X4X5X5X5X5X5X4X5X5X",
"5X5X5X5X5X5X5X5X5X5X5X4X5X5X5X5X5X5X5X5X5X5X6X_.I % ; 2.3.; . , 4.Q * . , b p # % O J !.5X3X5X5X5X5X5X5X5X5X5X5X5X5X3X5X5X5X5X5X",
"5X5X5X4X4X5X5X5X5X5X5X5X5X5X5X4X5X4X4X5X4X5X6X_.J ; 1.a.p.2.b 4.A.t.1.Q 3.6.a % .   % I Q.2X5X5X5X5X5X5X5X5X5X5X5X5X4X5X5X5X3X5X",
"5X4X5X5X5X5X4X5X5X5X5X5X4X5X5X5X5X5X5X4X4X4X1XQ.K h i.XXOXZ.i.a.OX Xs.i.a.a.Q * # % %   U <X6X5X3X5X5X5X3X5X5X5X5X5X5X5X5X5X5X5X",
"5X5X4X5X5X5X4X5X5X5X5X5X5X4X5X5X5X5X4X5X5X3XU.K h 3.i..X*XXXZ.s.=X=XXXXX@XXX9.f O % %   U <X6X3X5X5X4X5X5X5X5X4X5X5X5X5X5X5X5X5X",
"3X5X5X5X3X5X5X5X4X5X5X5X5X5X5X5X5X5X5X5X5X3X` ; 8.|.+XC.a. X%X=X7X8X=X%X$X@Xa.;.: . %   U 1X6X3X3X5X5X5X3X5X5X5X5X4X5X5X4X5X5X4X",
"5X5X5X5X5X5X5X5X5X5X5X5X5X5X3X5X5X4X5X4X5X3X` 7 '.9X9Xy.5.i.=XeXeX9X=X+X#X#XA.9.p . %   I ).3X5X5X3X5X5X5X5X5X5X5X3X5X5X5X5X5X5X",
"5X5X5X5X5X5X5X5X5X5X3X5X5X5X5X5X5X5X4X4X6X3X` 7 '.[.`.9.0.u.e.'.qXqX}.=X#X#X@XC.;.u % . - I ~.6X5X5X5X5X5X5X5X5X5X5X5X5X5X3X5X5X",
"5X5X5X4X5X5X3X5X5X5X5X5X5X5X5X5X4X4X4X5X2X^.^ d ].].e.y.Z.i.3.e.7X9X=X+X*X*X*X.X9.a & s c d ] /.2X5X5X5X3X5X5X5X5X5X5X4X5X5X5X5X",
"5X5X5X5X5X5X5X5X5X5X4X5X5X4X5X5X4X4X5X6X^.M a 5.|.%X.X.XA.i.u.p.{.=X&X@X*X@X@X@Xa.b ; r.C.q.v P _.6X5X5X5X5X5X5X3X5X5X5X5X5X5X4X",
"5X5X5X5X5X4X5X5X5X3X4X5X5X5X3X5X5X4X5X6X~.- i 5.a.A.A. Xa.7.0.a.+X+X*X*X*X*X*X.Xs.9.e.r.N.A.W j (.6X5X5X5X5X5X5X5X5X5X5X5X5X5X5X",
"5X5X5X4X5X5X5X5X5X5X5X5X5X5X5X5X5X5X3X>XR.s f 5.0.u.0.w.7.;.0.N.@X@X#X@X*X@X*X@XZ.Z.A.0.q..X! M ).6X5X5X4X5X5X5X5X5X5X5X5X5X3X5X",
"3X5X5X3X5X5X5X5X5X5X5X5X5X3X5X5X5X5X2XP.x h 5.0.5.;.;.;.6.u.V.@X@X*X*X@X*X*X@X@X@XN.6.7.s.OX! J (.6X5X5X5X5X5X5X5X5X5X5X5X5X5X5X",
"5X5X5X5X5X5X5X5X5X5X5X5X5X5X5X4X5X6X_.I : 5.p.Z.t.7.7.0.u.Z.@X*X*X@X*X*X@X*X@X@XA.N.t.V.N.8.[ Y._.6X5X5X3X5X5X5X3X5X3X5X5X5X3X5X",
"5X5X5X5X5X5X5X4X3X5X5X5X5X5X5X5X5X5X<XI p w.D.#X*XA.p.D.$X$X$X$X*X*X*X*X*X*X*X@XN.Z..XOXr.K Q.3X5X5X5X5X5X5X5X5X5X5X5X5X5X5X5X5X",
"5X5X5X4X3X5X5X5X5X5X5X4X5X5X5X5X5X6X<XI p w.XX*X$XA.a.D.$X$X$X$X@X*X*X@X*X*X*X@XD.N.9.Q _ Q._.5X5X5X5X5X5X5X5X5X5X5X5X5X5X5X5X5X",
"5X5X5X5X5X5X5X5X5X5X5X5X5X5X5X5X3X6X,XI i w.A..X#XD.Z.XX@X*X*X@X*X@X*X*X#X@X@X*X*XV.;.w U <X6X3X5X5X5X5X5X5X5X3X5X5X3X5X5X5X5X5X",
"5X4X5X5X5X5X5X5X5X5X5X5X5X5X5X5X3X6X,X^ p w.i.s.#X$X#X#X*X*X*X*X*X*X*X*X*X*X*X*X*XD.0.p U ,X6X3X3X5X5X5X5X5X5X5X5X5X5X5X5X3X5X5X",
"5X5X5X5X3X5X5X4X5X5X5X5X5X5X5X3X4X4X2X^.] W 9.XX$X*X*X*X*X*X@X*X*X*X*X@X@X*X*X@XB.N.5.w P ,X6X5X5X5X5X5X5X5X5X5X5X5X5X5X5X5X5X5X",
"5X3X5X5X5X5X5X5X3X5X5X5X5X4X5X5X4X4X4X6X!.6 ! |.|.|.S..X@X@X*X*X*X@X*X*X*X#X@XD.i.;.b V ' <X6X5X5X5X5X3X3X5X5X5X5X5X5X5X5X3X5X5X",
"5X5X5X5X5X5X5X3X5X5X5X5X5X5X5X5X4X4X5X6X!.4 * x ! 8.4.u.A.@X@X*X*X@X*X*X*X#XA.i.5.f , E.>X3X5X5X5X5X5X5X5X5X5X5X4X5X5X5X4X5X5X3X",
"5X5X5X5X5X5X5X5X5X5X5X5X5X5X4X5X5X4X5X5X_.I.5 O W 8.t.a.A.@X*X*X*X*X@XXXD.D.i.5.h w p ] ^.2X5X5X5X3X5X5X5X3X5X5X5X5X5X5X5X5X5X5X",
"5X4X4X5X5X5X5X5X5X5X5X5X5X5X3X5X5X5X5X5X5X2XP.s 4.p. X.X@X@X@X@X@X#XoXa.u.w.3.b u 9 t 8 ) <X5X5X4X5X4X5X5X5X5X4X5X5X5X5X5X5X5X5X",
"5X5X5X5X5X3X5X5X5X5X5X4X5X5X5X5X5X5X4X4X5X5X>XQ.T s W 4.w.Z.Z.A.Z.Z.s.0.;.d , w 0 l l X I 1X6X5X3X5X5X5X5X5X5X5X3X5X5X5X4X5X5X5X",
"5X5X5X5X5X5X4X5X3X5X5X5X5X3X5X5X4X5X4X5X5X4X_.Q.x + e f h 1.3.2.3.3.3.b a e e q | X.l 0 Y Q._.5X5X5X5X5X5X5X5X5X5X3X5X5X5X5X3X5X",
"3X5X4X5X3X5X5X5X5X5X5X5X5X5X5X4X5X5X5X5X5X3XI.: t o.$.r * ; ; ; - ; ; - r O.&.&.*.O.| l y 7 Q.3X5X5X5X5X3X5X5X5X5X5X5X4X5X5X5X5X",
"5X5X5X5X5X5X5X5X5X5X5X4X5X5X5X5X5X5X5X5X6X3X` +  .*.:...z ..z @.@.@.@.@.#.:.%.O.o.O.o.$. .0 Y U.<X6X5X3X5X5X5X5X5X5X5X5X4X5X5X5X",
"5X5X5X5X5X5X5X5X5X5X5X5X5X5X5X5X5X4X4X4X5X3XP.O ..%.&.:.,.j.z.k.k.j.g.g.,.&.o. . .$.,.,.-. .0 j !.<X3X5X5X5X4X5X5X5X5X5X5X5X5X5X",
"5X5X5X5X5X5X5X5X5X3X5X5X5X4X5X5X5X4X3X3X6X4X' O @ y  .%.>.,.,.,.>.%.o.X. . .O.-.g.g.k.k.f.&. .q j U.3X5X5X5X5X4X5X5X5X5X5X5X5X5X",
"5X5X4X5X5X5X4X5X5X5X5X5X5X5X5X5X5X3X3X6X_.W.L O r z $.,.<.<.<.<.<.-.$.$.#.o.O.%.g.k.z.z.k.f.*.| @ ` 5X5X5X5X5X5X5X5X5X5X4X5X4X5X",
"3X5X5X5X5X3X5X5X5X5X5X4X5X5X5X5X5X5X5X3X!.6 . @ o.g.x.c.x.k.z.z.x.x.x.z.h.=.X.| %.<.k.k.z.k.f.O.e ` ,X3X5X5X5X5X5X5X5X4X5X4X5X5X",
"5X5X5X5X5X5X5X5X5X5X5X5X5X4X5X5X5X5X2XU.x y + @ O.B.;X:XG.x.k.c.-X:X-Xb.k.>.l e | %.<.k.z.k.f.%.l x ) (.5X5X5X5X4X5X5X5X5X5X5X5X",
"5X5X5X5X5X5X5X5X5X4X5X5X5X5X5X5X5X6X<XI X t c ! n.-XtXyX0XM.b.G.0XyXrXn.#...r w 0 | %.<.k.k.j.>.o.0 - !.6X3X5X4X4X5X5X5X5X4X5X5X",
"5X5X5X4X5X4X3X5X5X5X5X5X5X5X5X5X5X5X,XU o O [ }.9XwXtXtXrXwX0XwXtXyXqX~ O @ q k @ 9 | &.f.k.k.j.>.l 4 !.6X5X5X5X5X5X5X5X5X5X5X5X",
"5X5X5X5X5X5X5X5X3X5X4X5X5X5X5X5X5X/.] e.! - { 7XwXrXyXyXyXyXyXyXyX7X} ! ! 8.v 9 z @.&.g.h.k.z.k.,.l 4 !.5X4X5X5X5X5X5X5X5X5X5X4X",
"5X5X3X5X5X5X5X5X5X5X5X5X5X5X5X5X6XU.> r.y., { 7XeXwX0X0X0XrXyXrX9X`.p ;.a.S.8.c ..-.k.z.z.z.k.j.*.l 4 !.6X4X4X5X5X5X5X5X3X5X5X5X",
"5X5X5X5X3X5X5X5X5X4X5X5X3X5X5X5X5XY.; 4.4.: { 7XqX;Xv.v.G.wXyX9X[ W 6.3.6.i.C.r.c z z.z.z.z.j.*.o.0 2 !.5X5X5X3X3X5X5X5X5X5X5X5X",
"5X5X5X5X5X5X5X5X5X5X5X5X5X5X5X5X5XY.- ;.1.- ! F.-XM.l.k.v.G.;XF.s g i.u.p.Z.#XS.7 y g.j.h.h.=.X.0 x I._.5X5X5X5X5X5X5X5X3X5X5X5X",
"5X5X5X4X5X5X5X5X5X5X5X3X5X5X5X5X5XT.- f h : z ,.l.l.z.k.z.l.z.d., g u.S.*X#X*Xm.7 q &.=.*.&.o.k , ] 3X5X5X5X5X5X5X5X5X4X5X5X5X5X",
"5X4X5X5X5X5X5X4X5X5X5X5X5X5X5X5X6XY.% O r ..-.j.k.z.z.l.k.z.z.d.+ p 6.D.*X*XXXq.u 9 X.o.l r + x R.>X5X5X5X5X5X5X5X5X5X5X5X4X5X5X",
"5X4X5X5X3X5X5X5X5X4X5X5X5X5X5X5X5X!.I 2 e +.<.j.j.j.j.j.j.j.l.-.k e h t.D.D.a.3.: @ q q 0 @ o J _.6X5X5X5X5X5X4X5X5X5X5X5X5X5X5X",
"5X5X5X5X5X5X5X5X5X5X5X5X5X5X5X5X4X3X_.I + l %.>.=.-.=.=.=.=.>.%.| e ; h 6.u.7.b ; % O O e k + J _.5X5X5X5X5X5X5X5X5X5X5X5X3X5X5X",
"5X5X5X5X5X5X5X5X5X5X5X3X4X5X5X4X4X6X1XI X w r y y y q k y y k q 9 @ . ; a g a u O . . . O 8 + J (.6X5X5X5X5X5X5X5X5X5X3X5X4X5X5X",
"3X5X5X5X3X5X5X4X5X5X5X5X5X5X4X5X3X6X<X' 4 & # = 3 1 1 3 1 1 1 3 6 1 < 1 < 1 1 1 1 < = < = #   J _.6X5X5X5X3X5X5X5X4X5X5X5X5X5X5X",
"5X5X5X5X5X5X5X5X5X5X5X5X5X5X5X5X5X5X3X>XT.> m S ( ( ( ( ( ( ( ( ( ( ( ( ( ( ( ( ( F S A Z N # J (.6X5X5X5X5X5X5X5X5X5X5X4X5X5X5X",
"5X5X5X5X5X5X4X5X5X3X5X4X3X5X5X5X5X3X5X6X~.- n G K.L.L.J.J.J.J.J.L.L.L.L.L.L.L.L.L.J.H H Z m T U.,X5X5X5X5X4X5X4X5X5X5X5X5X5X5X4X",
"3X5X5X4X5X5X5X5X5X5X5X5X5X5X5X5X5X5X5X6X^.J m C H.L.K.H.D D D G K.K.L.L.L.L.L.L.L.H.H F V = U.4X5X5X5X5X5X5X4X5X4X5X5X5X5X5X5X5X",
"5X5X5X5X5X5X3X5X5X5X5X5X5X4X5X5X5X5X5X5X<X~./ 3 F J.K.H D Z C Z H J.K.L.L.L.K.L.L.H.G Z n & Y.6X5X4X5X5X5X5X5X5X5X5X5X4X5X4X5X5X",
"5X5X4X5X5X5X5X5X5X5X3X5X5X5X5X5X5X5X3X3X5X3X' # V H J.H S N N C D H.K.K.L.K.L.L.K.H.D B m / ^.5X5X5X5X5X4X5X5X5X5X3X5X5X5X5X5X5X",
"5X5X5X5X3X5X4X5X5X5X5X5X4X5X5X3X5X5X5X3X6X3X' = B Z G G V = n B D ( K.K.L.K.L.J.( G S 3 I _.4X5X5X5X5X5X5X5X5X4X5X5X5X5X5X4X5X5X",
"5X5X4X5X5X5X5X5X5X5X5X5X5X5X5X5X5X5X5X5X5X3X(.I.M N Z D S m $ m C G H.H.H.H.H.H.H D C # I <X6X4X4X5X5X5X5X5X5X5X5X5X5X5X3X5X4X5X",
"5X5X5X5X5X5X5X5X5X5X5X4X5X5X5X5X5X5X5X5X3X5X6X(.J # N V V N $ # n B A S A A A A Z C n M P.<X5X5X5X5X5X4X5X4X5X5X5X5X5X5X5X5X5X5X",
"5X5X5X5X5X5X3X5X4X5X5X4X5X5X5X3X5X5X5X5X3X5X6X_.j   # & = & # & # # = = = = = - = # 4 R.,X3X5X5X5X3X5X5X5X5X5X3X5X5X3X5X5X5X5X5X",
"5X5X3X5X5X5X5X5X5X5X5X5X5X5X5X5X5X4X5X3X5X3X(.I.j V _ _ E 7 & & E { } [ _ E Y > 4 O 4 ^.6X4X4X5X5X5X5X5X5X5X5X5X3X5X5X5X5X5X5X5X",
"5X5X5X5X5X5X5X5X5X5X5X5X5X5X5X5X5X5X5X5X5X2X' - Y E.}.}.'.T 4 Y '.9XeX8X}.[.e.R E , > !.5X4X5X5X5X5X5X5X5X5X5X5X5X5X5X5X5X5X3X5X",
"5X5X4X5X5X5X5X4X3X5X5X5X4X5X5X5X5X5X5X5X6X3X` > m.8XqX9X'.s _ ].9XyXyXrXqX7X{.'._ > > !.6X4X5X4X5X5X5X5X3X5X5X5X5X5X5X5X5X5X5X5X",
"5X5X5X5X5X5X5X5X3X5X5X5X5X5X3X5X5X5X5X5X5X3XW.) ] '.}.'.[ & E '.[.}.}.}.[.`.`.E.Y K ) (.5X5X5X5X5X3X5X5X3X5X5X5X5X5X3X5X5X5X5X5X",
"5X4X5X5X5X5X5X5X5X5X5X4X5X5X5X5X5X5X3X5X4X4X3X/.L > 7 6 1 & - 6 7 7 6 7 6 4 , : - ' ,X5X5X5X5X5X5X5X5X5X5X5X5X5X5X5X5X5X5X3X5X5X",
"5X5X3X5X5X5X5X5X5X5X5X5X4X5X5X5X5X4X5X5X3X5X6X1XQ.U.T.T.W.W.W.T.T.Y.T.T.Y.Y.R.Y.T.(.6X5X5X3X5X5X5X3X5X5X5X5X5X5X5X5X5X5X5X5X5X5X",
"5X5X5X5X3X5X5X5X5X5X5X5X5X5X5X5X5X5X5X5X5X5X5X5X5X6X5X5X5X5X5X5X5X5X5X5X4X6X5X4X5X5X3X5X5X5X5X5X5X5X5X5X5X5X5X3X5X5X5X5X5X3X5X5X"
};
