/* XPM */
static char *result[] = {
/* columns rows colors chars-per-pixel */
"64 64 227 2 ",
"   c #161717",
".  c #1A1715",
"X  c #1D1D1D",
"o  c #211D1B",
"O  c #2C2115",
"+  c #23211E",
"@  c #2A231E",
"#  c #382A1B",
"$  c #1E1E22",
"%  c #211D23",
"&  c #301F3D",
"*  c #1F2021",
"=  c #212122",
"-  c #2B2523",
";  c #272728",
":  c #26292A",
">  c #2D2D2D",
",  c #332A22",
"<  c #372A27",
"1  c #322929",
"2  c #3B302D",
"3  c #2B2035",
"4  c #2A2C33",
"5  c #32293A",
"6  c #2F373A",
"7  c #313232",
"8  c #33373C",
"9  c #3B3A3B",
"0  c #422E18",
"q  c #44311C",
"w  c #543819",
"e  c #5B3D1B",
"r  c #422E29",
"t  c #463327",
"y  c #4A3E24",
"u  c #573F22",
"i  c #59382E",
"p  c #473934",
"a  c #573B34",
"s  c #653E32",
"d  c #6B451A",
"f  c #764917",
"g  c #7A4C16",
"h  c #7F5019",
"j  c #58422B",
"k  c #57453B",
"l  c #694A25",
"z  c #72512C",
"x  c #65453C",
"c  c #774538",
"v  c #321D44",
"b  c #362246",
"n  c #343A41",
"m  c #3E2256",
"M  c #3E3A54",
"N  c #423447",
"B  c #422A56",
"V  c #41235C",
"C  c #473656",
"Z  c #4A2B65",
"A  c #4E3564",
"S  c #53346D",
"D  c #54386C",
"F  c #593A73",
"G  c #5A3B74",
"H  c #39464B",
"J  c #424242",
"K  c #4A4947",
"L  c #4D4D4D",
"P  c #554C4B",
"I  c #45555A",
"U  c #525252",
"Y  c #5A5A5A",
"T  c #644E49",
"R  c #754E45",
"E  c #6A564B",
"W  c #7B544A",
"Q  c #685B57",
"!  c #7A635A",
"~  c #5A466C",
"^  c #475A61",
"/  c #63457C",
"(  c #50656D",
")  c #546B74",
"_  c #5A747E",
"`  c #666666",
"'  c #71696E",
"]  c #767777",
"[  c #84531B",
"{  c #8C581C",
"}  c #945E1E",
"|  c #A5671F",
" . c #885924",
".. c #935F23",
"X. c #834A3A",
"o. c #884D3D",
"O. c #9B6422",
"+. c #9B6A23",
"@. c #A46A25",
"#. c #AA6C24",
"$. c #B06E24",
"%. c #AC7326",
"&. c #B57327",
"*. c #B87927",
"=. c #BA7B29",
"-. c #8D5445",
";. c #8B584B",
":. c #925646",
">. c #945949",
",. c #9C5D4D",
"<. c #8C5D52",
"1. c #A05F50",
"2. c #9A614F",
"3. c #89665C",
"4. c #9B6456",
"5. c #A66656",
"6. c #A36659",
"7. c #AC6A5A",
"8. c #B46E5E",
"9. c #A7715F",
"0. c #97796C",
"q. c #AE6F61",
"w. c #B56F60",
"e. c #AA7665",
"r. c #B47262",
"t. c #BB7463",
"y. c #B97967",
"u. c #BD7C6A",
"i. c #C07766",
"p. c #C27C6B",
"a. c #BE822C",
"s. c #BD862C",
"d. c #B88A31",
"f. c #C0862D",
"g. c #C28B2E",
"h. c #C9942D",
"j. c #CA962D",
"k. c #C58E30",
"l. c #CA9532",
"z. c #C89534",
"x. c #CD9A34",
"c. c #D09D35",
"v. c #B8816E",
"b. c #AA8874",
"n. c #B98573",
"m. c #CB9D58",
"M. c #D2A74F",
"N. c #C3806F",
"B. c #C58371",
"V. c #C78976",
"C. c #CA8D7A",
"Z. c #C7927D",
"A. c #CC917D",
"S. c #D9B469",
"D. c #D9B46B",
"F. c #684A83",
"G. c #694D82",
"H. c #6F518A",
"J. c #71538C",
"K. c #5B7680",
"L. c #5E7A85",
"P. c #647D86",
"I. c #63808C",
"U. c #698996",
"Y. c #708D99",
"T. c #6E909E",
"R. c #FF7296A4",
"E. c #759AA9",
"W. c #7AA2B2",
"Q. c #7EA8B9",
"!. c #868787",
"~. c #989898",
"^. c #B69790",
"/. c #B3A28F",
"(. c #82AEBF",
"). c #ABABAC",
"_. c #B5ACAB",
"`. c #B2B2B2",
"'. c #BAB6B6",
"]. c #BDBDBD",
"[. c #C18C81",
"{. c #CA9684",
"}. c #D19682",
"|. c #D39B86",
" X c #D59D89",
".X c #D4A18B",
"XX c #D9A48F",
"oX c #DEBF81",
"OX c #FFCBAC95",
"+X c #DAA691",
"@X c #D8AB97",
"#X c #DDAA94",
"$X c #E1AD97",
"%X c #E7B29A",
"&X c #C5B4AC",
"*X c #CAB5AD",
"=X c #DFC185",
"-X c #DCC9B1",
";X c #E4CFA6",
":X c #E6D1A7",
">X c #E9D9BB",
",X c #FF85B2C4",
"<X c #FF88B6C8",
"1X c #8BBBCE",
"2X c #8DBED1",
"3X c #8FC0D3",
"4X c #92C5D9",
"5X c #FF95C9DE",
"6X c #BEC0C1",
"7X c #FF98CDE1",
"8X c #9DD4EA",
"9X c #FFA0D9EF",
"0X c #FFA4DEF5",
"qX c #FFA5E0F7",
"wX c #FFA6E2F9",
"eX c #A9E5FD",
"rX c #FFABE9FF",
"tX c #CDCBCA",
"yX c #D6D7D7",
"uX c #ECDEC2",
"iX c #EFE6D3",
"pX c #DEDFE0",
"aX c #E7E6E6",
"sX c #F2E9E2",
"dX c #F5F1EA",
"fX c #F6F6F5",
"gX c #F9FAFB",
/* pixels */
"0X0X0X0X0X0X0X0X0X0X0X0X0X0X0X0X0X0X0X0X0X0XqX0X0XqX7X<X<X<X<X<X<X<X<X<X4XqXqX0X0X0X0X0X0X0X0X0X0X0X0X0X0X0X0X0X0X0X0X0X0X0X0X0X",
"0X0X0X0X0X0X0X0X0X0X0X0X0XqX0X0X0X0X0X0X0X0X0XqXwXrXR.X = = = = = = = X _ rXeXwXqX0X0X0X0X0X0X0X0X0X0X0X0X0X0X0X0X0X0X0X0X0X0X0X",
"0X0X0X0X0X0X0X0X0X0X0X0X0X0X0X0X0X0X0XqX0XqXqXR.L.I.I * * * o % + * + X H I.L.U.8XqX0X0X0X0X0X0X0X0X0X0X0X0X0X0X0X0X0X0X0XqX0X0X",
"0X0X0X0X0X0X0X0X0X0X0X0X0X0X0X0X0X0X0XqX0X9X9XI . . X * + $ * X = * X = o X . 6 8X0X0X0X0X0X0X0X0X0X0X0X0X0X0X0X0X0X0X0X0X0X0X0X",
"0X0X0X0X0X0X0X0X0X0X0X0X0X0X0X0X0X0X0XqXwXW.n : * * r c # X X r c , X X r c , = n U.wX0X0X0X0X0X0X0X0X0X0X0X0X0X0X0X0X0X0X0X0X0X",
"0X0X0X0X0X0X0X0X0X0X0X0X0X0X0X0X0X0X0X8X3XI.. * + - k 2.a 2 2 x 2.a 2 2 x 2.a < . _ wX0X0X0X0X0X0X0X0X0XqX0X0X0X0X0X0X0X0X0X0X0X",
"0X0X0X0X0X0X0X0X0X0X0X0X0X0X0X0X0X0XqX5X: * * o - c 9.#Xp.t.8.V.#Xp.t.w.C.#XB.6.. K.rXqX0X0X0X0X0X0X0X0X0X0X0X0X0X0X0X0X0X0X0X0X",
"0X0X0X0X0X0X0X0X0X0X0X0X0X0X0X0X0X0XqX5X: * * o 1 >.u.#X|.[.^.{.C.[.A.C.C.C.9.>.i Y P.4X0X0X0X0X0X0X0X0X0X0X0X0X0X0X0X0X0X0X0X0X",
"0X0X0X0X0X0X0X0X0X0X0X0X0X0X0X0X0X0X0X5X: * * * 1 w.C.#X$X@X6X^.y. X#X#XA.i.:.-.-.i   Q.0X0X0X0X0X0X0X0X0X0X0X0X0X0X0X0X0X0X0X0X",
"0X0X0X0X0X0X0X0X0X0X0X0X0X0X0X0X0X0XqX5X: * * a -.|.+X#X&X6XaXdXsX}.t.:.^.aX&X^.7.R $ ,XwX0X0X0X0X0X0X0X0X0X0X0X0X0X0X0X0X0X0XqX",
"0X0X0X0X0X0X0X0X0X0X0XqX0X0X0X0XqXqX3XQ.; * * c >.XX#X#X&X6XfXaXyX[.w.-.^.yX6X_.u.R $ ,XwX0X0X0X0X0X0X0X0X0X0X0X0X0X0X0X0X0X0X0X",
"0X0X0X0X0X0X0X0X0X0X0X0X0X0X0X0XqXrXI     X X <.p.+X#X@X&X6XgX`.K 6.t.t.3.L ~.).i.R   ,XwX0X0X0X0X0X0X0X0X0X0XqX0X0X0X0X0X0X0X0X",
"0X0X0X0X0X0X0X0X0X0X0X0X0X0X0XwX<XK.Q R 3.P X <.p.+X#X+X@X*XyX_.<.q.t.A.n.0.OXOX6.x X ,XwX0X0X0X0X0X0X0X0X0X0X0X0X0X0X0X0X0X0X0X",
"0X0X0X0X0X0X0X0X0X0X0X0X0X0X0XwXT.  2.N.$X0.* <.p.+X#X#X$X@X'.^.t.y.u.#X$X$X@X|.-.i - ,X0X0X0X0X0X0X0X0X0X0X0X0X0X0X0X0X0X0X0X0X",
"0X0X0X0X0X0X0X0X0X0X0X0X0X0X0XwXR.  e..X>.9.{.u.p.+X#X#X+X#X@X{.w.>.:.u.p.p.p.t.X.:.6.N I 0X0X0X0X0X0X0X0X0X0X0X0X0X0X0X0X0X0X0X",
"0X0X0X0X0X0X0X0X0X0X0X0X0X0X0XeXR.  b.XX:.7.{.B.B.+X#X#X#X#X#X|.p.1.>.7.q.7.7.7.-.5.p.a 9 (.4X0X0X0X0X0X0X0X0X0X0X0X0X0X0X0X0X0X",
"0X0X0X0X0X0X0X0X0X0X0X0X0X0X0XwXR.. b.#Xi.5.X.V.#X#X#X#X#X#X#X+X#XN.8.X.X.X.X.-.w.V.#X,.c o K.eX0X0X0X0X0X0X0X0X0X0X0X0X0X0X0X0X",
"0X0X0X0X0X0X0X0X0X0X0X0X0X0X0XqX2XI.` 3.C.u.1.Z.$X#X#X#X#X#X#X#X#X}.C.v.q.2.r.v.A. X#Xr.;.X K.wX0X0X0X0X0X0X0X0XqX0X0X0X0X0X0X0X",
"0X0XqX0X0X0X0X0X0X0X0X0X0X0X0X0XwXeX^ > .XA.t.|.#X#X#X#X#X#X#X#X#X#X#X$X}.t. X$X#X#X#XB.6.X K.wX0X0X0XqX0X0X0X0X0X0X0X0X0X0X0X0X",
"0X0X0X0X0X0X0X0X0X0XqX0X0X0X0X0X0X0X5X,Xp k o.Z.#X#X#X#X#X#X#X#X#X#X#X#XA.t.|.#X#X#X#Xp.6.o K.wX0X0X0X0X0X0X0X0X0X0X0X0X0X0X0X0X",
"0X0X0X0X0X0X0X0X0X0X0X0X0X0X0X0X0X0X0X5X: t :.[.#X#X#X#X#X#X#X#X#X#X#X#X{.p..X#X#X+X|.p.6.o K.wX0X0X0X0X0X0X0X0X0X0X0X0X0X0X0X0X",
"0X0X0X0X0X0X0X0X0X0X0X0X0X0X0X0X0X0X0X5X: k i. X$X#X#X#X#X#X#X#X#X#X#X#X#X#X#X#X#XA.w.u.9.. _ wX0X0X0X0X0X0X0X0X0X0X0X0X0X0X0X0X",
"0X0X0X0X0X0X0X0X0X0X0X0X0X0X0X0X0X0X0X5X: a 1.u.C.#X#X#X#X#X#X#X#X#X#X#X#X#X#X#X#X XC.;.T I.,XqX0X0X0X0X0X0X0X0XqX0X0X0X0X0X0X0X",
"0X0X0X0X0X0X0X0X0X0X0X0X0X0X0X0X0X0X0X5X4 t X.5.y.+X+X#X#X#X#X#X#X#X#X#X@XXX+XXX@XXX@Xp 6 0XqX0X0X0X0X0X0X0X0X0X0X0X0X0X0X0X0X0X",
"0X0X0X0X0XqX0X0X0X0X0X0X0X0X0X0X0X0X0X9X5XU.@ c :.y.A.$X#X#X#X#X#X#XXXu.7.;.Q Q Q L 2 + 8 8X0X0X0X0X0X0X0X0X0X0X0X0X0X0X0X0X0X0X",
"qX0X0X0X0X0X0X0X0X0X0X0X0X0X0X0X0X0X0X9X<XP.# i c 5.u. X X X#X#X#X#X+XB.r.2.! Q Q p * H ( 0X0X0X0X0X0X0X0X0X0X0X0X0X0X0X0X0X0X0X",
"0X0X0X0X0X0X0X0X0X0X0X0X0X0X0X0X0X0X0X7X: # g # - X.,.i.t.u.#X#X#X#X#X#X$X$X%X#Xi.R   ,XwX0X0X0X0X0X0X0X0X0X0X0X0X0X0X0X0X0X0X0X",
"0X0X0X0X0X0X0X0X0X0X0X0X0X0X0X0X0X0X0X5X: 0 f e w t a x -.5.V.V.V.V.C.C.v.9.! E x p * ,XqX0X0X0XqX0X0X0X0X0X0X0X0X0X0X0X0X0X0X0X",
"0X0X0X0X0X0X0X0X0X0X0X0X0X0X0X0X0X0X0X3X: q g g d + X = s o.7.r.w.8.8.r.1.X., o X X + ,XqX0X0X0X0X0X0X0X0X0X0X0X0X0XqX0X0X0X0X0X",
"0X0X0X0X0X0X0X0X0X0X0X0X0X0X0X0X0XwX) 7 d d f O.#.@.@.@.t - 1 - ; 1 1 - - -  .O.f q $ <XeX0X0X0X0X0X0X0X0X0X0X0X0X0X0X0X0X0X0X0X",
"0X0X0X0X0X0X0X0X0X0X0X0X0X0X0X0X7X(.L # [ [ [ O.@.| #.&.l y y j y y y j y t O.#.{ e $ U.<X0X0X0X0X0X0X0X0X0X0X0X0X0X0X0X0X0X0X0X",
"0X0X0X0X0X0X0X0X0X0X0X0X0X0X0XrXE.  e g $.&.&.[ f f { &.l.x.x.x.c.x.x.x.g.&.&.&.=.l $ X 8 0XwX0X0X0X0X0X0X0X0X0X0X0X0X0X0X0X0X0X",
"0X0X0X0X0X0X0XqX0X0X0X0XqXqX8X_ U w [ O.g.g.d.*.%.O.} } +.+.a.s.a.a.a.a.%.{ {  .j e w d z ) W.wXqX0X0X0X0X0X0X0X0X0X0X0X0X0X0X0X",
"0X0X0X0X0X0X0X0X0X0X0X0X0X8X4X= 0 h #.=.x.x.x.x.l.=.O.g f h %.&.&.&.&.&.O.f g d - q g @.+.. ) 0X0X0X0X0X0X0X0X0X0X0X0X0X0X0X0X0X",
"0X0X0X0X0X0X0X0X0X0X0X0XqX) 7 d [ %.g.l.l.x.x.a.*.z.z.d.g.g.z.z.l.l.l.h.l.k.h.d.@.d + , , X : 6 1XwX0X0X0X0X0X0X0X0X0X0X0X0X0X0X",
"0X0X0X0X0X0X0X0X0X0X0XqXwXI + [ +.=.l.x.x.l.z.%.@.g.x.c.M.S.D.M.x.x.c.S.S.D.c.h.*.z X 2 p k p < Y.,X0X0X0X0X0X0X0X0X0X0X0X0X0X0X",
"0X0X0X0X0X0X0X0X0X0X0X0XwX^ @ #.a.x.x.x.c.g.&.[ h %.s.j.uXgXgX;Xh.j.M.fXfXfXS.g.&.d   4.B.#Xv.c - 8 0XwX0X0X0X0X0X0X0X0X0X0X0X0X",
"0X0X0X0X0X0X0X0X0X0XqX<X) k e #.=.x.x.x.s.%.{ z x Z.OX:XsXgXgXiX:X:X:XfXfXgX>X;X-X/.] T x 9.y.n.<.W ( W.0X0X0X0X0X0X0X0X0X0X0X0X",
"0X0X0X0X0X0X0X0X0XqXwXR.  e [ %.f.x.x.z.*.} g k Y ).tXgXgXfXgXgXgXgXgXgXgXfXgXgXgXpX`.k - X.e.%XV.6.. K.wX0X0X0X0X0X0X0X0X0X0X0X",
"0X0X0X0X0X0X0X0X0XqXwXR.X h &.l.x.x.=.%.h g g # + @ Y.gXgXgXgXgXgXfXfXgXgXgXgXfXgXpX`.H 2 |.XX#XB.4.o L.eX0X0X0X0X0X0X0X0X0X0X0X",
"0X0XqX0X0X0X0X0X0X0XeXE..  .=.x.x.x.a.*.{ g e k k p ' &XtX>XuXiXgXgXfXuX>XuXdXgXgXtX/.p 2 {. X|.r.2.. L.eX0X0X0X0X0X0X0X0X0X0X0X",
"0X0X0X0X0X0X0X0X0X0XqXE.X  .=.z.x.x.x.z.=.z   b.#Xp.W   ..=.j.=XgXgXsXx.x.x.iXgXgX;X$.q < t.t.t.:.c . K.wX0X0X0X0X0X0X0X0X0X0X0X",
"0X0X0X0X0X0X0X0X0X0XeXE.. d O.=.k.x.x.k.j c 0.v.B.,.;.;.l l k.M.=X=XD.c.x.x.D.oX=Xm.$.q , >.,.,.a p T.<XwX0X0X0X0X0X0X0X0X0X0X0X",
"0X0X0X0X0X0X0X0X0X0XqXE.: e f #.=.z.x.d.+ E %XB.8.o.,.i.p - z.l.h.l.x.c.x.x.j.j.j.g.*.q , c c c 7 H 0X0X0X0X0X0XwX0X0X0X0X0X0X0X",
"0X0X0X0X0X0X0X0X0X0X0X8X5XI O g } =.*.#.+ E $X+XXX.XZ.t.p , z.x.x.x.x.x.x.x.x.x.x.l.x.&.O.- - - (.7X0X0X0X0X0X0X0X0X0X0X0X0X0X0X",
"0X0X0X0X0X0X0X0X0X0X0X0XqXI.I e d  .O.} + T .X+X#X$XZ.5.p , s.k.k.k.k.k.k.k.g.h.k.h.g.%.{ * 6 I 2X0X0X0X0X0X0X0X0X0X0X0X0X0X0X0X",
"0X0X0X0X0X0X0X0X0X0X0X0X0XqX7X= X . e d - a t. X#X$Xn.X., @ %.&.&.&.&.&.&.&.&.&.&.&.&.[ d . _ eX0X0X0X0X0X0X0X0X0X0X0X0X0X0X0X0X",
"0X0X0X0X0X0X0X0X0X0X0X0X0X0X9XE.R.E.P # X y ,.u.B.9.;.r - @ u j j e j e j u u u j e j 0 p T.<XqX0X0X0X0X0X0X0X0X0X0X0X0X0X0X0X0X",
"0X0X0X0X0X0X0X0X0XqX0X0X0X0X0XwXwXwX^ X $ r X.5.5.X.i $ - - $ $ : = = $ $ $ = * $ $ $ = H 0XqX0X0X0X0X0X0X0X0X0X0X0X0X0X0X0X0X0X",
"0X0X0X0X0X0X0X0X0X0X0X0X0X0X0X0X0X0X^ % m b @ - - @ N G.G./ G.G.F.G.F.S D D D S m 3 X W.7X0X0X0X0X0X0X0X0X0X0X0X0X0X0X0X0X0X0X0X",
"0X0XqX0X0X0X0X0X0X0X0X0X0X0X0X0X0X0XI % V m 3 5 5 n C J.J.J.J.H.F.F.G S S S F D b M ^ 3XqX0X0X0X0X0X0X0X0X0X0X0X0X0X0X0X0X0X0X0X",
"0X0X0X0X0X0X0X0X0X0X0X0X0X0X0X0X0X0XI $ V Z G G / J.J.J.J.J.J.F.S Z V V m Z D A $ K.eX0X0X0X0X0X0X0X0X0X0X0X0X0X0X0X0X0X0X0X0X0X",
"0X0X0X0X0X0X0X0X0X0X0X0X0X0X0X0X0X0X,XY.5 b Z S G / F.J.J.J.J.J.F.S S S m 3 5 5 . _ wX0X9XqXqX0X0X0X0X0X0X0X0X0X0X0X0X0X0X0X0X0X",
"0X0X0X0X0X0X0X0X0X0X0X0X0X0X0X0X0X0X9X2X: 3 V A S F / J.H.J.J.J.J./ F F C : > > ; _ 8X0X0X0X0X0X0X0X0X0X0X0X0X0X0X0X0X0X0X0X0X0X",
"0X0X0X0X0X0X0X0X0X0X0X0X0X0X0X0X0XwX( > V b $ % & V Z G G G J.J.H.H.F.$ Y ).yXpX`.] 4 <XqXqX0X0X0X0X0X0X0X0X0X0X0X0X0X0X0X0X0X0X",
"0X0X0X0X0X0X0X0X0X0X0X0X0X0X0X0X4XW.I > b v 3 3 & & B S F G G.G.J.~ ~ L !.tXtX].~.` . ,XqX0X0X0X0X0X0X0X0X0X0X0X0X0X0X0X0X0X0X0X",
"0X0X0X0X0X0X0X0X0X0X0X0X0X0XqXwXR.. J L + 3 Z V m $ 3 Z S F F F.J.5 > `.yXgX] L U 9 X ,XwXqX0X0X0X0X0X0X0X0X0X0X0X0X0X0X0X0X0X0X",
"0X0X0X0X0X0X0X0X0X0X0X0X0X0XqXwXR.X J L n 9 3 b m v & 3 B Z F C n ' ~.pX].!.Y L U 9 X (.qXqX0X0X0X0X0X0X0X0X0X0X0X0X0X0X0X0X0X0X",
"0X0X0X0X0X0X0X0X0X0X0X0X0X0X0XwXR.. J U U J 1 B Z Z b X b Z G C : ~.tXaX).L L U L N > ,XqX0X0X0XwX0X0X0X0X0X0X0X0X0X0X0X0X0X0X0X",
"0X0X0X0X0X0X0X0X0X0X0X0X0X0XqXwXR.. H U L ] ).`.~.U 9 $ % % m H.).'.).` Y L L L . ) 8X0XqXqX0X0X0X0X0X0X0X0X0X0X0X0X0X0X0X0X0X0X",
"0X0X0X0X0X0X0X0X0X0X0X0X0X0X0XqXQ.^ L J U ` ~.`.`.] Y > - % v ' 6X~.!.U L U J J I R.wX0X0X0X0X0X0X0X0X0X0X0X0X0X0X0X0X0X0X0X0X0X",
"0X0X0X0X0X0X0X0X0X0X0X0X0X0X0X0XqXwXH = L U L ~.6X6X~.U > X   Y 6X' L U L L ; 8 0X0X0X0X0X0X0X0X0X0X0X0X0X0X0X0X0X0X0X0X0X0X0X0X",
"0X0X0X0X0X0XqX0X0X0X0X0X0X0X0X0X0X0X,XT.7 7 > K Y U N > I.E.W.I.U 9 1 7 7 7 I.(.0X0X0X0X0X0X0X0X0X0X0X0X0X0X0X0X0X0X0X0X0X0X0X0X",
"0XqX0X0X0X0X0X0X0X0X0X0X0X0X0X0X0X0XwX7X: * X X X . X X (.rXeXT.  X X $ X o ,XwX0X0X0X0X0X0X0X0X0X0X0X0X0X0X0X0X0X0X0X0X0X0X0X0X"
};
