/* XPM */
static char *result[] = {
/* columns rows colors chars-per-pixel */
"64 64 207 2 ",
"   c #1A1615",
".  c #1D1D1D",
"X  c #201F1F",
"o  c #23211D",
"O  c #362817",
"+  c #3C2B1A",
"@  c #3E3219",
"#  c #1F1F20",
"$  c #2B1C38",
"%  c #1E2729",
"&  c #202020",
"*  c #2B2525",
"=  c #26252A",
"-  c #2A262C",
";  c #282B29",
":  c #2B2C2D",
">  c #342522",
",  c #312927",
"<  c #362A27",
"1  c #3A332C",
"2  c #2B2832",
"3  c #312637",
"4  c #33223D",
"5  c #2D3334",
"6  c #2E3638",
"7  c #343334",
"8  c #303739",
"9  c #393A3A",
"0  c #5A380B",
"q  c #432C19",
"w  c #473417",
"e  c #523614",
"r  c #663C06",
"t  c #613F15",
"y  c #4D2E27",
"u  c #4F2E28",
"i  c #552F28",
"p  c #483527",
"a  c #563429",
"s  c #48303B",
"d  c #563834",
"f  c #6F3B2F",
"g  c #643D37",
"h  c #5C4015",
"j  c #6E4104",
"k  c #774808",
"l  c #71510A",
"z  c #764714",
"x  c #5B4823",
"c  c #58403E",
"v  c #69413A",
"b  c #77473B",
"n  c #705F33",
"m  c #391D4A",
"M  c #342444",
"N  c #303F43",
"B  c #3D2850",
"V  c #451F5C",
"C  c #402B41",
"Z  c #442456",
"A  c #4A2D5B",
"S  c #4C305D",
"D  c #4B2363",
"F  c #502769",
"G  c #4C3061",
"H  c #533269",
"J  c #5B3274",
"K  c #5F3878",
"L  c #61377B",
"P  c #62397B",
"I  c #374246",
"U  c #374C52",
"Y  c #3D535A",
"T  c #3B5A61",
"R  c #474949",
"E  c #5C4242",
"W  c #4B5B5B",
"Q  c #565658",
"!  c #78524E",
"~  c #415961",
"^  c #4B5D63",
"/  c #456069",
"(  c #48656D",
")  c #4D717D",
"_  c #52737C",
"`  c #58787E",
"'  c #696969",
"]  c #687173",
"[  c #767574",
"{  c #844B01",
"}  c #8E5600",
"|  c #80500A",
" . c #925301",
".. c #9C5C04",
"X. c #8D501A",
"o. c #A15D01",
"O. c #AA6702",
"+. c #B26A01",
"@. c #BA6D00",
"#. c #B97802",
"$. c #B47012",
"%. c #8B4D2F",
"&. c #9A5427",
"*. c #944F3F",
"=. c #9B792B",
"-. c #C16F00",
";. c #C27200",
":. c #C67900",
">. c #CB7E02",
",. c #824C42",
"<. c #8B5042",
"1. c #86564C",
"2. c #9A594A",
"3. c #A95C49",
"4. c #A46758",
"5. c #B9695A",
"6. c #AC7D6C",
"7. c #B17364",
"8. c #C4705E",
"9. c #C57463",
"0. c #C87764",
"q. c #B78204",
"w. c #C58300",
"e. c #CB8200",
"r. c #C78900",
"t. c #CB8A02",
"y. c #D18B00",
"u. c #D69500",
"i. c #D89600",
"p. c #D79803",
"a. c #D99901",
"s. c #D99C0D",
"d. c #D79D1A",
"f. c #DBA117",
"g. c #CD9A26",
"h. c #DDA626",
"j. c #CFA236",
"k. c #DBAA35",
"l. c #BF9848",
"z. c #85837C",
"x. c #D3AC4E",
"c. c #E1B346",
"v. c #E1B54C",
"b. c #E3BA57",
"n. c #CB806B",
"m. c #C68874",
"M. c #D48D77",
"N. c #D9927C",
"B. c #C5A968",
"V. c #D2B268",
"C. c #E5C16B",
"Z. c #E7C577",
"A. c #683E82",
"S. c #704987",
"D. c #4E7581",
"F. c #5B7983",
"G. c #588693",
"H. c #5C8A97",
"J. c #5C8B99",
"K. c #62919F",
"L. c #6394A2",
"P. c #6699A8",
"I. c #6AA3B4",
"U. c #6FA7B8",
"Y. c #6FA9BB",
"T. c #72A7B6",
"R. c #75B2C4",
"E. c #78B8CB",
"W. c #7DBFD3",
"Q. c #7EC3D7",
"!. c #7FC4DA",
"~. c #868685",
"^. c #918E8D",
"/. c #969594",
"(. c #9B9A9A",
"). c #A19381",
"_. c gray63",
"`. c #BFB9AA",
"'. c gray72",
"]. c #DE9781",
"[. c #E49B85",
"{. c #D0C29F",
"}. c #EBD194",
"|. c #EDD8A5",
" X c #EFDEB6",
".X c #82C8DE",
"XX c #BDC0C6",
"oX c #FF85CDE3",
"OX c #FF88D5EA",
"+X c #FF8FDEF6",
"@X c #FF90DFF7",
"#X c #FF90E0F8",
"$X c #FF96E9FF",
"%X c #99F0FF",
"&X c #C6C7C8",
"*X c #DCD6C9",
"=X c #DBDBDB",
"-X c #F2E5C9",
";X c #EFE7D4",
":X c #F3EAD5",
">X c #DBDDE1",
",X c #E6E6E5",
"<X c #F5EFE1",
"1X c #F5F1E7",
"2X c #EAEEF3",
"3X c #F6F6F5",
"4X c #F9FBFE",
/* pixels */
"#X#X@X#X#X@X#X#X@X#X#X#X@X#X#X#X+X#X#X#X#X#X#X#X#X#X#X#X+X@X@X+X+X@X#X#X@X+X@X#X#X#X@X#X#X#X#X#X#X#X#X#X#X#X#X@X@X@X#X#X#X#X#X#X",
"#X#X#X#X#X#X#X#X#X#X#X#X#X#X#X#X#X#X#X#X#X#X#X#X#X+X#X#X$X$X$X$X#X$X#X$X$X+X@X#X#X#X#X#X#X#X#X#X#X#X#X#X#X#X+X@X@X#X#X#X#X#X#X#X",
"@X@X@X@X@X#X#X@X#X#X#X@X#X#X#X#X#X#X#X#X#X+X+X#X+X+X#XOXoXoXoXOXoXOXoXoXOX+X#X@X@X@X@X@X#X#X#X#X#X#X#X+X#X#X#X#X#X#X#X#X#X+X#X#X",
"@X@X@X@X#X#X#X#X@X#X#X#X#X#X#X#X#X#X#X#X@X#X+X#X#X$X+XG.Y / Y Y T ~ ~ Y G.OX$X$X#X@X@X@X#X#X#X#X#X#X#X#X+X#X#X#X#X#X#X#X#X#X#X#X",
"#X#X#X#X#X#X#X#X#X#X#X#X#X#X#X#X#X#X#X+X#X#X#X+XR.U.P.I   .   .   .     I P.U.R.+X$X+X@X#X#X#X#X#X#X#X#X#X#X#X#X#X#X#X#X#X#X#X#X",
"@X#X@X#X#X@X#X@X+X#X#X#X#X#X#X#X#X#X#X#X#X#X#XE.Y : : = . . # # # # # # = 5 : U E.#X+X+X+X#X#X#X#X+X#X#X+X#X#X+X#X+X#X#X#X#X#X+X",
"#X#X@X#X#X@X#X#X#X#X+X#X#X#X#X#X#X#X#X#X#X+XI./ ;     # # & & & o # # # . .   = / I.#X#X#X#X#X#X#X#X#X+X#X#X#X#X#X#X#X#X#X#X#X#X",
"#X#X#X#X#X#X#X#X#X#X#X#X#X#X#X+X#X#X#X#X#X+X_ . . . & & # & & # & & # # # # # . . ) +X#X#X+X#X#X#X#X#X#X#X#X#X#X#X#X#X#X+X#X#X#X",
"#X#X#X#X@X+X#X#X#X#X#X#X#X#X#X+X#X#X@X@X$X+X) . # # & & & & & & & & & & & & & . . _ +X#X#X#X#X#X#X#X#X#X#X#X#X#X+X#X#X#X#X#X#X#X",
"#X#X#X#X@X#X#X#X#X#X+X#X#X#X@X@X@X@X#X#X!.K.U # . & & & & # & & & # & & . & & . . U L..X#X#X#X#X+X#X#X#X#X#X#X#X#X#X@X@X#X#X#X#X",
"#X#X#X#X@X#X#X#X+X#X#X#X#X#X@X@X@X@X@X$XY.6 . . # & & # & & # & & # # & & & & & & . 6 U.$X#X#X#X#X#X+X#X#X#X#X#X#X#X#X@X#X#X#X#X",
"+X#X#X#X#X#X#X+X#X#X#X#X#X#X#X#X@X@X@X$XI.5   # & & & & & # # # & & & & & & & . &   : I.#X#X#X@X#X#X#X#X#X#X#X#X#X#X+X@X#X#X#X#X",
"#X#X#X#X#X#X#X#X#X#X+X#X#X#X#X#X#X+X#X$XY.5   & # & & & & # & # & & & # & & & & &   5 I.$X#X#X@X#X#X+X#X@X#X@X#X#X#X+X#X#X#X+X#X",
"#X#X#X#X#X#X#X#X#X#X#X#X#X#X#X#X#X#X+X#XI.5   & o # # & & & & o # & & & & & & & & . 5 I.#X#X#X#X#X#X#X#X@X@X#X#X#X#X#X#X#X#X#X#X",
"#X#X+X#X#X+X#X#X#X#X#X#X#X+X#X#X#X$X+XL.Y % . # & # & & & # # & & & & & & & & & & . ; Y L.+X#X@X+X+X#X#X#X+X#X#X#X#X#X#X#X+X#X#X",
"#X#X#X#X#X#X#X#X#X+X#X#X#X#X#X#X#XOXY.W > o # & & & & & & & & & & & # & # & & # & # # O W R.OX@X@X#X#X#X#X#X#X#X#X+X#X#X#X#X#X#X",
"#X+X#X#X#X#X#X#X#X@X#X#X@X#X#X#X#XI.R 1.! * . o # & & # & & # & # o & & # & # & X . o ! 1.R P.#X#X#X#X#X#X#X#X#X#X#X#X+X#X#X#X#X",
"#X#X#X@X#X#X#X#X#X#X#X#X#X#X#X#X#XG.* 4.4.< . & & & & & # & & & # & # & & & & & X . < 7.4.: H.#X#X#X#X@X#X#X#X+X#X#X#X#X#X#X#X#X",
"#X#X#X@X#X#X#X#X@X#X#X@X#X#X#X#X#XJ.5 6.m., . # # # # & & # o # # & & # & & # & X   , 6.6.7 H.#X#X#X#X#X#X#X#X#X#X+X#X#X#X#X+X#X",
"#X#X+X@X#X#X#X#X#X#X#X#X@X#X#X#X#XG., 4.4.; . # o & & & & & # # & # & & & # # o # . * 4.4., G.#X#X#X#X#X+X#X#X#X#X#X#X#X#X#X#X#X",
"+X#X#X#X+X#X#X#X#X#X@X#X#X#X#X#X#XI.^ ! v @ o . # # # # & & & & & & & & & & & # # o w b ! / U.#X#X#X#X#X#X#X#X#X#X#X@X@X#X#X#X#X",
"@X#X#X#X#X#X#X#X#X#X#X#X#X#X#X@X#X+XQ.~ q j w o # # # # & & & & & # # & & & # # # w j q W Q.@X#X#X#X#X#X#X#X#X+X#X#X#X@X+X#X#X#X",
"@X@X#X#X#X#X#X+X#X@X@X#X@X#X+X@X$X%XoXT q &.%.y * . # # & & & & # # & & & . # # y %.&.y Y OX%X#X#X#X#X#X+X#X#X#X#X#X+X@X#X#X#X+X",
"#X#X+X#X#X#X#X#X#X#X#X#X@X#X+X+XQ.W.R.U d 5.5.*.p o # # # . . . # # # # # . & y <.5.5.a U T..X.X+X#X#X#X#X#X#X#X#X#X#X#X#X#X#X#X",
"#X#X#X#X#X#X#X#X#X#X#X#X+X#X$X!.~ N I % d 5.M.m.<.a & # o . X . # # . . . . y <.m.N.8.d = N N / !.$X#X#X#X#X#X#X#X#X#X#X#X#X#X#X",
"#X#X#X#X#X#X+X#X#X#X@X+X#X+XR.F.d a g v b ,.7.N.0.2.v v d y y y y p p v v v 2.0.N.7.,.g g g i d F.R.+X#X#X#X#X#X#X#X+X#X#X#X#X+X",
"#X#X#X#X#X#X#X#X#X#X@X#X#X+X) < g 2.5.5.<.1 b 9.N.M.9.9.5.2.*.*.*.*.*.5.9.9.N.].9.! < <.8.8.2.f ; D.+X#X#X#X#X#X#X#X#X#X#X#X#X#X",
"#X#X#X#X#X+X#X#X#X#X+X#X$X#X)   > E ! E a 0 i d 2.n.[.[.N.M.M.M.M.M.M.N.[.[.m.2.g e 0 i C ! c < . ) #X#X#X#X#X#X#X#X#X#X+X#X#X#X",
"#X+X#X#X#X#X#X#X#X#X#X#XoXY.W @ w x n x 0 k 0 q g 1.6.m.M.[.[.[.[.[.].M.m.6.1.a q 0 k r x n x w + W T.oX#X#X#X#X#X#X#X#X#X#X#X#X",
"#X#X#X#X@X+X#X#X#X#X#X$XY.I e { O.:.t.#.o.{ { r + * p b 3.8.0.0.9.0.8.3.b 1 * q r k { o.#.r.:.O.{ e I Y.#X#X#X#X#X#X#X@X#X#X#X#X",
"#X#X#X#X@X#X#X#X#X#X#X$XI.: 0 +.>.u.i.>.O.{  .o.| k k z X.%.&.&.&.&.&.X.z k k | o. .{ O.>.u.u.e.+.r : I.$X#X#X#X#X#X@X@X#X#X+X#X",
"#X#X#X+X#X#X#X#X#X+X#X#XI.5 k :.u.u.u.e.+. .o.-.;.;.@...} }  .}  . .}  .o.@.;.;.-.o. .+.e.u.a.u.:.k 5 I.#X#X#X#X#X#X@X+X#X#X#X#X",
"#X#X#X#X#X+X#X#X#X+X+X$XI.5 k :.u.a.u.u.e.@.@.;.-.-.;.w.r.r.r.r.r.r.r.r.w.;.-.-.-.@.+.e.u.u.a.i.:.k 5 I.$X#X#X#X#X#X#X#X#X#X#X#X",
"#X#X#X+X#X#X#X#X#X#X#X$XI.; 0 +.t.a.a.a.y.r.>.e.e.:.;.e.y.e.y.y.y.t.y.y.e.e.e.e.w.e.e.u.a.a.a.t.+.r : I.#X#X#X#X#X#X+X#X#X#X#X+X",
"#X#X#X#X#X#X#X#X#X#X#X#XY.I e } r.i.a.a.a.u.u.u.u.e.;.;.;.;.:.;.;.;.;.;.>.u.u.u.a.u.a.p.a.u.a.r.} e I Y.$X#X#X#X#X#X#X#X#X#X#X#X",
"#X#X#X#X#X#X#X#X#X#X#X#XOXU.W e +.y.u.a.a.a.a.a.a.u.y.y.y.y.y.y.y.y.y.y.y.u.a.a.a.a.a.a.a.u.y.+.e W Y.oX#X#X#X#X#X#X#X#X+X#X#X#X",
"+X#X#X#X#X#X#X#X#X#X+X+X$X+X) O  .w.i.a.i.a.i.i.u.a.a.a.a.a.a.a.a.a.a.a.a.a.u.u.p.p.p.a.a.a.w.} O ) @X#X@X@X@X#X#X+X#X#X#X#X#X#X",
"#X#X#X#X#X#X+X#X#X#X#X+X#X+XD.o j O.u.p.a.i.a.a.p.s.a.a.i.i.a.p.p.a.a.a.a.p.s.p.p.p.p.p.a.a.O.j O ) +X#X@X#X#X#X#X#X#X#X#X#X+X#X",
"#X#X#X#X#X#X+X#X#X#X#X#X#X+XR.F.x j O.l.B.B.g.f.C.{.B.d.u.i.v.}.}.v.p.u.h.Z.}.Z.f.g.B.B.l.O.j p _ E.+X@X#X#X#X#X#X#X#X#X#X#X#X#X",
"#X+X#X#X#X#X#X#X#X#X#X#X#X#X$X!.T p z ).XX&XV.b.-X,XXXx.h.k.|.4X4X|.k.h.C.1X4X:Xb.V.XXXX).z w / !.$X+X+X#X#X#X@X#X#X#X+X#X#X#X#X",
"#X#X#X#X@X#X+X#X#X#X#X#X#X#X#X+X!.D.1 ~.&X,X:X:X3X3X,X:X-X-X1X4X3X1X-X-X:X3X4X3X;X:X,X&X~.1 ` !.+X#X#X+X+X#X#X#X#X#X#X#X#X+X#X#X",
"#X#X#X#X#X#X#X#X#X@X@X#X#X#X#X#X$XJ.6 ~.&X,X3X4X4X4X4X4X4X4X4X4X4X4X4X4X4X4X4X4X4X2X,X&X~.5 H.$X#X#X#X#X#X#X#X#X#X+X#X#X#X#X#X#X",
"#X+X#X#X@X#X#X#X#X#X#X#X#X#X#X@X#XH.6 z.`.`.*X1X<X<X<X3X3X3X1X:X<X3X3X3X3X<X<X<X1X*X`.`.z.7 H.$X@X#X#X+X#X#X+X#X#X#X#X#X@X@X#X#X",
"#X#X#X#X#X#X#X#X#X#X@X#X#X#X#X#X#XJ., =.k.j.x.v.v.v.b.-X4X4X|.c.c.}.4X4X-Xb.c.v.v.x.j.k.=., H.#X@X#X#X#X#X#X#X#X#X#X#X+X@X+X#X#X",
"#X#X#X@X+X#X#X#X#X#X#X#X@X@X@X$X@XJ.O l #.t.a.a.u.u.s.Z. X|.v.u.u.c.|. XZ.s.u.u.a.u.t.q.l , J.#X#X#X#X#X#X#X#X#X#X#X#X#X@X#X#X#X",
"#X+X#X#X#X#X#X#X@X#X#X@X@X@X@X#X$XJ.% o h O.t.u.p.s.p.s.f.s.s.a.u.s.f.f.f.p.p.p.u.y.@.h o ; K.#X#X#X#X#X+X#X#X#X#X#X#X#X@X@X#X#X",
"#X#X#X#X#X#X#X#X#X#X#X#X@X#X#X#X@XJ.= M s t X.$.t.y.a.a.a.p.a.a.a.u.u.u.a.a.u.e.$.X.t C 3 = H.#X#X@X@X#X#X#X#X#X#X#X#X#X#X#X#X#X",
"#X#X#X#X#X+X#X#X#X@X#X#X@X#X@X#X@XJ.- A H 3 d %...+.q.q.w.y.y.u.u.u.u.y.y.r.@...%.u 4 H A - H.#X#X#X#X#X#X#X#X+X#X#X#X#X#X#X#X#X",
"#X@X#X+X#X#X#X#X#X#X#X+X#X#X#X#X#XJ.- A P H s * + @ w @ l @.:.>.:.:.:.:.@. .h + > C H K A - K.#X#X#X#X#X#X#X#X#X#X#X#X#X#X#X#X#X",
"#X#X#X#X#X#X#X@X#X+X#X@X#X#X#X#X#XJ.- Z J P S 4 $ M B B s z k k k z k k j 0 < $ M A L J Z ; H.#X#X#X#X#X#X#X#X#X#X#X#X#X+X#X#X#X",
"#X#X#X#X#X#X#X#X#X#X#X#X#X#X#X#X$XH.= m F J K J D A.S.P A - & & * & = * - * m D J K J F m * H.#X#X#X#X#X#X#X#X#X#X#X+X#X#X#X#X#X",
"#X#X#X#X+X#X#X#X#X#X#X#X#X#X#X#X#XJ.& m D F J L J ^ A.A.H B $   . 2 m A G G H K P J F D m = H.#X#X#X#X#X#X#X#X@X#X#X#X#X#X#X#X+X",
"@X#X#X#X#X#X#X#X@X#X#X#X#X#X#X#X#XK.7 M m m Z A D A B G D V m 2 $ m V A A A A A A Z m m 3 7 L.#X#X#X#X#X#X#X#X#X#X#X#X#X#X#X#X#X",
"#X+X+X#X#X#X#X#X#X#X#X#X#X#X#X#X#XT.R < = & * : - - 2 % M V V V Z V V 4 ; ; - - ; = = # : R T.#X#X#X#X#X#X#X#X#X#X#X#X#X#X+X#X#X",
"#X#X#X#X#X@X#X#X#X#X#X#X#X#X#X#X#XP.9 7 8 9 Q [ [ ~./.6.W 4 $ 4 4 $ 4 Q z./.~.[ [ Q 9 9 9 9 L.$X#X#X#X#X#X#X#X@X#X#X#X#X@X@X#X#X",
"#X#X#X#X#X#X#X+X+X#X#X#X#X#X#X#X#XG.; s Q ' /.'.XX>X3X=X(.R ; . . ; R (.=X3X>X&X'.^.' Q s ; H.#X#X#X#X#X#X#X#X#X#X#X#X@X#X@X+X#X",
"#X#X#X#X#X#X#X+X#X#X#X#X#X#X#X#X#XJ.= 9 ] _.'.&X,X3X4X3X=X_.Q   . Q _.=X3X4X3X,X&X'.(.' s ; H.#X#X#X#X#X+X#X#X#X#X#X#X+X#X#X#X#X",
"#X#X#X#X#X#X#X#X#X#X#X#X#X#X#X#X#XR.) I R [ [ [ ^./././.^.[ ` D.) ] [ ^././.(.^.[ ] ' R I _ R.#X#X#X#X#X@X#X#X#X#X#X#X#X#X#X#X#X",
"#X+X#X#X#X#X#X#X#X#X@X+X#X#X#X#X@X#XoX( * 7 5 5 8 8 7 6 5 8 L.+X+XL.8 5 6 6 8 8 6 6 5 5 ( oX#X#X#X#X#X#X@X#X#X#X#X#X#X#X#X#X+X#X",
"#X#X+X#X@X#X@X#X#X#X#X#X@X#X#X+X+X@X+XE.I.I.I.I.I.I.I.I.I.I.!.$X@X!.U.I.I.I.I.I.I.I.I.I.E.#X#X#X#X#X#X#X#X@X+X#X#X+X#X#X#X#X#X#X",
"#X#X#X@X#X#X#X#X@X#X#X#X#X+X#X#X#X@X#X$X$X$X#X$X$X$X$X@X$X#X#X#X+X#X$X$X#X$X#X$X#X$X#X$X#X#X+X#X#X#X#X#X#X#X#X#X#X#X#X#X#X#X#X#X",
"#X#X#X#X#X+X#X#X#X#X#X#X#X#X#X#X#X@X#X@X+X#X#X#X@X@X@X@X#X#X#X#X@X+X+X+X@X@X@X@X+X#X#X#X#X#X#X#X#X#X#X#X+X#X#X#X#X#X#X#X+X#X#X#X",
"#X#X#X+X#X#X#X#X+X#X#X#X#X#X#X#X#X@X@X#X+X@X#X#X#X#X@X@X#X@X@X#X#X#X#X#X#X#X@X#X#X#X#X#X#X#X#X#X#X#X+X#X#X#X#X#X#X#X#X#X#X#X#X+X",
"#X#X#X#X#X#X#X#X#X#X#X+X#X@X#X#X#X#X#X#X@X@X@X#X#X@X@X@X#X#X#X#X#X#X#X#X@X#X#X@X#X#X#X#X#X#X+X#X#X#X#X#X#X#X#X+X#X#X#X#X#X@X@X@X"
};
