/* XPM */
static char *result[] = {
/* columns rows colors chars-per-pixel */
"64 64 16 1 ",
"  c black",
". c #000500",
"X c #000700",
"o c #0C120C",
"O c #292018",
"+ c #4A3831",
"@ c #217131",
"# c #31703D",
"$ c #634939",
"% c #3C6043",
"& c #8C5D42",
"* c #108239",
"= c #109631",
"- c #42AA52",
"; c #4ABE52",
": c None",
/* pixels */
"::::::::::::::::::::::::::::::::::::::::::::::::::::::::::::::::",
"::::::::::::::::::::::::::::::::::::::::::::::::::::::::::::::::",
"::::::::::::::::::::::::::::::::::::::::::::::::::::::::::::::::",
"::::::::::::::::::::::::::::::%%%:::::::::::::::::::::::::::::::",
":::::::::::::::::::::::::::::##-*%::::::::::::::::::::::::::::::",
":::::::::::::::::::::::::::::#-;-%::::::::::::::::::::::::::::::",
"::::::::::::::::::::::::::::#*;;-#%:::::::::::::::::::::::::::::",
"::::::::::::::::::::::::::::#-;;-*%:::::::::::::::::::::::::::::",
"::::::::::::::::::::::::::::#;;;--%:::::::::::::::::::::::::::::",
":::::::::::::::::::::::::::#*;;;--#%::::::::::::::::::::::::::::",
":::::::::::::::::::::::::::#-;;;--=%::::::::::::::::::::::::::::",
"::::::::::::::::::::::::::#*;;;;--==%:::::::::::::::::::::::::::",
":::::::::::::::::::::::::#*-;;;;--==*#::::::::::::::::::::::::::",
"::::::::::::::::::::::::#*-;;;;;--===*%:::::::::::::::::::::::::",
"::::::::::::::::::::::##*;;;;;;;---===*%#:::::::::::::::::::::::",
":::::::::::::::::#####-;;;;;-;;;---======#####::::::::::::::::::",
":::::::::::::::::#-;;;;;;;---;;;;--======----%::::::::::::::::::",
"::::::::::::::::::#*-------=-;;;;--=======-*%:::::::::::::::::::",
":::::::::::::::::::##*----=*-;;;;-=*==*==*#%::::::::::::::::::::",
":::::::::::::::::::#####=====-;;;-=====##%%%::::::::::::::::::::",
"::::::::::::::::::##===*==*=*=;;;=*=*==*===#%:::::::::::::::::::",
"::::::::::::::::::#====*=**=-*-;-*==**=*====#%::::::::::::::::::",
":::::::::::::::::#-----=*===-==-======*======#%:::::::::::::::::",
"::::::::::::::###-;;----===---=====-=========-###:::::::::::::::",
"::::::::::::::#-;;;-----==----====---======-----#:::::::::::::::",
":::::::::::::::#---------------==--------*==---%::::::::::::::::",
"::::::::::::::::%#---#-------------------#***%%:::::::::::::::::",
":::::::::::::::::%%%##---#-----------#---#%%%%::::::::::::::::::",
":::::::::::::::::#**#*--#@#--#---#--#@%--*#**#::::::::::::::::::",
"::::::::::::::::#***#--#@@%-#=---*#-%@@%--#***#:::::::::::::::::",
":::::::::::::::#*===##%@@@@%#*=-=*#%@@*@%%#=***#::::::::::::::::",
":::::::::::::##=======@@@*@@@@*-*@@@*=**@@*====*#%::::::::::::::",
":::::::::::##---======*@***@*@@=*@@@**=**@*=======%#::::::::::::",
":::::::::##=;;---=-===***=**=*@*@**@@*==***========-##::::::::::",
":::::::###-;;;------==**==*==*@@@==***===**======----###::::::::",
":::::::#-;;;;-------=**=---===*@*===**======---==------%::::::::",
"::::::::#-----#-----===-----===*=====---===-----#-----%:::::::::",
":::::::::##--##;;---===-----========-----==-----#%--%%::::::::::",
":::::::::::###=;;---##-;;---========-----##=-----%%%::::::::::::",
"::::::::::::##-;---=%#;;;---*======*-----#%*=----%%:::::::::::::",
"::::::::::::#-;--=#%#-;;------===---------#%#*----%:::::::::::::",
":::::::::::#%%%%%%@@#;;;--*-;--=----*-----#@@#%%%%%%::::::::::::",
":::::::::##@******@#-;;--#-;;----;---#=----#@@@@@@@@%%::::::::::",
":::::####=--====***#;;-#%*-;;---;;---@@#=--#@@@******@%%%%::::::",
":::::#*-----======*%%%%@@*-;;---;;---*@@####*********===@%::::::",
"::::::%#======#===*@@@@@**=;;--*-;--=**@@@@@****@****==%%:::::::",
":::::::%%*==*#====*********-;-===---****@@@@@****%@**@%%::::::::",
":::::::::%%##====*****==**@*-=*@*=-*@*****@@@*****#%%%::::::::::",
":::::::::##====*====*====**@@@@*@@@@***********#*===#%::::::::::",
"::::::::#=====@#====#====***@@***@@*******#*==*%#=====%:::::::::",
"::::::::#%%%%##=====#=====****************%*==**%%%%%%%:::::::::",
":::::::::::::#=====%#====**==*****==****==%#**===%::::::::::::::",
"::::::::::::#====#%##====*====*@*====**===#%%%*===%:::::::::::::",
"::::::::::::##%%% X#====#*====*@*====*%*==*%.o%%%%%:::::::::::::",
":::::::::::::::::::#==####====#%#====##%%==%::::::::::::::::::::",
":::::::::::::::::::####OO##==#%+##==#%OO#%%%::::::::::::::::::::",
"::::::::::::::::::::: OO++#*=%+++#=*%++OO.::::::::::::::::::::::",
":::::::::::::::::::::O$$$$+#%+$$$+#%++$$$O::::::::::::::::::::::",
":::::::::::::::::::::OO$$$+++$$$$$++++$$OO::::::::::::::::::::::",
"::::::::::::::::::::::OOOO++O$$$$$O++OOO::::::::::::::::::::::::",
"::::::::::::::::::::::::::OOO$&&&$OOO:::::::::::::::::::::::::::",
"::::::::::::::::::::::::::::OO&&&OO:::::::::::::::::::::::::::::",
":::::::::::::::::::::::::::::O$&$O::::::::::::::::::::::::::::::",
":::::::::::::::::::::::::::::OO&OO::::::::::::::::::::::::::::::"
};
